<svg xmlns="http://www.w3.org/2000/svg" width="631" height="383" viewBox="0 0 631 383">
  <defs>
    <linearGradient id="atropos-bg-a" x1="50%" x2="50%" y1="0%" y2="100%">
      <stop offset="0%" stop-color="#4B0D9E"/>
      <stop offset="47.592%" stop-color="#C56BE7"/>
      <stop offset="100%" stop-color="#CC5A1E"/>
    </linearGradient>
  </defs>
  <g fill="none" fill-rule="evenodd" transform="translate(-111.662 -.973)">
    <rect width="685" height="383" x="84.662" y=".973" fill="url(#atropos-bg-a)"/>
    <path fill="#FFF" fill-rule="nonzero" d="M64.74 27.0323333C64.4013333 27.0323333 64.128 27.3056667 64.128 27.6443333 64.128 27.983 64.4013333 28.2563333 64.74 28.2563333 65.0773333 28.2563333 65.352 27.983 65.352 27.6443333 65.352 27.3056667 65.0773333 27.0323333 64.74 27.0323333M10.7989333 53.031C10.3765333 53.031 10.0344 53.3736667 10.0344 53.795 10.0344 54.2176666 10.3765333 54.5603333 10.7989333 54.5603333 11.2208 54.5603333 11.5636 54.2176666 11.5636 53.795 11.5636 53.3736667 11.2208 53.031 10.7989333 53.031M22.7630666 31.1203333C22.3776 31.1203333 22.0650667 31.4323333 22.0650667 31.8176666 22.0650667 32.203 22.3776 32.5163333 22.7630666 32.5163333 23.1484 32.5163333 23.4609333 32.203 23.4609333 31.8176666 23.4609333 31.4323333 23.1484 31.1203333 22.7630666 31.1203333M116.528 72.0536667C115.752 72.0536667 115.124 72.6816667 115.124 73.4576666 115.124 74.2323333 115.752 74.8603333 116.528 74.8603333 117.302667 74.8603333 117.930667 74.2323333 117.930667 73.4576666 117.930667 72.6816667 117.302667 72.0536667 116.528 72.0536667M178.345333 65.1456667C177.654667 65.1456667 177.096 65.7043333 177.096 66.395 177.096 67.0843333 177.654667 67.6443333 178.345333 67.6443333 179.036 67.6443333 179.594667 67.0843333 179.594667 66.395 179.594667 65.7043333 179.036 65.1456667 178.345333 65.1456667M48.364 89.0936667C47.6133333 89.0936667 47.0053333 89.7016667 47.0053333 90.4523333 47.0053333 91.203 47.6133333 91.8109999 48.364 91.8109999 49.1133333 91.8109999 49.7213333 91.203 49.7213333 90.4523333 49.7213333 89.7016667 49.1133333 89.0936667 48.364 89.0936667M57.4133333 84.0976667C56.6826667 84.0976667 56.0893333 84.691 56.0893333 85.4216666 56.0893333 86.1523333 56.6826667 86.7443333 57.4133333 86.7443333 58.144 86.7443333 58.7373333 86.1523333 58.7373333 85.4216666 58.7373333 84.691 58.144 84.0976667 57.4133333 84.0976667M292.218 72.056C291.586 72.056 291.074 72.568 291.074 73.2 291.074 73.832 291.586 74.3439999 292.218 74.3439999 292.85 74.3439999 293.363 73.832 293.363 73.2 293.363 72.568 292.85 72.056 292.218 72.056M295.501333 60.043C294.693333 60.043 294.036 60.7003333 294.036 61.5096666 294.036 62.3189999 294.693333 62.9736666 295.501333 62.9736666 296.310667 62.9736666 296.966667 62.3189999 296.966667 61.5096666 296.966667 60.7003333 296.310667 60.043 295.501333 60.043M189.292 26.11C188.615 26.11 188.065 26.66 188.065 27.338 188.065 28.0159999 188.615 28.5649999 189.292 28.5649999 189.971 28.5649999 190.52 28.0159999 190.52 27.338 190.52 26.66 189.971 26.11 189.292 26.11M131.912 33.091C131.476 33.091 131.122667 33.4456667 131.122667 33.8816666 131.122667 34.3176666 131.476 34.671 131.912 34.671 132.349333 34.671 132.702667 34.3176666 132.702667 33.8816666 132.702667 33.4456667 132.349333 33.091 131.912 33.091M49.64 28.051C49.356 28.051 49.124 28.2816667 49.124 28.567 49.124 28.8523333 49.356 29.0816666 49.64 29.0816666 49.9253333 29.0816666 50.156 28.8523333 50.156 28.567 50.156 28.2816667 49.9253333 28.051 49.64 28.051M20.9688 72.0763333C20.4718667 72.0763333 20.0697333 72.4776667 20.0697333 72.975 20.0697333 73.4723333 20.4718667 73.8736666 20.9688 73.8736666 21.4656 73.8736666 21.8677333 73.4723333 21.8677333 72.975 21.8677333 72.4776667 21.4656 72.0763333 20.9688 72.0763333M3.92919998 50.0536667C3.45466666 50.0536667 3.07026666 50.439 3.07026666 50.9123333 3.07026666 51.387 3.45466666 51.7723333 3.92919998 51.7723333 4.40359996 51.7723333 4.78799996 51.387 4.78799996 50.9123333 4.78799996 50.439 4.40359996 50.0536667 3.92919998 50.0536667M1.10306666 58.0403333L1.10306666 58.8496666C1.1604 58.7256666 1.19213333 58.5896667 1.19213333 58.4443333 1.19213333 58.3003333 1.1604 58.163 1.10306666 58.0403333M153.546667 81.155C152.764 81.155 152.129333 81.7896666 152.129333 82.5723333 152.129333 83.3549999 152.764 83.9896666 153.546667 83.9896666 154.329333 83.9896666 154.964 83.3549999 154.964 82.5723333 154.964 81.7896666 154.329333 81.155 153.546667 81.155M182.163 95.114C181.528 95.114 181.014 95.628 181.014 96.263 181.014 96.897 181.528 97.4109999 182.163 97.4109999 182.797 97.4109999 183.311 96.897 183.311 96.263 183.311 95.628 182.797 95.114 182.163 95.114M111.44 60.095C110.669333 60.095 110.044 60.7203333 110.044 61.491 110.044 62.2616666 110.669333 62.8869999 111.44 62.8869999 112.210667 62.8869999 112.836 62.2616666 112.836 61.491 112.836 60.7203333 112.210667 60.095 111.44 60.095M125.184 88.068C124.558 88.068 124.052 88.575 124.052 89.2 124.052 89.825 124.558 90.3319999 125.184 90.3319999 125.809 90.3319999 126.316 89.825 126.316 89.2 126.316 88.575 125.809 88.068 125.184 88.068M17.0193333 20.095C16.5270667 20.095 16.1286667 20.4936667 16.1286667 20.9856666 16.1286667 21.4776666 16.5270667 21.8763333 17.0193333 21.8763333 17.5114666 21.8763333 17.9093333 21.4776666 17.9093333 20.9856666 17.9093333 20.4936667 17.5114666 20.095 17.0193333 20.095M75.2386666 67.0763333C74.5706667 67.0763333 74.0293333 67.6176667 74.0293333 68.2856666 74.0293333 68.955 74.5706667 69.4963333 75.2386666 69.4963333 75.9066666 69.4963333 76.4479999 68.955 76.4479999 68.2856666 76.4479999 67.6176667 75.9066666 67.0763333 75.2386666 67.0763333M38.6338667 43.103C38.3281333 43.103 38.0806667 43.351 38.0806667 43.6563333 38.0806667 43.9616666 38.3281333 44.2083333 38.6338667 44.2083333 38.9390666 44.2083333 39.1869333 43.9616666 39.1869333 43.6563333 39.1869333 43.351 38.9390666 43.103 38.6338667 43.103M35.7224 53.043C35.3702667 53.043 35.0838667 53.3283333 35.0838667 53.6816667 35.0838667 54.0336666 35.3702667 54.3203333 35.7224 54.3203333 36.0754666 54.3203333 36.3609333 54.0336666 36.3609333 53.6816667 36.3609333 53.3283333 36.0754666 53.043 35.7224 53.043M42.6946666 51.1043333C42.348 51.1043333 42.0666667 51.3856667 42.0666667 51.7323333 42.0666667 52.079 42.348 52.3603333 42.6946666 52.3603333 43.0413333 52.3603333 43.3226666 52.079 43.3226666 51.7323333 43.3226666 51.3856667 43.0413333 51.1043333 42.6946666 51.1043333M80.4466666 77.0563333C79.6733333 77.0563333 79.0466667 77.6843333 79.0466667 78.4563333 79.0466667 79.2296666 79.6733333 79.8563333 80.4466666 79.8563333 81.2199999 79.8563333 81.8466666 79.2296666 81.8466666 78.4563333 81.8466666 77.6843333 81.2199999 77.0563333 80.4466666 77.0563333M571.74 54.083C571.358667 54.083 571.048 54.3923333 571.048 54.7736666 571.048 55.155 571.358667 55.4643333 571.74 55.4643333 572.121333 55.4643333 572.429333 55.155 572.429333 54.7736666 572.429333 54.3923333 572.121333 54.083 571.74 54.083M606.561333 71.051C606.32 71.051 606.125333 71.2456667 606.125333 71.4856667 606.125333 71.7256666 606.32 71.9203333 606.561333 71.9203333 606.801333 71.9203333 606.996 71.7256666 606.996 71.4856667 606.996 71.2456667 606.801333 71.051 606.561333 71.051M626.332 57.0403333C626.161333 57.0403333 626.024 57.1776667 626.024 57.3483333 626.024 57.5176667 626.161333 57.6563333 626.332 57.6563333 626.501333 57.6563333 626.64 57.5176667 626.64 57.3483333 626.64 57.1776667 626.501333 57.0403333 626.332 57.0403333M573.933333 70.0323333C573.448 70.0323333 573.054667 70.423 573.054667 70.9083333 573.054667 71.3923333 573.448 71.7843333 573.933333 71.7843333 574.417333 71.7843333 574.809333 71.3923333 574.809333 70.9083333 574.809333 70.423 574.417333 70.0323333 573.933333 70.0323333M526.182667 80.079C525.601333 80.079 525.130667 80.5496667 525.130667 81.131 525.130667 81.7123333 525.601333 82.1829999 526.182667 82.1829999 526.764 82.1829999 527.234667 81.7123333 527.234667 81.131 527.234667 80.5496667 526.764 80.079 526.182667 80.079M560.702667 50.1203333C560.328 50.1203333 560.024 50.4243333 560.024 50.799 560.024 51.175 560.328 51.479 560.702667 51.479 561.078667 51.479 561.382667 51.175 561.382667 50.799 561.382667 50.4243333 561.078667 50.1203333 560.702667 50.1203333M513.064 62.0736667C512.528 62.0736667 512.093333 62.5083333 512.093333 63.0443333 512.093333 63.5803333 512.528 64.0149999 513.064 64.0149999 513.6 64.0149999 514.034667 63.5803333 514.034667 63.0443333 514.034667 62.5083333 513.6 62.0736667 513.064 62.0736667M470.329 88.048C469.628 88.048 469.059 88.616 469.059 89.318 469.059 90.0189999 469.628 90.5869999 470.329 90.5869999 471.03 90.5869999 471.598 90.0189999 471.598 89.318 471.598 88.616 471.03 88.048 470.329 88.048M497.96 44.0483333C497.490667 44.0483333 497.109333 44.4296667 497.109333 44.9003333 497.109333 45.371 497.490667 45.7523333 497.96 45.7523333 498.430667 45.7523333 498.812 45.371 498.812 44.9003333 498.812 44.4296667 498.430667 44.0483333 497.96 44.0483333M515.865333 35.095C515.453333 35.095 515.121333 35.4283333 515.121333 35.839 515.121333 36.2483333 515.453333 36.5816666 515.865333 36.5816666 516.276 36.5816666 516.608 36.2483333 516.608 35.839 516.608 35.4283333 516.276 35.095 515.865333 35.095M462.118667 38.031C461.514667 38.031 461.025333 38.5203333 461.025333 39.1243333 461.025333 39.7283333 461.514667 40.2176666 462.118667 40.2176666 462.722667 40.2176666 463.213333 39.7283333 463.213333 39.1243333 463.213333 38.5203333 462.722667 38.031 462.118667 38.031M533.916 12.107C533.48 12.107 533.126667 12.4616667 533.126667 12.8976666 533.126667 13.3336666 533.48 13.687 533.916 13.687 534.352 13.687 534.706667 13.3336666 534.706667 12.8976666 534.706667 12.4616667 534.352 12.107 533.916 12.107M446.132 37.043C445.524 37.043 445.032 37.5363333 445.032 38.1443333 445.032 38.751 445.524 39.2443333 446.132 39.2443333 446.738667 39.2443333 447.232 38.751 447.232 38.1443333 447.232 37.5363333 446.738667 37.043 446.132 37.043M395.269333 69.0536667C394.589333 69.0536667 394.038667 69.6043333 394.038667 70.2843333 394.038667 70.9629999 394.589333 71.5136666 395.269333 71.5136666 395.948 71.5136666 396.498667 70.9629999 396.498667 70.2843333 396.498667 69.6043333 395.948 69.0536667 395.269333 69.0536667M436.026667 30.0896667C435.481333 30.0896667 435.04 30.531 435.04 31.075 435.04 31.619 435.481333 32.0603333 436.026667 32.0603333 436.570667 32.0603333 437.010667 31.619 437.010667 31.075 437.010667 30.531 436.570667 30.0896667 436.026667 30.0896667M380.461333 79.0496667C379.690667 79.0496667 379.066667 79.675 379.066667 80.4443333 379.066667 81.2149999 379.690667 81.8403333 380.461333 81.8403333 381.232 81.8403333 381.856 81.2149999 381.856 80.4443333 381.856 79.675 381.232 79.0496667 380.461333 79.0496667M465.496 59.1336667C464.726667 59.1336667 464.104 59.7563333 464.104 60.5243333 464.104 61.2936666 464.726667 61.9163333 465.496 61.9163333 466.264 61.9163333 466.886667 61.2936666 466.886667 60.5243333 466.886667 59.7563333 466.264 59.1336667 465.496 59.1336667M429.388 95.047C428.676 95.047 428.099 95.624 428.099 96.336 428.099 97.047 428.676 97.6239999 429.388 97.6239999 430.099 97.6239999 430.676 97.047 430.676 96.336 430.676 95.624 430.099 95.047 429.388 95.047M549.773333 45.047C549.413333 45.047 549.121333 45.3376667 549.121333 45.6976666 549.121333 46.0576666 549.413333 46.3496666 549.773333 46.3496666 550.133333 46.3496666 550.425333 46.0576666 550.425333 45.6976666 550.425333 45.3376667 550.133333 45.047 549.773333 45.047M555.008 72.1296667C554.492 72.1296667 554.073333 72.5483333 554.073333 73.0643333 554.073333 73.5803333 554.492 73.9989999 555.008 73.9989999 555.525333 73.9989999 555.942667 73.5803333 555.942667 73.0643333 555.942667 72.5483333 555.525333 72.1296667 555.008 72.1296667M583.210667 86.0843333C582.602667 86.0843333 582.109333 86.5776667 582.109333 87.1856666 582.109333 87.7936666 582.602667 88.2869999 583.210667 88.2869999 583.818667 88.2869999 584.312 87.7936666 584.312 87.1856666 584.312 86.5776667 583.818667 86.0843333 583.210667 86.0843333M619.337333 62.1136667C619.169333 62.1136667 619.034667 62.2496667 619.034667 62.4176667 619.034667 62.5843333 619.169333 62.7203333 619.337333 62.7203333 619.505333 62.7203333 619.641333 62.5843333 619.641333 62.4176667 619.641333 62.2496667 619.505333 62.1136667 619.337333 62.1136667M618.152 97.0723333C617.585333 97.0723333 617.125333 97.5323333 617.125333 98.099 617.125333 98.6656666 617.585333 99.1243333 618.152 99.1243333 618.718667 99.1243333 619.176 98.6656666 619.176 98.099 619.176 97.5323333 618.718667 97.0723333 618.152 97.0723333M629.34 63.135C629.297333 63.135 629.254667 63.143 629.217333 63.1576667 629.194667 63.315 629.126667 63.467 629.012 63.5923333 629.058667 63.7283333 629.188 63.827 629.34 63.827 629.532 63.827 629.686667 63.6723333 629.686667 63.4816667 629.686667 63.2896667 629.532 63.135 629.34 63.135M489.191 103.063C488.541 103.063 488.013 103.591 488.013 104.241 488.013 104.891 488.541 105.418 489.191 105.418 489.84 105.418 490.368 104.891 490.368 104.241 490.368 103.591 489.84 103.063 489.191 103.063M474.333333 54.1016667C473.638667 54.1016667 473.076 54.6643333 473.076 55.359 473.076 56.0536666 473.638667 56.6176666 474.333333 56.6176666 475.028 56.6176666 475.592 56.0536666 475.592 55.359 475.592 54.6643333 475.028 54.1016667 474.333333 54.1016667M481.954667 38.0536667C481.432 38.0536667 481.009333 38.4776667 481.009333 38.999 481.009333 39.5203333 481.432 39.9443333 481.954667 39.9443333 482.476 39.9443333 482.898667 39.5203333 482.898667 38.999 482.898667 38.4776667 482.476 38.0536667 481.954667 38.0536667M447.038667 18.139C446.474667 18.139 446.017333 18.595 446.017333 19.159 446.017333 19.7216666 446.474667 20.1789999 447.038667 20.1789999 447.601333 20.1789999 448.058667 19.7216666 448.058667 19.159 448.058667 18.595 447.601333 18.139 447.038667 18.139M408.882667 44.123C408.413333 44.123 408.032 44.503 408.032 44.9723333 408.032 45.443 408.413333 45.823 408.882667 45.823 409.352 45.823 409.732 45.443 409.732 44.9723333 409.732 44.503 409.352 44.123 408.882667 44.123M333.281 78.093C332.604 78.093 332.055 78.641 332.055 79.318 332.055 79.9939999 332.604 80.5429999 333.281 80.5429999 333.957 80.5429999 334.506 79.9939999 334.506 79.318 334.506 78.641 333.957 78.093 333.281 78.093M310.205 74.116C309.55 74.116 309.019 74.646 309.019 75.302 309.019 75.956 309.55 76.4869999 310.205 76.4869999 310.86 76.4869999 311.39 75.956 311.39 75.302 311.39 74.646 310.86 74.116 310.205 74.116M248.302667 96.1296667C247.585333 96.1296667 247.004 96.711 247.004 97.4283333 247.004 98.1456666 247.585333 98.7269999 248.302667 98.7269999 249.02 98.7269999 249.601333 98.1456666 249.601333 97.4283333 249.601333 96.711 249.02 96.1296667 248.302667 96.1296667M298.311 88.087C297.635 88.087 297.086 88.636 297.086 89.312 297.086 89.988 297.635 90.5369999 298.311 90.5369999 298.988 90.5369999 299.536 89.988 299.536 89.312 299.536 88.636 298.988 88.087 298.311 88.087M251.333333 90.1083333C250.64 90.1083333 250.078667 90.6696667 250.078667 91.363 250.078667 92.0563333 250.64 92.6176666 251.333333 92.6176666 252.026667 92.6176666 252.588 92.0563333 252.588 91.363 252.588 90.6696667 252.026667 90.1083333 251.333333 90.1083333M241.234667 79.0936667C240.62 79.0936667 240.12 79.5923333 240.12 80.207 240.12 80.8216666 240.62 81.3203333 241.234667 81.3203333 241.849333 81.3203333 242.348 80.8216666 242.348 80.207 242.348 79.5923333 241.849333 79.0936667 241.234667 79.0936667M305.482667 48.0376667C304.716 48.0376667 304.094667 48.659 304.094667 49.4256666 304.094667 50.1909999 304.716 50.8123333 305.482667 50.8123333 306.248 50.8123333 306.869333 50.1909999 306.869333 49.4256666 306.869333 48.659 306.248 48.0376667 305.482667 48.0376667M214.337 30.094C213.65 30.094 213.093 30.651 213.093 31.338 213.093 32.0249999 213.65 32.5829999 214.337 32.5829999 215.024 32.5829999 215.581 32.0249999 215.581 31.338 215.581 30.651 215.024 30.094 214.337 30.094M277.968 17.0883333C277.434667 17.0883333 277.002667 17.5216667 277.002667 18.055 277.002667 18.5883333 277.434667 19.0216666 277.968 19.0216666 278.502667 19.0216666 278.934667 18.5883333 278.934667 18.055 278.934667 17.5216667 278.502667 17.0883333 277.968 17.0883333M286.010667 1.11766666L284.062667 1.11766666C284.168 1.55766665 284.564 1.88433331 285.036 1.88433331 285.509333 1.88433331 285.905333 1.55766665 286.010667 1.11766666M299.821333 26.0536667C299.373333 26.0536667 299.010667 26.4163333 299.010667 26.8643333 299.010667 27.311 299.373333 27.6736666 299.821333 27.6736666 300.269333 27.6736666 300.632 27.311 300.632 26.8643333 300.632 26.4163333 300.269333 26.0536667 299.821333 26.0536667M342.793333 19.0483333C342.374667 19.0483333 342.033333 19.3896667 342.033333 19.8096666 342.033333 20.2296666 342.374667 20.571 342.793333 20.571 343.213333 20.571 343.554667 20.2296666 343.554667 19.8096666 343.554667 19.3896667 343.213333 19.0483333 342.793333 19.0483333M338.149 58.056C337.533 58.056 337.032 58.556 337.032 59.173 337.032 59.79 337.533 60.2899999 338.149 60.2899999 338.766 60.2899999 339.266 59.79 339.266 59.173 339.266 58.556 338.766 58.056 338.149 58.056M382.841333 16.1363333C382.430667 16.1363333 382.097333 16.4696667 382.097333 16.8803333 382.097333 17.291 382.430667 17.6243333 382.841333 17.6243333 383.252 17.6243333 383.585333 17.291 383.585333 16.8803333 383.585333 16.4696667 383.252 16.1363333 382.841333 16.1363333M324.661333 13.0523333C324.32 13.0523333 324.044 13.3296667 324.044 13.671 324.044 14.0123333 324.32 14.2883333 324.661333 14.2883333 325.002667 14.2883333 325.278667 14.0123333 325.278667 13.671 325.278667 13.3296667 325.002667 13.0523333 324.661333 13.0523333M132.872 26.1256667C132.462667 26.1256667 132.132 26.4563333 132.132 26.8656666 132.132 27.2736666 132.462667 27.6043333 132.872 27.6043333 133.28 27.6043333 133.610667 27.2736666 133.610667 26.8656666 133.610667 26.4563333 133.28 26.1256667 132.872 26.1256667M186.294667 63.0323333C185.616 63.0323333 185.066667 63.5816667 185.066667 64.259 185.066667 64.9376666 185.616 65.4869999 186.294667 65.4869999 186.972 65.4869999 187.522667 64.9376666 187.522667 64.259 187.522667 63.5816667 186.972 63.0323333 186.294667 63.0323333M373.106667 51.0376667C372.544 51.0376667 372.086667 51.495 372.086667 52.059 372.086667 52.623 372.544 53.0803333 373.106667 53.0803333 373.670667 53.0803333 374.128 52.623 374.128 52.059 374.128 51.495 373.670667 51.0376667 373.106667 51.0376667M487.219 85.055C486.573 85.055 486.048 85.579 486.048 86.225 486.048 86.872 486.573 87.3959999 487.219 87.3959999 487.864 87.3959999 488.389 86.872 488.389 86.225 488.389 85.579 487.864 85.055 487.219 85.055M242.276 94.155C241.590667 94.155 241.036 94.7096667 241.036 95.3936666 241.036 96.0776666 241.590667 96.6323333 242.276 96.6323333 242.96 96.6323333 243.514667 96.0776666 243.514667 95.3936666 243.514667 94.7096667 242.96 94.155 242.276 94.155M121.94 35.0763333C121.448 35.0763333 121.049333 35.475 121.049333 35.967 121.049333 36.459 121.448 36.8576666 121.94 36.8576666 122.432 36.8576666 122.830667 36.459 122.830667 35.967 122.830667 35.475 122.432 35.0763333 121.94 35.0763333M244.199 31.051C243.588 31.051 243.091 31.7136666 243.091 32.5296666 243.091 33.3456666 243.588 34.0069999 244.199 34.0069999 244.811 34.0069999 245.308 33.3456666 245.308 32.5296666 245.308 31.7136667 244.811 31.051 244.199 31.051M385.148 63.1496667C384.532 63.1496667 384.032 63.6483333 384.032 64.2643333 384.032 64.8803333 384.532 65.3789999 385.148 65.3789999 385.764 65.3789999 386.262667 64.8803333 386.262667 64.2643333 386.262667 63.6483333 385.764 63.1496667 385.148 63.1496667M392.848 42.0856667C392.430667 42.0856667 392.092 42.4243333 392.092 42.8416666 392.092 43.259 392.430667 43.5976666 392.848 43.5976666 393.265333 43.5976666 393.604 43.259 393.604 42.8416666 393.604 42.4243333 393.265333 42.0856667 392.848 42.0856667M249.164 19.099C248.559 19.099 248.068 19.7536666 248.068 20.5603333 248.068 21.3669999 248.559 22.0216666 249.164 22.0216666 249.769 22.0216666 250.26 21.3669999 250.26 20.5603333 250.26 19.7536666 249.769 19.099 249.164 19.099M171.466667 28.055C170.714667 28.055 170.105333 28.6643333 170.105333 29.4163333 170.105333 30.1683333 170.714667 30.7776666 171.466667 30.7776666 172.218667 30.7776666 172.828 30.1683333 172.828 29.4163333 172.828 28.6643333 172.218667 28.055 171.466667 28.055M223.094667 79.0536667C222.512 79.0536667 222.04 79.5243333 222.04 80.107 222.04 80.6883333 222.512 81.1616666 223.094667 81.1616666 223.676 81.1616666 224.149333 80.6883333 224.149333 80.107 224.149333 79.5243333 223.676 79.0536667 223.094667 79.0536667M206.374667 58.1576667C205.681333 58.1576667 205.12 58.719 205.12 59.411 205.12 60.1043333 205.681333 60.6656666 206.374667 60.6656666 207.066667 60.6656666 207.629333 60.1043333 207.629333 59.411 207.629333 58.719 207.066667 58.1576667 206.374667 58.1576667M216.208 76.0776667C215.593333 76.0776667 215.094667 76.5763333 215.094667 77.191 215.094667 77.8056666 215.593333 78.3043333 216.208 78.3043333 216.822667 78.3043333 217.321333 77.8056666 217.321333 77.191 217.321333 76.5763333 216.822667 76.0776667 216.208 76.0776667M384.921333 50.067C384.433333 50.067 384.037333 50.463 384.037333 50.951 384.037333 51.439 384.433333 51.8349999 384.921333 51.8349999 385.409333 51.8349999 385.805333 51.439 385.805333 50.951 385.805333 50.463 385.409333 50.067 384.921333 50.067M543.762667 37.135C543.393333 37.135 543.094667 37.4336667 543.094667 37.8016666 543.094667 38.171 543.393333 38.471 543.762667 38.471 544.132 38.471 544.430667 38.171 544.430667 37.8016666 544.430667 37.4336667 544.132 37.135 543.762667 37.135M225.882667 11.123L225.072 11.123C224.466667 11.299 224.022667 11.8576666 224.022667 12.519 224.022667 13.3216666 224.674667 13.9723333 225.477333 13.9723333 226.28 13.9723333 226.930667 13.3216666 226.930667 12.519 226.930667 11.8576666 226.488 11.299 225.882667 11.123M272.936 11.123L271.662667 11.123C271.334667 11.3336667 271.117333 11.7003333 271.117333 12.119 271.117333 12.771 271.646667 13.3003333 272.3 13.3003333 272.952 13.3003333 273.48 12.771 273.48 12.119 273.48 11.7003333 273.264 11.3336667 272.936 11.123M290.217333 13.1096667C289.6 13.1096667 289.098667 13.611 289.098667 14.2283333 289.098667 14.8469999 289.6 15.3469999 290.217333 15.3469999 290.836 15.3469999 291.337333 14.8469999 291.337333 14.2283333 291.337333 13.611 290.836 13.1096667 290.217333 13.1096667" opacity=".504" transform="matrix(1 0 0 -1 112.662 107)"/>
  </g>
</svg>
