<svg xmlns="http://www.w3.org/2000/svg" width="388" height="220" viewBox="0 0 388 220">
  <g fill="#FFF" fill-rule="evenodd" transform="translate(174.956 84.32)">
    <polygon points="7.028 14.801 12.168 27.556 17.571 14.801 22.868 14.801 28.113 27.556 33.463 14.801 39.862 14.801 27.851 40.94 19.878 23.199 12.011 40.94 0 14.801"/>
    <path fill-rule="nonzero" d="M54.8098214,14.1714703 C56.6630495,14.1714703 58.3938687,14.5038842 60.0023308,15.168722 C61.6107929,15.8335597 63.0181762,16.7608195 64.2245228,17.9505291 C65.4308694,19.1402387 66.3749526,20.5311284 67.0568007,22.1232398 C67.7386487,23.7153512 68.0795677,25.4211593 68.0795677,27.2407152 C68.0795677,29.0602711 67.7386487,30.7660792 67.0568007,32.3581906 C66.3749526,33.950302 65.4308694,35.332444 64.2245228,36.5046579 C63.0181762,37.6768718 61.6107929,38.6041315 60.0023308,39.286465 C58.3938687,39.9687985 56.6630495,40.3099601 54.8098214,40.3099601 C52.9565933,40.3099601 51.2257742,39.9687985 49.617312,39.286465 C48.0088499,38.6041315 46.6014666,37.6768718 45.39512,36.5046579 C44.1887734,35.332444 43.2446903,33.950302 42.5628422,32.3581906 C41.8809941,30.7660792 41.5400752,29.0602711 41.5400752,27.2407152 C41.5400752,25.4211593 41.8809941,23.7153512 42.5628422,22.1232398 C43.2446903,20.5311284 44.1887734,19.1402387 45.39512,17.9505291 C46.6014666,16.7608195 48.0088499,15.8335597 49.617312,15.168722 C51.2257742,14.5038842 52.9565933,14.1714703 54.8098214,14.1714703 Z M54.8098214,20.0500062 C53.7608244,20.0500062 52.8079997,20.2424563 51.9513188,20.6273624 C51.0946379,21.0122684 50.3690924,21.5371325 49.7746608,22.2019702 C49.1802291,22.8668079 48.7256706,23.6278608 48.4109715,24.4851515 C48.0962723,25.3424423 47.9389251,26.2609543 47.9389251,27.2407152 C47.9389251,28.2204761 48.0962723,29.1477359 48.4109715,30.0225224 C48.7256706,30.8973088 49.1802291,31.6583617 49.7746608,32.3057037 C50.3690924,32.9530457 51.0946379,33.469162 51.9513188,33.854068 C52.8079997,34.2389741 53.7608244,34.4314242 54.8098214,34.4314242 C55.8588185,34.4314242 56.8116431,34.2389741 57.6683241,33.854068 C58.525005,33.469162 59.2505504,32.9530457 59.844982,32.3057037 C60.4394137,31.6583617 60.8939723,30.8973088 61.2086714,30.0225224 C61.5233705,29.1477359 61.6807177,28.2204761 61.6807177,27.2407152 C61.6807177,26.2609543 61.5233705,25.3424423 61.2086714,24.4851515 C60.8939723,23.6278608 60.4394137,22.8668079 59.844982,22.2019702 C59.2505504,21.5371325 58.525005,21.0122684 57.6683241,20.6273624 C56.8116431,20.2424563 55.8588185,20.0500062 54.8098214,20.0500062 Z"/>
    <path d="M85.5452811,14.1714703 C86.1397127,14.1714703 86.8040676,14.2327045 87.5383655,14.3551746 C88.2726634,14.4776447 89.0069503,14.6788426 89.7412483,14.9587743 L87.5383655,20.6273624 C87.1886998,20.4524051 86.7603658,20.3124413 86.2533505,20.207467 C85.7463353,20.1024926 85.2131031,20.0500062 84.6536381,20.0500062 C83.1850422,20.0500062 81.9961967,20.4086633 81.0870659,21.1259882 C80.1779352,21.8433131 79.4786143,22.604366 78.9890824,23.4091695 L78.9890824,39.680117 L72.6951316,39.680117 L72.6951316,14.8013135 L78.6743848,14.8013135 L78.6743848,18.4229114 C79.2688165,17.3381762 80.1429676,16.35843 81.2968643,15.4836435 C82.4507611,14.608857 83.8668858,14.1714703 85.5452811,14.1714703 Z"/>
    <polygon points="100.021 24.616 108.938 14.801 117.067 14.801 106.158 26.558 117.802 39.68 109.515 39.68 100.021 28.815 100.021 39.68 93.727 39.68 93.727 0 100.021 0"/>
  </g>
</svg>
