<svg xmlns="http://www.w3.org/2000/svg" width="388" height="220" viewBox="0 0 388 220">
  <path fill="#A434FF" d="M120.13067,29.8579261 C127.374982,29.8579261 131.66475,26.5766792 131.693159,21.0511163 C131.66475,16.4062344 128.525549,13.565328 122.786918,12.3011246 L120.28692,11.7329434 C117.644877,11.1647621 115.968742,10.2840811 116.025561,8.55112821 C116.039765,6.96022063 117.4034,5.80965355 120.13067,5.80965355 C122.872145,5.80965355 124.377825,7.04544783 124.562484,9.11930948 L131.295432,9.11930948 C131.238614,3.67897376 126.906232,0 120.144875,0 C113.497154,0 108.710227,3.62215564 108.75284,9.03408229 C108.738636,13.4516917 111.835224,15.9374848 116.863628,17.0880519 L119.903398,17.7982785 C123.099417,18.5369141 124.534075,19.4033906 124.562484,21.0369118 C124.534075,22.8124782 122.872145,24.0482725 120.045443,24.0482725 C116.934651,24.0482725 114.889198,22.5994103 114.732948,19.8011175 L108,19.8011175 C108.085227,26.6050883 112.815336,29.8579261 120.13067,29.8579261 Z M142.204538,29.4886082 L142.204538,22.940319 L143.610787,21.2357752 L148.809645,29.4886082 L156.835206,29.4886082 L148.781236,17.1732791 L156.522706,7.67044723 L148.653396,7.67044723 L142.517038,15.4829398 L142.204538,15.4829398 L142.204538,0.397726893 L135.258522,0.397726893 L135.258522,29.4886082 L142.204538,29.4886082 Z M169.22158,29.9005397 C174.946007,29.9005397 178.710208,27.1306559 179.505661,22.8408873 L173.127827,22.6562284 C172.588054,24.1050906 171.167601,24.8863399 169.349421,24.8863399 C166.678969,24.8863399 165.031243,23.1107734 165.031243,20.4403214 L165.031243,20.2556625 L179.576684,20.2556625 L179.576684,18.5227096 C179.576684,11.3352165 175.201688,7.38635659 169.008512,7.38635659 C162.41761,7.38635659 158.184659,11.9033977 158.184659,18.6647549 C158.184659,25.6533846 162.360791,29.9005397 169.22158,29.9005397 Z M173.113622,16.2215754 L165.031243,16.2215754 C165.130675,14.0482821 166.849424,12.4005564 169.150558,12.4005564 C171.437487,12.4005564 173.085213,13.9914639 173.113622,16.2215754 Z M190.088061,29.4886082 L190.088061,0.397726893 L183.142045,0.397726893 L183.142045,29.4886082 L190.088061,29.4886082 Z M204.69033,29.9005397 C210.414757,29.9005397 214.178958,27.1306559 214.974411,22.8408873 L208.596577,22.6562284 C208.056804,24.1050906 206.636351,24.8863399 204.818171,24.8863399 C202.147719,24.8863399 200.499993,23.1107734 200.499993,20.4403214 L200.499993,20.2556625 L215.045434,20.2556625 L215.045434,18.5227096 C215.045434,11.3352165 210.670438,7.38635659 204.477262,7.38635659 C197.88636,7.38635659 193.653409,11.9033977 193.653409,18.6647549 C193.653409,25.6533846 197.829541,29.9005397 204.69033,29.9005397 Z M208.582372,16.2215754 L200.499993,16.2215754 C200.599425,14.0482821 202.318174,12.4005564 204.619308,12.4005564 C206.906237,12.4005564 208.553963,13.9914639 208.582372,16.2215754 Z M227.772718,29.8011079 C229.448853,29.7158808 230.656238,29.374972 231.323851,29.1761085 L230.272715,24.1619088 C229.97442,24.2329314 229.278398,24.3749768 228.75283,24.3749768 C227.630672,24.3749768 226.991468,23.9204317 226.991468,22.6278193 L226.991468,12.7840787 L230.926124,12.7840787 L230.926124,7.67044723 L226.991468,7.67044723 L226.991468,2.44317949 L220.045452,2.44317949 L220.045452,7.67044723 L217.161932,7.67044723 L217.161932,12.7840787 L220.045452,12.7840787 L220.045452,23.3948641 C220.002839,27.8124735 222.872154,30.0283805 227.772718,29.8011079 Z M244.661921,29.9005397 C251.52271,29.9005397 255.684638,25.369294 255.684638,18.6505504 C255.684638,11.9176023 251.52271,7.38635659 244.661921,7.38635659 C237.801132,7.38635659 233.639205,11.9176023 233.639205,18.6505504 C233.639205,25.369294 237.801132,29.9005397 244.661921,29.9005397 Z M244.704535,24.6590674 C242.133515,24.6590674 240.713061,22.2158879 240.713061,18.6079368 C240.713061,14.9857812 242.133515,12.5283971 244.704535,12.5283971 C247.190328,12.5283971 248.610781,14.9857812 248.610781,18.6079368 C248.610781,22.2158879 247.190328,24.6590674 244.704535,24.6590674 Z M266.196015,29.4886082 L266.196015,17.0454383 C266.21022,14.5596452 267.659082,13.0823739 269.860785,13.0823739 C272.062487,13.0823739 273.369304,14.5312361 273.355099,16.9460066 L273.355099,29.4886082 L280.301166,29.4886082 L280.301166,15.5823715 C280.31532,10.6676035 277.318164,7.38635659 272.7301,7.38635659 C269.505671,7.38635659 267.062492,9.01987776 266.096584,11.6761252 L265.855107,11.6761252 L265.855107,7.67044723 L259.249999,7.67044723 L259.249999,29.4886082 L266.196015,29.4886082 Z M129.122139,79.4886082 L129.122139,73.7783864 L115.869311,73.7783864 L115.869311,67.7982785 L128.085208,67.7982785 L128.085208,62.0738521 L115.869311,62.0738521 L115.869311,56.1079487 L129.122139,56.1079487 L129.122139,50.3977269 L108.838067,50.3977269 L108.838067,79.4886082 L129.122139,79.4886082 Z M140.471583,79.4886082 L140.471583,50.3977269 L133.525567,50.3977269 L133.525567,79.4886082 L140.471583,79.4886082 Z M155.073853,79.9005397 C160.798279,79.9005397 164.56248,77.1306559 165.357934,72.8408873 L158.980099,72.6562284 C158.440327,74.1050906 157.019874,74.8863399 155.201694,74.8863399 C152.531242,74.8863399 150.883516,73.1107734 150.883516,70.4403214 L150.883516,70.2556625 L165.428957,70.2556625 L165.428957,68.5227096 C165.428957,61.3352165 161.053961,57.3863566 154.860785,57.3863566 C148.269882,57.3863566 144.036932,61.9033977 144.036932,68.6647549 C144.036932,75.6533846 148.213064,79.9005397 155.073853,79.9005397 Z M158.965895,66.2215754 L150.883516,66.2215754 C150.982948,64.0482821 152.701696,62.4005564 155.00283,62.4005564 C157.28976,62.4005564 158.937486,63.9914639 158.965895,66.2215754 Z M175.940333,79.4886082 L175.940333,66.5766887 C175.940333,64.4175999 177.204537,63.0397603 179.022717,63.0397603 C180.826692,63.0397603 182.019873,64.3039636 182.019873,66.3210072 L182.019873,79.4886082 L188.696003,79.4886082 L188.696003,66.4630525 C188.696003,64.3749863 189.84657,63.0397603 191.764182,63.0397603 C193.525544,63.0397603 194.775543,64.2187364 194.775543,66.3920298 L194.775543,79.4886082 L201.721559,79.4886082 L201.721559,64.8011222 C201.721559,60.1846494 198.880653,57.3863566 194.761338,57.3863566 C191.53691,57.3863566 188.994298,59.0766959 188.18464,61.6761252 L187.957367,61.6761252 C187.374982,59.0624914 185.031234,57.3863566 182.005669,57.3863566 C179.022717,57.3863566 176.749992,59.0198778 175.840902,61.6761252 L175.599425,61.6761252 L175.599425,57.6704472 L168.994317,57.6704472 L168.994317,79.4886082 L175.940333,79.4886082 Z M216.238626,79.9005397 C221.963052,79.9005397 225.727253,77.1306559 226.522707,72.8408873 L220.144872,72.6562284 C219.6051,74.1050906 218.184647,74.8863399 216.366467,74.8863399 C213.696015,74.8863399 212.048289,73.1107734 212.048289,70.4403214 L212.048289,70.2556625 L226.59373,70.2556625 L226.59373,68.5227096 C226.59373,61.3352165 222.218734,57.3863566 216.025558,57.3863566 C209.434655,57.3863566 205.201705,61.9033977 205.201705,68.6647549 C205.201705,75.6533846 209.377837,79.9005397 216.238626,79.9005397 Z M220.130668,66.2215754 L212.048289,66.2215754 C212.147721,64.0482821 213.866469,62.4005564 216.167603,62.4005564 C218.454533,62.4005564 220.102259,63.9914639 220.130668,66.2215754 Z M237.105106,79.4886082 L237.105106,67.0454383 C237.119311,64.5596452 238.568173,63.0823739 240.769875,63.0823739 C242.971578,63.0823739 244.278395,64.5312361 244.26419,66.9460066 L244.26419,79.4886082 L251.210257,79.4886082 L251.210257,65.5823715 C251.224411,60.6676035 248.227255,57.3863566 243.639191,57.3863566 C240.414762,57.3863566 237.971583,59.0198778 237.005674,61.6761252 L236.764197,61.6761252 L236.764197,57.6704472 L230.15909,57.6704472 L230.15909,79.4886082 L237.105106,79.4886082 Z M264.690331,79.8011079 C266.366466,79.7158808 267.573851,79.374972 268.241464,79.1761085 L267.190329,74.1619088 C266.892034,74.2329314 266.196012,74.3749768 265.670444,74.3749768 C264.548286,74.3749768 263.909082,73.9204317 263.909082,72.6278193 L263.909082,62.7840787 L267.843737,62.7840787 L267.843737,57.6704472 L263.909082,57.6704472 L263.909082,52.4431795 L256.963066,52.4431795 L256.963066,57.6704472 L254.079546,57.6704472 L254.079546,62.7840787 L256.963066,62.7840787 L256.963066,73.3948641 C256.920452,77.8124735 259.789768,80.0283805 264.690331,79.8011079 Z M280.869308,79.9005397 C286.707371,79.9005397 290.954526,76.9886106 290.982935,72.4999785 C290.954526,69.3181634 288.852255,67.4289607 284.505669,66.5908933 L280.301127,65.7954395 C278.454538,65.4261217 277.857948,64.7727132 277.872152,63.9346458 C277.857948,62.8266923 279.15056,62.1448748 280.755672,62.1448748 C282.588057,62.1448748 283.866465,63.1249875 284.065328,64.5028271 L290.443163,64.3323727 C290.073845,60.014195 286.536917,57.3863566 280.627831,57.3863566 C274.718746,57.3863566 270.954545,59.9573769 270.982954,64.3323727 C270.954545,67.6846422 273.099429,69.8437311 277.460221,70.6533894 L281.267035,71.3778205 C283.071011,71.7329338 283.894874,72.3011151 283.923283,73.2670233 C283.894874,74.3607722 282.673284,75.0852033 280.897717,75.0852033 C278.923287,75.0852033 277.588061,74.2329314 277.289766,72.6420239 L270.428977,72.8124782 C270.926136,77.1306559 274.633519,79.9005397 280.869308,79.9005397 Z" transform="translate(49 70)"/>
</svg>
