<svg xmlns="http://www.w3.org/2000/svg" width="388" height="220" viewBox="0 0 388 220">
  <path fill="#FF6300" d="M15.4062344,158 L15.4062344,133.980137 L24.3124759,133.980137 L24.3124759,128.909119 L0.420453191,128.909119 L0.420453191,133.980137 L9.3266947,133.980137 L9.3266947,158 L15.4062344,158 Z M34.3693099,158.411931 C37.5937387,158.411931 39.6818049,157.005683 40.7471448,154.974435 L40.9175992,154.974435 L40.9175992,158 L46.65623,158 L46.65623,143.284105 C46.65623,138.085246 42.2528252,135.897748 37.3948752,135.897748 C32.1676075,135.897748 28.7301108,138.397748 27.8920434,142.375015 L33.488629,142.82956 C33.9005604,141.380698 35.1931728,140.315358 37.3664662,140.315358 C39.4261233,140.315358 40.6050995,141.352289 40.6050995,143.14206 L40.6050995,143.227287 C40.6050995,144.516348 39.3518454,144.778935 36.2216943,145.098216 L35.6317551,145.157133 C35.5299386,145.167137 35.4263639,145.177253 35.3210136,145.187512 C31.0028359,145.585239 27.1249987,147.034101 27.1249987,151.906256 C27.1249987,156.224434 30.2073821,158.411931 34.3693099,158.411931 Z M36.1022628,154.235799 C34.2414692,154.235799 32.9062432,153.369323 32.9062432,151.707392 C32.9062432,150.002849 34.3124918,149.164781 36.4431716,148.866486 C37.7641931,148.681827 39.9232819,148.369327 40.647713,147.886373 L40.647713,150.201712 C40.647713,152.488642 38.7585103,154.235799 36.1022628,154.235799 Z M54.3977221,133.369342 C56.2016976,133.369342 57.6789689,131.991502 57.6789689,130.301163 C57.6789689,128.625028 56.2016976,127.247188 54.3977221,127.247188 C52.6079511,127.247188 51.1306797,128.625028 51.1306797,130.301163 C51.1306797,131.991502 52.6079511,133.369342 54.3977221,133.369342 Z M57.4090828,158 L57.4090828,136.181839 L51.3579522,136.181839 L51.3579522,158 L57.4090828,158 Z M68.2897647,158 L68.2897647,128.909119 L62.2386341,128.909119 L62.2386341,158 L68.2897647,158 Z M83.8153284,158 L87.5653248,144.278422 L87.8352109,144.278422 L91.5852074,158 L97.9914512,158 L103.914741,136.181839 L97.8067923,136.181839 L94.4829319,150.755689 L94.298273,150.755689 L90.7187309,136.181839 L84.7102139,136.181839 L81.18749,150.840916 L80.9886266,150.840916 L77.607948,136.181839 L71.4857947,136.181839 L77.423289,158 L83.8153284,158 Z M110.164768,133.369342 C111.968743,133.369342 113.446014,131.991502 113.446014,130.301163 C113.446014,128.625028 111.968743,127.247188 110.164768,127.247188 C108.374997,127.247188 106.897725,128.625028 106.897725,130.301163 C106.897725,131.991502 108.374997,133.369342 110.164768,133.369342 Z M113.176128,158 L113.176128,136.181839 L107.124998,136.181839 L107.124998,158 L113.176128,158 Z M124.05681,158 L124.05681,145.386376 C124.071015,142.573878 125.747149,140.926153 128.190329,140.926153 C130.619304,140.926153 132.082371,142.51706 132.068166,145.187512 L132.068166,158 L138.119297,158 L138.119297,144.107968 C138.119297,139.022745 135.136345,135.897748 130.590895,135.897748 C127.352262,135.897748 125.008514,137.488656 124.028401,140.031267 L123.772719,140.031267 L123.772719,136.181839 L118.00568,136.181839 L118.00568,158 L124.05681,158 Z M150.917604,158.355113 C154.440328,158.355113 156.272712,156.323865 157.11078,154.505685 L157.366461,154.505685 L157.366461,158 L163.332365,158 L163.332365,128.909119 L157.295438,128.909119 L157.295438,139.846608 L157.11078,139.846608 C156.301121,138.071042 154.553964,135.897748 150.903399,135.897748 C146.116472,135.897748 142.06818,139.619336 142.06818,147.119329 C142.06818,154.420458 145.946017,158.355113 150.917604,158.355113 Z M152.835215,153.539777 C149.866468,153.539777 148.247152,150.897734 148.247152,147.090919 C148.247152,143.312514 149.838059,140.713085 152.835215,140.713085 C155.775554,140.713085 157.423279,143.198878 157.423279,147.090919 C157.423279,150.982961 155.747152,153.539777 152.835215,153.539777 Z M183.644878,158 L183.644878,138.994336 L183.886355,138.994336 L191.414757,157.857955 L195.477253,157.857955 L203.005655,139.065359 L203.247132,139.065359 L203.247132,158 L209.213036,158 L209.213036,128.909119 L201.627816,128.909119 L193.61646,148.454555 L193.275551,148.454555 L185.264195,128.909119 L177.678975,128.909119 L177.678975,158 L183.644878,158 Z M224.014193,158.426136 C230.633505,158.426136 234.752819,153.89489 234.752819,147.176147 C234.752819,140.414789 230.633505,135.897748 224.014193,135.897748 C217.394881,135.897748 213.275567,140.414789 213.275567,147.176147 C213.275567,153.89489 217.394881,158.426136 224.014193,158.426136 Z M224.042602,153.73864 C220.988628,153.73864 219.426129,150.940348 219.426129,147.133533 C219.426129,143.326719 220.988628,140.514221 224.042602,140.514221 C227.039758,140.514221 228.602257,143.326719 228.602257,147.133533 C228.602257,150.940348 227.039758,153.73864 224.042602,153.73864 Z M251.244304,158.355113 C256.21589,158.355113 260.093727,154.420458 260.093727,147.119329 C260.093727,139.619336 256.045436,135.897748 251.258508,135.897748 C247.607944,135.897748 245.860786,138.071042 245.051128,139.846608 L244.866469,139.846608 L244.866469,128.909119 L238.815338,128.909119 L238.815338,158 L244.781242,158 L244.781242,154.505685 L245.051128,154.505685 C245.889195,156.323865 247.72158,158.355113 251.244304,158.355113 Z M249.326692,153.539777 C246.414763,153.539777 244.738628,150.982961 244.738628,147.090919 C244.738628,143.198878 246.386354,140.713085 249.326692,140.713085 C252.323848,140.713085 253.914756,143.312514 253.914756,147.090919 C253.914756,150.897734 252.295439,153.539777 249.326692,153.539777 Z M267.153404,133.369342 C268.957379,133.369342 270.434651,131.991502 270.434651,130.301163 C270.434651,128.625028 268.957379,127.247188 267.153404,127.247188 C265.363633,127.247188 263.886362,128.625028 263.886362,130.301163 C263.886362,131.991502 265.363633,133.369342 267.153404,133.369342 Z M270.164765,158 L270.164765,136.181839 L264.113634,136.181839 L264.113634,158 L270.164765,158 Z M281.045446,158 L281.045446,128.909119 L274.994316,128.909119 L274.994316,158 L281.045446,158 Z M295.81817,158.426136 C301.215892,158.426136 304.852252,155.798298 305.704524,151.750006 L300.107939,151.380688 C299.497144,153.042618 297.934645,153.909095 295.917602,153.909095 C292.892036,153.909095 290.974425,151.906256 290.974425,148.653418 L290.974425,148.639213 L305.832365,148.639213 L305.832365,146.977283 C305.832365,139.562518 301.343733,135.897748 295.576693,135.897748 C289.156245,135.897748 284.994317,140.457403 284.994317,147.190351 C284.994317,154.107958 289.099426,158.426136 295.81817,158.426136 Z M300.136348,144.889217 L290.974425,144.889217 C291.102265,142.403424 292.991468,140.414789 295.676125,140.414789 C298.303963,140.414789 300.122143,142.289788 300.136348,144.889217 Z" transform="translate(41 26)"/>
</svg>
