<svg xmlns="http://www.w3.org/2000/svg" width="388" height="220" viewBox="0 0 388 220">
  <path fill="#FFF" d="M76.5,13.8561644 C80.6156562,13.8561644 83.9521266,17.192563 83.9521266,21.3082192 L83.9521266,62.0468211 C82.7637435,62.0225362 81.5474723,61.8920629 80.3033133,61.6554103 C77.9691393,61.2106072 76.0273255,60.2675602 74.1848433,59.0724681 L73.9978032,58.950074 C73.8110828,58.8268302 73.6252868,58.7010661 73.4401073,58.5730407 L73.2551218,58.4442711 L73.2551218,58.4442711 L73.0704787,58.3140514 C73.0397296,58.2922304 73.0089919,58.2703515 72.9782642,58.2484157 L72.7940063,58.1161289 C72.7633128,58.0939706 72.7326265,58.0717579 72.7019459,58.049492 L72.5179191,57.9152674 C72.4872556,57.8927934 72.456595,57.8702686 72.4259357,57.8476941 L72.2419861,57.7116613 L72.2419861,57.7116613 L72.0580021,57.5744949 L72.0580021,57.5744949 L71.8739155,57.4362525 L71.8739155,57.4362525 L71.6896576,57.2969916 L71.6896576,57.2969916 L71.4128,57.0863164 L71.4128,57.0863164 L70.8565423,56.6592564 L70.8565423,56.6592564 L69.9279994,55.9423746 L69.9279994,55.9423746 L69.6175578,55.7035214 L69.6175578,55.7035214 L69.3044468,55.463799 C64.4290039,51.7426523 58.4845888,47.7979452 46.4970375,47.7979452 C42.175667,47.7979452 38.3591545,48.3105059 35.0475615,49.3356273 L35.0475615,21.3082192 C35.0475615,17.192563 38.3843438,13.8561644 42.5,13.8561644 L76.5,13.8561644 Z" transform="translate(135 26)"/>
</svg>
