<svg xmlns="http://www.w3.org/2000/svg" width="631" height="383" viewBox="0 0 631 383">
  <defs>
    <linearGradient id="atropos-mountains-a" x1="50%" x2="50%" y1="0%" y2="100%">
      <stop offset="0%" stop-color="#EEE"/>
      <stop offset="63.988%" stop-color="#9052DF"/>
      <stop offset="100%" stop-color="#4B22A6"/>
    </linearGradient>
  </defs>
  <path fill="url(#atropos-mountains-a)" fill-rule="evenodd" d="M107.759123,114.988996 L107.759123,367.631893 C110.081879,365.898284 112.624661,364.135563 115.729179,363.065484 C116.223121,362.895837 116.699607,362.821554 117.163814,362.821554 C119.588058,362.821554 121.688048,364.838242 124.252548,365.740683 C124.576396,365.855119 124.941144,366.010712 125.338368,366.199432 C125.312996,365.970559 125.389112,365.732652 125.56631,365.557986 C125.72179,365.404401 125.925172,365.327106 126.128452,365.327106 C126.331428,365.327106 126.535216,365.404401 126.69029,365.557986 C127.00064,365.864154 127.00064,366.362052 126.69029,366.669223 C126.635892,366.722426 126.576116,366.767598 126.511874,366.801728 C130.207052,368.812394 135.575971,372.620914 138.009755,373.965038 C138.176601,374.05739 138.350653,374.100555 138.529881,374.100555 C139.677101,374.100555 141.061499,372.351888 142.474009,370.603221 C143.88652,368.854554 145.326736,367.105888 146.584274,367.105888 C146.600512,367.105888 146.617156,367.106892 146.633394,367.106892 C151.702111,367.293603 153.209208,368.651781 157.389499,368.651781 C157.9761,368.651781 158.614459,368.625682 159.322846,368.565452 C165.196972,368.064543 175.150915,359.787988 181.011848,359.169631 C181.356907,359.133493 181.692832,359.115424 182.018609,359.115424 C185.330163,359.115424 187.714116,360.897217 189.66573,362.678006 C191.617345,364.458796 193.13459,366.240589 194.709684,366.240589 C196.409608,366.240589 198.17753,364.164674 200.63151,357.772303 C202.428862,357.825506 203.426489,361.872937 203.506665,362.709125 C203.538126,363.042396 203.958287,363.300379 204.345971,363.300379 C204.575334,363.300379 204.794548,363.209031 204.912274,362.988189 C206.543186,359.947597 208.119295,356.900981 209.632481,353.825255 C209.927811,353.939692 210.258662,353.991891 210.594587,353.991891 C211.606423,353.991891 212.679151,353.513065 213.07191,352.771237 C214.414596,353.316315 215.81919,353.63754 217.348614,353.63754 C217.646989,353.63754 217.949423,353.625494 218.257947,353.600398 C219.348943,353.511057 220.849951,352.983044 221.595888,352.976018 C221.62126,352.976018 221.645617,352.976018 221.670989,352.976018 C221.988646,352.976018 222.309348,352.99509 222.622946,353.013159 C222.936544,353.032232 223.242023,353.051305 223.530249,353.051305 C224.099597,353.051305 224.601962,352.978025 224.9592,352.684908 L227.384763,354.659436 C227.549174,354.792945 227.75418,354.85217 227.959186,354.85217 C228.339766,354.85217 228.721361,354.646386 228.836042,354.33018 C229.934142,354.135438 231.032243,353.940695 232.130343,353.746957 C232.318096,353.935676 232.645902,354.049109 232.954425,354.049109 C233.304559,354.049109 233.629321,353.903554 233.698332,353.557233 C234.492984,349.581074 236.496357,346.759316 239.110688,343.483829 L241.002424,345.340909 C241.138418,345.474418 241.326171,345.531636 241.520013,345.531636 C241.893489,345.531636 242.289292,345.318825 242.376572,345.028718 L243.188476,342.324408 C243.543684,341.990134 243.925279,341.822495 244.333261,341.822495 C244.711811,341.822495 245.112689,341.966042 245.536909,342.252133 C247.444883,342.464944 249.582221,343.387461 251.402916,343.897405 C251.479032,343.91949 251.554133,343.929528 251.625174,343.929528 C251.989516,343.929528 252.286876,343.678571 252.414751,343.421591 C253.094721,342.059398 253.493569,340.786545 253.674217,339.442421 C254.645457,340.209345 255.763855,340.628944 256.963444,340.628944 C258.020949,340.628944 259.142391,340.303704 260.284131,339.602029 C265.406231,336.459047 270.850048,333.327106 277.255971,332.153632 C284.03537,330.911898 294.047162,332.252007 297.813382,326.562315 C298.403027,326.675748 298.975419,326.731962 299.530559,326.731962 C300.502814,326.731962 301.424325,326.561311 302.298137,326.229045 C309.449997,328.653287 315.22162,337.268131 322.147161,337.268131 C322.846414,337.268131 323.55683,337.179794 324.283484,336.989067 C325.790581,336.592556 327.151535,336.410863 328.390704,336.410863 C338.398436,336.410863 340.569265,348.273088 349.502239,354.823059 C349.544864,354.419521 349.606772,354.014979 349.699126,353.610436 C349.814822,354.115361 349.881804,354.619283 349.923414,355.124208 C349.932548,355.131234 349.941682,355.137257 349.950816,355.144284 C350.103048,355.249686 350.357783,355.295862 350.675441,355.295862 C352.197761,355.295862 355.183538,354.232809 355.463645,353.479939 C355.466689,353.475923 355.472779,353.473916 355.480898,353.473916 C355.995442,353.473916 365.06441,362.300567 371.134408,364.686664 C371.643878,364.886426 372.054904,364.979782 372.406053,364.979782 C373.205778,364.979782 373.694951,364.495937 374.33128,363.693879 C377.509885,365.936429 381.767307,369.59839 384.184751,372.308724 C386.050101,374.400699 386.961463,374.923693 387.685073,374.923693 C388.301105,374.923693 388.780128,374.542239 389.597107,374.42981 C391.017939,374.23306 392.932003,374.056386 395.224617,374.056386 C398.366685,374.056386 402.218155,374.388653 406.476592,375.457729 C407.09161,375.611315 407.742148,375.638418 408.39776,375.638418 C408.576379,375.638418 408.754998,375.63641 408.933617,375.634403 C409.111221,375.632395 409.28781,375.630387 409.464399,375.630387 C409.898768,375.630387 410.329077,375.642433 410.743148,375.69664 C413.473175,376.049987 412.243141,377.130105 413.832443,378.487279 C414.810787,379.324471 416.340212,379.323467 417.597648,379.906691 C426.764045,384.158902 429.543802,389.756242 431.955157,389.756242 C432.47579,389.756242 432.978156,389.496251 433.524161,388.907004 C436.194311,386.024013 442.635755,383.167121 446.999739,379.829396 C447.362051,379.55234 447.83803,379.446938 448.384035,379.446938 C449.269011,379.446938 450.339709,379.723994 451.416497,380.001051 C452.49227,380.278107 453.573117,380.556167 454.47839,380.556167 C454.86303,380.556167 455.216208,380.505976 455.522702,380.384512 C457.971608,379.415819 460.412394,375.044152 462.637011,373.780334 C464.774349,372.565703 466.808168,371.213548 468.671488,369.741938 C469.537181,369.057328 470.35213,368.138826 471.273641,367.513441 C471.9597,367.047666 472.459021,366.85995 472.919776,366.85995 C473.703264,366.85995 474.375114,367.401013 475.669086,368.040451 C475.80508,368.108711 475.962387,368.138826 476.120708,368.138826 C476.556092,368.138826 477.005684,367.905938 477.092963,367.553595 C478.817244,360.640237 489.795202,357.708058 496.779607,354.85719 C500.90205,353.175779 505.023478,351.491357 509.140846,349.803924 C511.457818,348.8533 513.774789,347.904683 516.090745,346.955063 C517.724702,346.28551 520.298438,344.770735 522.48246,344.770735 C523.597813,344.770735 524.611678,345.165239 525.347466,346.267441 C525.519996,346.526429 525.811267,346.637853 526.111671,346.637853 C526.54604,346.637853 526.999691,346.405969 527.146849,346.050614 C529.663751,339.951361 546.517865,330.174085 551.29592,324.917043 C551.97386,325.562504 552.650785,326.206961 553.328725,326.850414 C553.5043,327.017049 553.746856,327.089325 553.996516,327.089325 C554.387245,327.089325 554.794212,326.913655 554.987039,326.653664 C555.796914,325.559492 556.605773,324.466324 557.415647,323.372153 C557.724171,323.79376 558.033709,324.215368 558.343248,324.636975 C558.48939,325.042521 558.877075,325.22321 559.283027,325.22321 C559.738708,325.22321 560.216716,324.995341 560.399395,324.602845 C560.703859,323.812833 561.178823,323.106139 561.803989,322.473728 C562.30128,322.788929 562.917312,322.939503 563.537404,322.939503 C564.405126,322.939503 565.281983,322.645382 565.85945,322.0993 C566.99916,322.701596 568.217016,323.012783 569.514033,323.012783 C570.159497,323.012783 570.824243,322.936492 571.510302,322.779895 C575.464275,328.344108 581.93921,329.419207 585.695281,334.64212 C589.462516,339.879086 593.767637,340.861832 597.792651,340.861832 C599.002388,340.861832 600.185739,340.773495 601.322404,340.684155 C602.45907,340.595818 603.548036,340.506477 604.566976,340.506477 C606.034493,340.506477 607.355866,340.690178 608.468175,341.322589 C610.761804,342.628568 611.359568,350.232558 612.833174,350.232558 C612.958005,350.232558 613.088924,350.178351 613.226948,350.061908 C613.453266,351.400009 613.893724,352.658808 614.618348,353.997914 C614.752313,354.243851 615.046628,354.479751 615.398791,354.479751 C615.478967,354.479751 615.562187,354.467705 615.646422,354.440601 C617.447834,353.870428 619.552695,352.878646 621.454581,352.603598 C621.885905,352.290404 622.298961,352.133807 622.691719,352.133807 C623.081433,352.133807 623.451865,352.288396 623.803013,352.598579 L624.706256,355.274782 C624.799625,355.553846 625.18122,355.749592 625.545562,355.749592 C625.750568,355.749592 625.950499,355.687355 626.088523,355.5418 L627.918352,353.623486 C630.641275,356.810637 632.738017,359.566142 633.664603,363.514194 C633.742749,363.844453 634.050257,363.981978 634.384153,363.981978 C634.704855,363.981978 635.049914,363.855496 635.238682,363.651719 C636.341857,363.810323 637.446046,363.968928 638.55125,364.126529 C638.673036,364.429685 639.040423,364.620412 639.409839,364.620412 C639.626008,364.620412 639.843193,364.555163 640.011663,364.408604 L642.370244,362.354774 C642.696021,362.604727 643.131404,362.678006 643.623621,362.678006 C644.26807,362.678006 645.011977,362.552528 645.740661,362.536467 C645.753854,362.536467 645.767048,362.535463 645.781256,362.535463 C646.539372,362.535463 648.025156,362.998227 649.097884,363.050426 C649.283607,363.059461 649.467301,363.063476 649.648964,363.063476 C651.320472,363.063476 652.827569,362.686037 654.253475,362.051618 C654.656382,362.754297 655.683441,363.19297 656.663815,363.19297 C657.037291,363.19297 657.404678,363.129729 657.72741,362.992204 C659.342084,366.016735 661.019681,369.010148 662.751066,371.995529 C662.871837,372.203322 663.079887,372.288647 663.300116,372.288647 C663.694904,372.288647 664.125214,372.012595 664.146526,371.671293 C664.198285,370.832094 665.059918,366.754548 666.855241,366.64212 C669.48581,372.865848 671.308535,374.912651 672.989176,374.912651 C674.602836,374.912651 676.084561,373.02646 678.025011,371.141273 C679.965462,369.255081 682.363624,367.369894 685.808127,367.369894 C686.03749,367.369894 686.271927,367.377925 686.510424,367.39499 C692.388609,367.820613 702.614541,375.766908 708.502875,376.074079 C708.951452,376.097167 709.372627,376.108209 709.769445,376.108209 C714.475444,376.108209 715.815086,374.57135 721.136102,374.200938 C721.167564,374.197926 721.199025,374.196922 721.230486,374.196922 C722.478789,374.196922 723.958484,375.879336 725.412807,377.560747 C726.866115,379.242157 728.292022,380.924571 729.431732,380.924571 C729.624559,380.924571 729.809267,380.876388 729.984842,380.77199 C732.930024,379.016296 740.217878,373.362742 743.45839,372.100931 C744.267249,371.786733 745.02435,371.360107 745.759123,370.922438 L745.759123,114.988996 L107.759123,114.988996 Z" transform="rotate(-180 370.928 251.886)"/>
</svg>
