<svg xmlns="http://www.w3.org/2000/svg" width="631" height="383" viewBox="0 0 631 383">
  <path fill="#FFF" d="M150.448,123.112 L153.528,114.04 L168.368,114.04 L171.224,123 L178.672,121.096 L162.152,74.672 L160.472,74.672 L143,121.04 L150.448,123.112 Z M166.184,107.096 L155.88,107.096 L161.2,91.248 L166.184,107.096 Z M199.112,121.768 L199.112,82.12 L210.256,82.12 L210.256,75.176 L180.632,75.176 L180.632,82.12 L191.776,82.12 L191.776,121.768 L199.112,121.768 Z M241.392,123 L246.824,118.352 L233.944,103.792 L245.872,95.28 L216.752,74.056 L215.072,74.056 L215.016,121.824 L222.296,121.824 L222.296,112.248 L228.064,107.936 L241.392,123 Z M222.296,104.296 L222.296,86.656 L234,95.224 L222.296,104.296 Z M271.856,122.888 L293.192,98.36 L271.856,74 L270.456,74 L249.064,98.36 L270.456,122.888 L271.856,122.888 Z M271.184,113.256 L258.584,98.416 L271.184,83.632 L283.728,98.416 L271.184,113.256 Z M305.512,121.768 L305.512,111.072 L329.48,95.28 L299.968,74.056 L298.288,74.056 L298.232,121.768 L305.512,121.768 Z M305.512,103.064 L305.512,86.32 L317.776,95.112 L305.512,103.064 Z M354.512,122.888 L375.848,98.36 L354.512,74 L353.112,74 L331.72,98.36 L353.112,122.888 L354.512,122.888 Z M353.84,113.256 L341.24,98.416 L353.84,83.632 L366.384,98.416 L353.84,113.256 Z M387.16,123.056 L409.112,107.712 L389.624,89.512 L404.52,79.712 L399.984,74 L378.368,88.84 L397.856,107.04 L382.848,117.232 L387.16,123.056 Z M451.728,122.888 L452.288,75.12 L444.952,75.12 L444.952,109.112 L433.024,98.472 L428.152,104.072 L449.488,122.888 L451.728,122.888 Z M466.68,123.056 L488.632,107.712 L469.144,89.512 L484.04,79.712 L479.504,74 L457.888,88.84 L477.376,107.04 L462.368,117.232 L466.68,123.056 Z"/>
</svg>
