<svg xmlns="http://www.w3.org/2000/svg" width="388" height="220" viewBox="0 0 388 220">
  <g fill="#EE350F" transform="translate(31 88)">
    <polygon points="6.312 14.772 20.776 14.772 20.776 20.681 6.312 20.681 6.312 36.283 0 36.283 0 0 21.828 0 21.828 5.909 6.312 5.909"/>
    <path d="M39.8682041 11.0920852C40.4643016 11.0920852 41.1305182 11.1525555 41.866874 11.2734978 42.6032297 11.3944402 43.3395744 11.5931282 44.0759301 11.8695678L41.866874 17.4674426C41.5162284 17.2946678 41.086694 17.1564501 40.5782579 17.0527852 40.0698218 16.9491204 39.5350953 16.8972887 38.9740623 16.8972887 37.5013509 16.8972887 36.3091737 17.2514717 35.3974952 17.9598483 34.4858167 18.6682248 33.784536 19.4197839 33.2936322 20.2145478L33.2936322 36.2825217 26.9820432 36.2825217 26.9820432 11.7140713 32.9780527 11.7140713 32.9780527 15.2904913C33.5741502 14.2192877 34.4507511 13.2517634 35.6078815 12.3878896 36.765012 11.5240157 38.1851053 11.0920852 39.8682041 11.0920852zM58.0140226 11.0920852C61.4854139 11.0920852 64.2204085 11.9213917 66.2190884 13.5800296 68.2177682 15.2386674 69.2170932 17.4674286 69.2170932 20.26638L69.2170932 36.2825217 63.3788733 36.2825217 63.3788733 33.1725913C62.5723884 34.2437949 61.4591054 35.1335717 60.0389908 35.8419483 58.6188761 36.5503248 57.0322286 36.9045078 55.2790007 36.9045078 54.0868057 36.9045078 52.9384586 36.723097 51.833925 36.36027 50.7293914 35.997443 49.7563645 35.4618492 48.9148151 34.7534726 48.0732657 34.045096 47.407049 33.1898737 46.9161452 32.18778 46.4252414 31.1856863 46.1797932 30.0626671 46.1797932 28.8186887 46.1797932 27.5747103 46.4340074 26.4430525 46.9424435 25.4236813 47.4508796 24.4043101 48.1521603 23.5318106 49.0463065 22.8061565 49.9404528 22.0805025 50.9923737 21.5189929 52.202101 21.1216109 53.4118283 20.7242289 54.7179635 20.5255409 56.1205459 20.5255409 57.2776763 20.5255409 58.4698535 20.6723972 59.697113 20.9661143 60.9243726 21.2598315 61.9938256 21.7004005 62.9055041 22.2878348L62.9055041 20.8883661C62.9055041 20.0936021 62.7301839 19.4197906 62.3795384 18.8669113 62.0288928 18.314032 61.5905924 17.8734629 61.064624 17.5451909 60.5386556 17.2169188 59.951333 16.9836763 59.3026387 16.8454565 58.6539444 16.7072367 58.0315578 16.6381278 57.4354603 16.6381278 56.5939109 16.6381278 55.5244579 16.7763456 54.2270692 17.0527852 52.9296805 17.3292249 51.5446512 17.7957098 50.0719397 18.4522539L48.0206733 13.3208687C49.2829974 12.7334345 50.7819848 12.2151179 52.5176805 11.7659035 54.2533761 11.3166891 56.0854719 11.0920852 58.0140226 11.0920852zM57.4354603 25.0867722C56.8744273 25.0867722 56.3134028 25.1472424 55.7523699 25.2681848 55.1913369 25.3891271 54.6741424 25.5791765 54.2007709 25.8383387 53.7273993 26.0975009 53.341695 26.4516838 53.0436462 26.9008983 52.7455975 27.3501127 52.5965753 27.9029837 52.5965753 28.5595278 52.5965753 29.216072 52.7368315 29.7516658 53.0173479 30.1663252 53.2978644 30.5809847 53.6572708 30.9006132 54.0955777 31.1252204 54.5338847 31.3498276 55.0160152 31.5053226 55.5419836 31.59171 56.0679519 31.6780974 56.5588484 31.7212904 57.0146877 31.7212904 58.4873991 31.7212904 59.6971083 31.4189391 60.6438514 30.8142274 61.5905945 30.2095157 62.3444712 29.56162 62.9055041 28.8705209L62.9055041 26.3307443C62.0990193 25.9160849 61.1873544 25.6050949 60.1704822 25.3977652 59.15361 25.1904355 58.2419451 25.0867722 57.4354603 25.0867722zM104.404202 11.0920852C105.666526 11.0920852 106.841171 11.3080504 107.928173 11.7399874 109.015174 12.1719243 109.944371 12.7852656 110.715791 13.5800296 111.487211 14.3747935 112.092066 15.3509564 112.530373 16.5085474 112.96868 17.6661384 113.18783 18.9878456 113.18783 20.4737087L113.18783 36.2825217 106.876241 36.2825217 106.876241 22.0805061C106.876241 18.6250105 105.456148 16.8972887 102.615918 16.8972887 101.213336 16.8972887 100.117585 17.2428331 99.3286325 17.9339322 98.53968 18.6250313 97.9348254 19.3333972 97.5140507 20.0590513L97.5140507 36.2825217 91.2024616 36.2825217 91.2024616 22.0805061C91.2024616 18.6250105 89.7823683 16.8972887 86.942139 16.8972887 85.5395567 16.8972887 84.4438057 17.2428331 83.6548531 17.9339322 82.8659005 18.6250313 82.2610459 19.3333972 81.8402712 20.0590513L81.8402712 36.2825217 75.5286822 36.2825217 75.5286822 11.7140713 81.4194986 11.7140713 81.4194986 15.2904913C82.0506607 14.2538426 82.9798576 13.294957 84.2071171 12.4138057 85.4343767 11.5326543 87.0122582 11.0920852 88.9408089 11.0920852 90.5888432 11.0920852 92.0965966 11.4635454 93.4641144 12.206477 94.8316322 12.9494085 95.8484891 14.0119574 96.5147158 15.3941557 96.7952322 14.8758313 97.1721706 14.3575148 97.6455421 13.8391904 98.1189137 13.3208661 98.6887042 12.8630198 99.3549308 12.4656378 100.021157 12.0682558 100.775034 11.7399887 101.616584 11.4808265 102.458133 11.2216644 103.38733 11.0920852 104.404202 11.0920852zM130.334314 11.0920852C132.052477 11.0920852 133.674189 11.4030752 135.199497 12.0250643 136.724805 12.6470535 138.057238 13.5195531 139.196837 14.6425891 140.336435 15.7656252 141.239334 17.1132482 141.90556 18.6854987 142.571787 20.2577492 142.904895 21.9941096 142.904895 23.8946322L142.904895 24.8794435C142.904895 25.2941029 142.887363 25.7433106 142.852299 26.22708L124.233111 26.22708C124.373369 26.8145142 124.627583 27.4019397 124.995761 27.9893739 125.363939 28.5768082 125.854836 29.1037633 126.468465 29.5702552 127.082095 30.0367471 127.792142 30.4254845 128.598627 30.7364791 129.405112 31.0474737 130.316776 31.2029687 131.333649 31.2029687 132.385585 31.2029687 133.525166 31.0129193 134.752426 30.6328148 135.979686 30.2527103 137.084203 29.6134532 138.06601 28.7150243L141.221805 33.37992C140.204933 34.2092389 138.837435 35.003991 137.119272 35.7642 135.401109 36.524409 133.437523 36.9045078 131.228455 36.9045078 129.334969 36.9045078 127.573002 36.5762407 125.9425 35.9196965 124.311998 35.2631524 122.891904 34.3474598 121.682177 33.1725913 120.47245 31.9977228 119.525721 30.6155453 118.841962 29.0260174 118.158203 27.4364894 117.816329 25.7260448 117.816329 23.8946322 117.816329 22.1323294 118.131905 20.4737165 118.763067 18.9187435 119.394229 17.3637705 120.262064 16.0075088 121.366598 14.8499178 122.471131 13.6923268 123.794798 12.7766342 125.337639 12.1028126 126.88048 11.428991 128.546021 11.0920852 130.334314 11.0920852zM130.334314 16.7417922C129.317441 16.7417922 128.440841 16.8972871 127.704485 17.2082817 126.968129 17.5192763 126.345743 17.9166524 125.837307 18.4004217 125.32887 18.8841911 124.943166 19.4197849 124.680182 20.0072191 124.417198 20.5946534 124.268176 21.1648016 124.233111 21.7176809L136.593306 21.7176809C136.558242 21.1993565 136.409219 20.6464855 136.146235 20.0590513 135.883251 19.4716171 135.497547 18.9273847 134.989111 18.4263378 134.480675 17.925291 133.840756 17.5192763 133.069336 17.2082817 132.297915 16.8972871 131.38625 16.7417922 130.334314 16.7417922z"/>
  </g>
</svg>
