<svg xmlns="http://www.w3.org/2000/svg" width="388" height="220" viewBox="0 0 388 220">
  <g fill="none" fill-rule="evenodd" transform="translate(31 23)">
    <circle cx="238.5" cy="87.5" r="87.5" fill="#FFF"/>
    <path fill="#EE350F" d="M209.459931 170C175.364437 158.069019 150.90804 125.594025 150.90804 87.4028676 150.90804 66.3782901 158.3198 47.0860545 170.671242 32L305.976803 32C305.984538 32.0094465 305.99227 32.0188946 306 32.0283444L209.459931 170 209.459931 170zM222 173.36189L313.447232 42C321.41407 55.2300355 326 70.749468 326 87.3462487 326 135.756079 286.983637 175 238.854513 175 233.088404 175 227.453092 174.436723 222 173.36189L222 173.36189zM182 20C197.150787 7.51654163 216.682221 0 238 0 259.317779 0 278.849213 7.51654163 294 20L182 20 182 20z"/>
  </g>
</svg>
