<svg xmlns="http://www.w3.org/2000/svg" width="388" height="220" viewBox="0 0 388 220">
  <path fill="#FFF" d="M38.6946485,57.6954656 C41.2675209,58.1844884 43.3633123,59.278905 45.3744089,60.6495079 L45.5598195,60.7767999 C45.6215504,60.8194857 45.6832126,60.8624233 45.7448175,60.9056033 L45.9294716,61.0358604 C45.9602224,61.0576879 45.9909618,61.0795736 46.0216911,61.1015162 L46.2059579,61.2338461 L46.2059579,61.2338461 L46.3900522,61.367486 L46.3900522,61.367486 L46.5740426,61.5023783 L46.5740426,61.5023783 L46.7579976,61.6384654 L46.7579976,61.6384654 L47.034014,61.8447106 L47.034014,61.8447106 L47.3103368,62.0533206 L47.3103368,62.0533206 L47.5871973,62.2641011 L47.5871973,62.2641011 L47.864827,62.476858 L47.864827,62.476858 L49.0719952,63.4084972 L49.0719952,63.4084972 L49.3824276,63.6473433 L49.3824276,63.6473433 L49.6955253,63.8870551 L49.6955253,63.8870551 L50.0115854,64.127384 C54.8291308,67.7757958 60.7713532,71.5513699 72.5029625,71.5513699 C76.8242599,71.5513699 80.6407164,71.038978 83.9522704,70.0141 L83.9522704,97.6917808 C83.9522704,101.807437 80.6156562,105.143836 76.5,105.143836 L42.5,105.143836 C38.3843438,105.143836 35.0478013,101.807437 35.0478013,97.6917808 L35.0478013,57.3040764 C36.2356033,57.3284169 37.451223,57.458883 38.6946485,57.6954656 Z" transform="translate(135 26)"/>
</svg>
