<svg xmlns="http://www.w3.org/2000/svg" width="631" height="383" viewBox="0 0 631 383">
  <path fill="#330A6A" fill-rule="evenodd" d="M366.688,335.231 C363.686,335.405 360.663,335.353 357.681,335.179 C357.665,335.05 357.652,334.923 357.629,334.788 C357.547,334.307 357.036,334.029 356.597,333.987 C356.879,333.853 357.153,333.685 357.413,333.485 L357.515,333.341 C360.708,334.037 363.899,334.559 367.115,334.622 C367.008,334.839 366.859,335.039 366.688,335.231 Z M360.138,329.618 C359.729,330.214 359.657,331.027 359.855,331.772 C358.868,331.72 357.881,331.652 356.894,331.555 L356.907,331.54 C357.066,331.314 356.744,330.982 356.518,331.151 C356.145,331.43 355.739,331.586 355.294,331.658 C355.179,331.566 355.063,331.471 354.946,331.377 C355.076,331.385 355.207,331.394 355.336,331.402 C355.646,331.423 355.782,330.942 355.498,330.805 C355.082,330.607 354.673,330.399 354.261,330.199 C354.754,330.135 355.254,330.021 355.765,329.853 C356.2,329.709 356.151,328.964 355.651,329.014 C354.909,329.087 354.148,329.053 353.393,328.958 C353.354,328.527 353.33,328.104 353.303,328.039 C353.162,327.694 352.995,327.386 352.818,327.092 C353.049,327.07 353.278,327.046 353.506,327.019 C353.598,327.008 353.668,326.972 353.728,326.927 C355.931,327.697 358.026,328.719 360.138,329.618 Z M838.55,328.259 C803.204,323.989 767.857,319.721 732.509,315.451 C735.4,315.004 738.29,314.144 741.047,313.061 C741.748,312.785 741.491,311.724 740.73,311.911 C736.172,313.04 731.757,312.538 727.395,311.504 C731.031,310.43 734.318,308.24 737.219,305.053 C737.844,304.367 736.854,303.363 736.197,304.03 C735.913,304.318 735.607,304.57 735.297,304.817 C734.312,304.521 733.339,304.278 732.378,304.108 C732.711,303.775 733.042,303.437 733.366,303.081 C733.93,302.463 733.186,301.376 732.438,301.879 C731.398,302.577 730.3,303.182 729.182,303.75 C729.021,303.741 728.859,303.73 728.698,303.724 C729.29,303.35 729.893,303.045 730.518,302.869 C731.582,302.572 731.13,301.006 730.066,301.229 C729.436,301.36 728.783,301.465 728.123,301.558 C728.294,301.354 728.222,300.98 727.895,301.003 C724.449,301.251 720.929,301.345 717.44,301.142 C717.27,300.95 717.121,300.749 717.014,300.533 C720.559,300.463 724.075,299.849 727.595,299.043 C728.475,298.841 728.289,297.361 727.38,297.454 C726.345,297.56 725.309,297.628 724.273,297.682 C724.471,296.937 724.4,296.124 723.991,295.528 C727.047,294.228 730.065,292.654 733.434,291.988 C734.401,291.797 733.99,290.321 733.027,290.512 C730.378,291.035 727.736,291.527 725.096,292.034 C726.669,290.366 728.023,288.456 729.135,286.29 C729.266,286.035 728.946,285.771 728.735,285.981 C727.395,287.308 725.938,288.518 724.427,289.664 C726.314,287.656 728.022,285.352 729.828,283.135 C730.349,282.495 729.564,281.71 728.925,282.233 C727.29,283.571 725.554,284.795 723.765,285.948 L723.759,285.751 C723.733,284.933 723.29,284.281 722.688,283.884 C723.145,283.335 723.611,282.795 724.183,282.364 C724.876,281.843 724.196,280.662 723.496,281.189 C721.514,282.681 718.094,282.921 715.679,283.547 C715.107,283.695 714.541,283.856 713.979,284.027 C713.989,283.886 713.99,283.747 713.983,283.61 C715.442,283.049 716.888,282.432 718.299,281.896 C718.978,281.637 718.703,280.735 718.005,280.828 C716.53,281.029 715.158,281.066 713.783,281.027 C713.853,280.704 713.855,280.373 713.795,280.05 C715.403,280.083 717.021,279.974 718.62,279.788 C719.55,279.68 719.603,278.267 718.62,278.294 C718.299,278.303 717.982,278.3 717.664,278.299 C717.788,278.175 717.875,278.004 717.915,277.82 C718.208,277.916 718.501,278.012 718.806,278.096 C721.277,278.768 723.353,278.463 725.846,278.592 C726.511,278.626 726.67,277.511 726.005,277.422 C725.709,277.381 725.402,277.316 725.09,277.237 C725.725,277.161 726.294,276.886 726.739,276.468 C728.365,276.231 729.994,275.945 731.66,275.775 C732.786,275.658 732.818,273.905 731.66,273.987 C730.358,274.08 729.065,274.068 727.774,274.032 L727.753,273.905 C728.494,273.709 729.223,273.458 729.878,273.136 C730.756,272.702 731.467,271.973 732.406,271.629 C733.242,271.323 733.192,269.834 732.179,269.958 C730.151,270.204 727.739,269.452 725.639,269.429 C725.138,269.424 724.64,269.443 724.141,269.47 C725.429,268.104 726.399,266.471 726.799,264.662 L726.676,264.501 C725.856,264.581 725.083,264.964 724.347,265.442 C723.849,265.213 723.327,265.029 722.779,264.897 C723.145,264.382 723.493,263.851 723.798,263.292 C724.097,262.747 723.346,262.354 722.99,262.819 C722.475,263.493 721.896,264.079 721.293,264.63 C720.996,264.596 720.694,264.576 720.391,264.558 C721.095,263.843 721.75,263.079 722.292,262.219 C722.566,261.782 722.127,261.253 721.677,261.328 C721.6,260.985 721.169,260.712 720.781,260.892 C718.084,262.146 714.454,261.412 711.579,262.395 C711.143,262.543 710.716,262.721 710.295,262.916 C710.448,262.502 710.605,262.088 710.741,261.673 C710.919,261.125 710.057,260.759 709.807,261.279 C709.321,262.293 708.758,263.232 708.155,264.13 C708.029,264.216 707.911,264.311 707.787,264.401 C707.856,264.124 707.927,263.852 707.98,263.557 C708.086,262.959 707.304,262.567 706.969,263.13 L706.786,263.38 C706.56,263.046 706.322,262.737 706.088,262.421 C708.279,261.774 710.405,260.777 712.545,259.89 C713.445,259.518 713.048,258.036 712.138,258.413 C709.631,259.451 707.034,259.734 704.44,260.139 C704.662,259.596 704.707,259.038 704.634,258.485 C706.298,257.965 707.911,257.152 709.526,256.332 C710.086,256.048 709.69,255.12 709.1,255.32 C707.794,255.765 706.48,256.159 705.152,256.469 C705.249,256.404 705.351,256.346 705.448,256.28 C707.212,255.739 708.865,254.674 710.283,253.418 C713.794,252.391 716.716,249.978 719.247,247.092 C719.749,246.521 718.935,245.688 718.404,246.25 C716.754,247.998 714.736,249.18 712.555,250.024 C712.356,249.861 712.067,249.823 711.804,250.068 C711.668,250.196 711.527,250.31 711.387,250.426 C711.227,250.479 711.071,250.541 710.91,250.59 C713.658,247.004 715.1,242.7 713.649,237.908 C713.41,237.119 712.25,237.284 712.228,238.1 C712.211,238.707 712.139,239.292 712.041,239.869 C711.991,239.41 711.932,238.95 711.859,238.494 C711.768,237.93 710.792,237.922 710.71,238.494 C710.697,238.589 710.672,238.681 710.658,238.775 C710.651,238.677 710.656,238.581 710.647,238.483 C710.567,237.568 709.201,237.538 709.201,238.483 C709.199,239.802 709.043,241.109 708.778,242.394 C708.574,242.477 708.376,242.595 708.185,242.743 C708.24,241.949 708.27,241.152 708.249,240.359 C708.232,239.712 707.178,239.516 707.079,240.199 C706.735,242.57 705.916,244.683 704.913,246.726 C705.093,245.652 705.194,244.553 705.193,243.437 C705.192,242.249 703.55,242.335 703.406,243.437 C703.182,245.146 702.672,246.756 701.996,248.299 C701.211,248.37 700.727,248.014 700.563,247.204 C700.887,246.785 701.192,246.353 701.454,245.895 C702.009,244.925 701.794,243.795 701.193,242.969 C701.412,242.612 701.606,242.249 701.76,241.879 C703.415,241.656 704.922,241.04 706.014,239.773 C706.142,239.624 706.213,239.382 706.087,239.205 C705.31,238.119 704.25,237.422 703.047,236.984 C703.117,236.693 703.139,236.391 703.112,236.09 C704.067,235.134 704.95,234.07 705.753,232.905 C706.099,232.405 705.359,231.916 704.952,232.287 C704.121,233.043 703.226,233.712 702.294,234.324 L702.202,234.253 C702.83,233.413 703.437,232.562 704.031,231.739 C704.639,230.896 703.376,230.139 702.694,230.708 C702.173,231.143 701.641,231.529 701.102,231.897 C701.198,231.157 700.201,230.62 699.571,231.176 C699.073,231.614 698.555,232.016 698.027,232.399 C698.222,231.163 698.359,229.912 698.735,228.752 C698.961,228.053 697.911,227.631 697.564,228.258 C696.67,229.877 695.569,231.471 694.497,233.058 C694.62,232.365 694.67,231.658 694.63,230.946 C694.626,230.85 694.599,230.771 694.572,230.693 C694.752,230.375 694.947,230.067 695.112,229.739 C695.506,228.956 694.418,228.318 693.936,229.053 C692.759,230.844 691.335,232.353 689.756,233.686 C690.439,232.731 691.078,231.739 691.612,230.68 C692.252,229.41 693.286,227.126 691.455,226.452 C693.005,224.128 693.708,221.449 694.869,218.599 C695.106,218.015 694.122,217.613 693.858,218.172 C693.372,219.198 692.795,220.208 692.178,221.204 C692.297,220.908 692.401,220.607 692.47,220.295 C692.753,219.019 692.89,217.906 693.514,216.715 C693.792,216.185 693.049,215.532 692.645,216.044 C692.397,216.359 692.131,216.652 691.874,216.955 C691.772,216.942 691.667,216.945 691.565,216.993 C690.447,217.514 689.3,217.943 688.152,218.358 C688.376,217.246 688.605,216.127 688.912,215.027 C689.106,214.336 688.068,214.063 687.845,214.734 C687.804,214.859 687.753,214.98 687.708,215.104 C687.796,214.496 687.872,213.889 687.94,213.281 C688.392,211.811 688.783,210.331 689.136,208.891 C689.324,208.125 688.269,207.881 687.987,208.574 C687.308,210.243 686.49,211.826 685.626,213.38 C685.489,211.71 685.154,210.019 684.729,208.443 L684.664,208.301 C684.555,206.065 684.439,203.822 684.37,201.563 C684.357,201.147 683.697,201.023 683.618,201.461 C683.25,203.497 682.919,205.498 682.649,207.485 C682.442,207.582 682.258,207.728 682.096,207.899 C681.844,207.303 681.584,206.707 681.31,206.108 C681.086,205.616 680.308,205.973 680.455,206.468 C680.817,207.701 681.149,208.943 681.467,210.192 C681.105,213.178 680.737,216.163 680.363,219.147 C679.297,216.51 678.327,213.836 677.524,211.112 C677.461,210.896 677.167,210.992 677.196,211.203 C677.551,213.762 678.084,216.23 678.807,218.628 C677.925,217.173 677.071,215.698 676.351,214.136 C676.11,213.61 675.202,213.997 675.419,214.529 C676.225,216.516 676.881,218.493 677.591,220.431 C675.77,218.279 673.461,216.5 671.986,214.081 C671.618,213.477 670.78,213.897 670.897,214.54 C671.119,215.749 671.347,216.926 671.655,218.068 C671.36,218.533 671.212,219.09 671.317,219.631 L671.834,222.282 C671.124,221.571 670.451,220.829 669.862,220.017 C669.324,219.275 668.159,219.913 668.612,220.747 C669.765,222.865 670.977,224.783 672.374,226.53 C670.414,224.994 668.595,223.337 667.206,221.362 C666.833,220.833 665.965,221.317 666.324,221.878 C668.263,224.919 670.285,227.61 672.64,229.994 C672.545,230.13 672.456,230.273 672.392,230.434 C671.57,229.522 670.177,229.004 669.195,228.243 C669.06,228.138 668.919,228.067 668.776,228.02 C668.211,227.224 667.683,226.398 667.221,225.525 C666.914,224.944 666.112,225.455 666.361,226.027 C666.703,226.816 667.078,227.58 667.491,228.314 C667.136,228.625 666.95,229.095 667.162,229.557 L667.04,229.649 C666.112,228.035 665.273,226.37 664.556,224.647 C664.317,224.072 663.381,224.292 663.595,224.912 C664.499,227.53 665.611,230 666.965,232.322 C667.017,232.494 667.068,232.661 667.119,232.834 C666.888,232.846 666.659,232.851 666.427,232.865 C666.068,232.888 665.763,233.022 665.515,233.218 C664.214,232.139 662.951,231.018 661.746,229.83 C661.345,229.436 660.802,230.017 661.141,230.435 C662.044,231.547 662.993,232.594 663.964,233.609 C663.254,233.102 662.542,232.598 661.861,232.064 C661.282,231.608 660.601,232.289 661.056,232.868 C661.861,233.893 662.677,234.852 663.521,235.752 C663.454,235.854 663.412,235.967 663.36,236.076 C662.301,235.952 661.222,235.906 660.121,235.985 C659.595,236.024 659.497,236.724 659.998,236.895 C661.087,237.266 662.16,237.693 663.211,238.164 C662.118,238.251 661.047,238.46 660.022,238.84 C659.682,238.966 659.739,239.445 660.107,239.47 C662.283,239.611 664.413,240.049 666.492,240.693 L666.552,240.849 C666.075,240.67 665.596,240.491 665.106,240.335 C664.451,240.127 663.964,240.396 663.714,240.831 C662.528,240.933 661.363,241.264 660.288,241.784 C659.834,242.004 660.231,242.679 660.683,242.46 C661.612,242.01 662.591,241.893 663.594,241.984 C663.679,242.259 663.847,242.514 664.116,242.696 L664.1,242.723 C664.521,242.942 664.931,243.17 665.339,243.4 C665.029,243.727 664.831,244.161 664.802,244.609 L664.742,244.554 C664.304,244.16 663.726,244.509 663.656,244.945 C662.375,244.602 661.056,244.335 659.711,244.147 C658.901,244.033 658.596,245.074 659.372,245.378 C660.091,245.658 660.794,245.979 661.488,246.316 C661.159,246.373 660.875,246.662 660.769,246.986 C659.235,245.533 657.615,244.14 655.901,242.794 C655.732,242.661 655.509,242.868 655.66,243.034 C658.629,246.307 661.294,249.882 663.822,253.547 C663.611,253.809 663.516,254.169 663.7,254.5 C663.78,254.646 663.854,254.793 663.934,254.94 C663.589,254.668 663.04,254.839 662.809,255.21 C661.187,252.793 659.506,250.391 657.979,247.832 C657.445,246.938 656.069,247.741 656.584,248.648 C657.472,250.216 658.257,251.816 659.001,253.426 C658.436,252.668 657.864,251.914 657.272,251.165 C656.781,250.544 655.821,251.346 656.202,251.989 C657.036,253.399 657.879,254.793 658.723,256.189 C658.367,255.936 658.01,255.682 657.648,255.437 C656.981,254.431 656.321,253.419 655.695,252.384 C655.113,251.422 653.656,252.25 654.129,253.219 C651.526,251.698 648.805,250.358 645.986,249.209 C645.163,248.874 644.828,250.094 645.428,250.531 C647.637,252.142 649.787,253.806 651.915,255.489 C651.63,255.446 651.346,255.402 651.062,255.359 C649.898,255.182 649.366,256.916 650.564,257.164 C650.784,257.209 651.003,257.254 651.221,257.299 L651,257.477 C649.443,257.578 647.96,257.988 646.635,258.861 C646.153,259.18 646.453,260.048 647.046,259.837 C649.05,259.125 651.115,259.402 653.125,259.974 C654.795,260.814 656.434,261.706 658.069,262.609 C655.249,262.406 652.395,262.48 649.552,262.818 C649.461,262.828 649.46,262.95 649.552,262.959 C650.35,263.035 651.139,263.131 651.927,263.23 C651.734,263.637 651.935,264.284 652.539,264.352 C656.379,264.779 660.154,265.778 663.918,266.855 C664.508,267.428 665.106,267.987 665.716,268.523 C661.189,266.614 656.309,265.355 651.854,264.303 C650.834,264.063 650.443,265.53 651.424,265.862 C655.209,267.14 658.645,268.922 662.005,270.821 C661.723,270.904 661.465,271.069 661.245,271.277 C659.727,270.5 658.194,269.74 656.669,268.889 C656.289,268.677 655.895,269.181 656.205,269.49 C657.714,271.007 659.069,272.705 660.406,274.423 C660.337,274.742 660.245,275.047 660.148,275.349 C658.152,274.05 655.96,272.996 653.631,272.228 C653.398,272.151 653.264,272.498 653.468,272.616 C655.231,273.643 656.852,274.848 658.341,276.194 C655.032,275.141 651.675,273.998 648.3,273.904 C647.955,273.895 647.816,274.323 648.03,274.559 C648.939,275.558 650.012,276.455 651.19,277.277 C651.129,277.402 651.091,277.538 651.069,277.675 C649.692,277.346 648.316,277.017 646.935,276.703 C646.5,276.605 646.139,277.054 646.358,277.453 C647.024,278.67 648.03,279.493 649.179,280.128 C648.645,280.309 648.283,280.996 648.803,281.515 C649.825,282.533 650.602,283.636 651.276,284.792 C650.007,283.712 648.716,282.636 647.47,281.479 C646.91,280.959 646.078,281.783 646.628,282.321 C648.285,283.943 649.649,285.789 650.967,287.674 C650.855,287.645 650.74,287.622 650.627,287.593 C648.42,285.816 646.259,283.991 644.383,281.837 C643.625,280.966 642.082,282.154 642.779,283.074 C643.697,284.285 644.616,285.471 645.567,286.608 C644.843,286.507 644.107,286.438 643.371,286.366 C641.891,285.61 640.423,284.824 638.964,284.02 C637.991,283.484 637.218,284.87 638.105,285.489 C639.071,286.164 640.036,286.827 641.003,287.477 C640.976,287.61 640.973,287.747 640.974,287.884 C639.852,287.639 638.727,287.495 637.622,287.549 L637.585,287.612 C638.952,290.097 641.267,291.954 643.956,293.359 C642.528,293.141 641.1,292.917 639.673,292.667 C639.029,292.554 638.777,293.433 639.402,293.652 C642.224,294.641 645.018,295.552 647.821,296.353 C648.059,296.541 648.302,296.716 648.543,296.899 C647.812,296.955 647.082,297.025 646.347,297.099 C644.987,296.516 643.645,295.897 642.333,295.216 C641.41,294.736 640.593,296.132 641.517,296.611 C642.055,296.891 642.571,297.176 643.097,297.459 C642.862,297.623 642.874,298.003 643.197,298.126 C644.48,298.612 645.683,299.107 646.897,299.541 C647.087,299.648 647.283,299.756 647.473,299.861 L646.307,300.303 L646.081,300.414 C644.319,299.656 642.573,298.856 640.859,297.961 C640.179,297.608 639.578,298.636 640.257,298.99 C641.898,299.846 643.541,300.705 645.187,301.552 C645.125,301.866 645.157,302.194 645.276,302.491 C644.632,302.808 643.979,303.175 643.306,303.584 C640.887,302.669 638.553,301.625 636.635,300.162 C635.737,299.477 634.855,300.889 635.501,301.633 C636.762,303.085 637.915,304.465 639.084,305.769 C637.007,305.827 634.934,305.942 632.867,306.146 C631.597,306.272 631.062,308.362 632.539,308.569 C635.026,308.918 637.52,309.1 640.019,309.186 C640.005,309.448 640.078,309.718 640.213,309.959 C639.649,310.106 639.086,310.254 638.52,310.397 C638.325,310.322 638.127,310.256 637.932,310.179 C636.962,309.795 636.403,311.318 637.244,311.813 C637.364,311.883 637.484,311.943 637.604,312.014 C637.762,312.219 637.997,312.36 638.285,312.393 C639.825,313.264 641.362,314.076 642.914,314.791 C642.681,314.7 642.45,314.62 642.217,314.523 C640.954,313.993 640.408,316.053 641.652,316.574 C642.227,316.816 642.795,317.07 643.359,317.334 C640.432,316.848 637.553,316.198 634.785,315.273 C633.779,314.936 633.117,316.519 634.063,316.984 C637.917,318.873 641.641,320.478 645.445,321.582 C645.351,321.927 645.376,322.31 645.536,322.644 C642.629,322.033 639.79,321.242 637.093,320.153 C636.49,319.909 636.053,320.246 635.891,320.721 L635.792,320.602 L635.577,320.686 C635.51,320.539 635.361,320.435 635.144,320.488 C632.16,321.227 629.27,320.899 626.416,320.221 C628.795,319.518 630.947,318.085 632.846,315.999 C633.254,315.55 632.607,314.893 632.176,315.329 C631.99,315.518 631.791,315.683 631.587,315.844 C630.943,315.651 630.306,315.492 629.677,315.38 C629.895,315.162 630.111,314.941 630.323,314.708 C630.693,314.303 630.206,313.592 629.715,313.921 C629.035,314.378 628.317,314.774 627.585,315.146 C627.479,315.141 627.374,315.132 627.267,315.128 C627.655,314.884 628.05,314.684 628.46,314.569 C629.155,314.375 628.86,313.35 628.164,313.495 C627.751,313.582 627.324,313.65 626.891,313.711 C627.003,313.577 626.957,313.332 626.743,313.348 C624.486,313.511 622.183,313.571 619.899,313.439 C619.788,313.313 619.69,313.182 619.62,313.04 C621.94,312.994 624.242,312.592 626.546,312.065 C627.122,311.933 627.001,310.964 626.406,311.025 C625.728,311.094 625.049,311.139 624.372,311.174 C624.502,310.687 624.455,310.154 624.187,309.765 C626.188,308.913 628.163,307.883 630.368,307.447 C631.002,307.322 630.732,306.356 630.101,306.481 C628.368,306.822 626.638,307.145 624.911,307.477 C625.939,306.386 626.827,305.135 627.554,303.717 C627.64,303.55 627.43,303.377 627.293,303.515 C626.416,304.384 625.461,305.176 624.473,305.926 C625.708,304.611 626.825,303.103 628.007,301.652 C628.349,301.234 627.835,300.719 627.417,301.061 C626.346,301.938 625.21,302.738 624.04,303.493 L624.035,303.364 C624.018,302.828 623.728,302.402 623.335,302.143 C623.632,301.783 623.938,301.43 624.312,301.148 C624.765,300.807 624.321,300.033 623.863,300.378 C622.566,301.355 620.328,301.512 618.747,301.921 C618.372,302.019 618.002,302.123 617.633,302.235 C617.64,302.143 617.64,302.053 617.636,301.963 C618.591,301.596 619.538,301.192 620.461,300.841 C620.906,300.672 620.725,300.08 620.269,300.143 C619.303,300.274 618.405,300.298 617.504,300.272 C617.55,300.061 617.552,299.844 617.512,299.633 C618.565,299.654 619.625,299.583 620.671,299.461 C621.28,299.391 621.315,298.465 620.671,298.484 C620.461,298.489 620.253,298.487 620.045,298.486 C620.127,298.405 620.183,298.294 620.21,298.173 C620.402,298.235 620.593,298.299 620.794,298.354 C622.41,298.793 623.769,298.594 625.402,298.678 C625.836,298.7 625.94,297.971 625.505,297.912 C625.311,297.886 625.11,297.843 624.907,297.791 C625.322,297.741 625.694,297.562 625.985,297.288 C627.049,297.132 628.116,296.946 629.207,296.834 C629.944,296.758 629.964,295.61 629.207,295.664 C628.355,295.725 627.508,295.718 626.664,295.693 L626.649,295.61 C627.134,295.482 627.612,295.318 628.04,295.107 C628.615,294.823 629.081,294.346 629.695,294.121 C630.242,293.92 630.21,292.945 629.546,293.027 C628.219,293.189 626.64,292.695 625.266,292.681 C624.938,292.677 624.612,292.69 624.286,292.707 C625.128,291.813 625.763,290.744 626.025,289.561 L625.945,289.455 C625.408,289.507 624.901,289.758 624.42,290.07 C624.094,289.921 623.753,289.801 623.393,289.714 C623.633,289.377 623.861,289.029 624.061,288.663 C624.256,288.307 623.765,288.049 623.532,288.354 C623.195,288.795 622.816,289.179 622.42,289.539 C622.226,289.518 622.029,289.504 621.831,289.492 C622.292,289.024 622.719,288.524 623.074,287.961 C623.254,287.676 622.966,287.329 622.672,287.378 C622.622,287.152 622.339,286.975 622.086,287.093 C620.321,287.913 617.945,287.433 616.062,288.076 C615.777,288.174 615.498,288.29 615.222,288.417 C615.322,288.147 615.425,287.875 615.513,287.604 C615.63,287.245 615.066,287.006 614.903,287.346 C614.585,288.01 614.216,288.624 613.821,289.212 L613.581,289.389 C613.626,289.208 613.672,289.029 613.707,288.837 C613.776,288.445 613.264,288.189 613.045,288.558 L612.925,288.721 C612.777,288.502 612.622,288.301 612.468,288.093 C613.902,287.669 615.294,287.017 616.695,286.437 C617.284,286.193 617.024,285.224 616.428,285.47 C614.788,286.15 613.087,286.334 611.389,286.6 C611.535,286.243 611.564,285.879 611.517,285.517 C612.606,285.177 613.662,284.644 614.719,284.108 C615.086,283.922 614.826,283.315 614.44,283.445 C613.585,283.736 612.724,283.994 611.855,284.197 L612.049,284.074 C613.204,283.72 614.286,283.023 615.214,282.2 C617.512,281.527 619.425,279.948 621.082,278.06 C621.41,277.686 620.878,277.141 620.53,277.509 C619.451,278.652 618.129,279.426 616.701,279.979 C616.571,279.872 616.381,279.848 616.21,280.008 C616.121,280.092 616.028,280.165 615.937,280.241 C615.832,280.277 615.73,280.318 615.625,280.35 C617.423,278.002 618.367,275.185 617.418,272.048 C617.261,271.531 616.502,271.64 616.488,272.174 C616.477,272.57 616.429,272.954 616.365,273.331 C616.333,273.031 616.294,272.731 616.246,272.432 C616.186,272.063 615.547,272.057 615.494,272.432 L615.46,272.615 L615.453,272.424 C615.4,271.826 614.506,271.806 614.505,272.424 C614.504,273.287 614.402,274.143 614.229,274.985 C614.095,275.038 613.965,275.116 613.84,275.213 C613.877,274.693 613.896,274.171 613.882,273.652 C613.872,273.229 613.182,273.101 613.117,273.548 C612.892,275.1 612.355,276.483 611.7,277.82 C611.817,277.116 611.883,276.398 611.882,275.667 C611.882,274.89 610.807,274.945 610.712,275.667 C610.566,276.785 610.232,277.839 609.79,278.85 C609.276,278.897 608.96,278.663 608.852,278.133 C609.064,277.859 609.263,277.575 609.435,277.276 C609.798,276.641 609.658,275.902 609.264,275.36 C609.408,275.127 609.535,274.89 609.636,274.648 C610.718,274.501 611.706,274.098 612.42,273.269 C612.503,273.172 612.55,273.013 612.468,272.897 C611.959,272.187 611.265,271.73 610.478,271.443 C610.523,271.252 610.539,271.055 610.52,270.859 C611.145,270.233 611.723,269.536 612.25,268.774 C612.476,268.446 611.991,268.126 611.724,268.368 C611.18,268.864 610.595,269.301 609.984,269.702 L609.924,269.655 C610.336,269.107 610.733,268.549 611.122,268.01 C611.52,267.458 610.693,266.962 610.247,267.335 C609.906,267.62 609.557,267.873 609.205,268.113 C609.267,267.629 608.615,267.277 608.202,267.642 C607.877,267.929 607.538,268.192 607.192,268.442 C607.319,267.633 607.409,266.815 607.655,266.055 C607.803,265.598 607.116,265.321 606.888,265.732 C606.303,266.791 605.583,267.835 604.881,268.873 C604.961,268.42 604.994,267.957 604.969,267.491 L604.93,267.325 C605.047,267.117 605.175,266.915 605.284,266.701 C605.543,266.189 604.83,265.771 604.514,266.251 C603.744,267.424 602.811,268.412 601.778,269.284 C602.225,268.659 602.643,268.011 602.993,267.317 C603.412,266.486 604.088,264.99 602.889,264.549 C603.905,263.027 604.365,261.275 605.125,259.408 C605.28,259.027 604.636,258.764 604.462,259.13 C604.145,259.801 603.766,260.462 603.364,261.114 C603.441,260.92 603.509,260.723 603.554,260.519 C603.74,259.684 603.83,258.956 604.238,258.176 C604.42,257.828 603.934,257.402 603.67,257.736 C603.506,257.943 603.333,258.134 603.165,258.333 L602.961,258.358 C602.23,258.698 601.48,258.98 600.728,259.251 C600.875,258.524 601.025,257.791 601.225,257.071 C601.352,256.618 600.673,256.44 600.528,256.879 L600.437,257.121 C600.495,256.724 600.545,256.326 600.589,255.929 C600.885,254.966 601.141,253.997 601.372,253.054 C601.495,252.553 600.804,252.394 600.62,252.847 C600.175,253.94 599.64,254.976 599.075,255.993 C598.985,254.901 598.765,253.793 598.487,252.762 L598.445,252.669 C598.374,251.205 598.297,249.737 598.253,248.258 C598.244,247.985 597.812,247.904 597.76,248.192 C597.519,249.524 597.302,250.833 597.127,252.134 C596.991,252.197 596.87,252.293 596.764,252.405 C596.599,252.016 596.428,251.625 596.25,251.233 C596.103,250.911 595.594,251.145 595.689,251.469 C595.926,252.276 596.144,253.089 596.352,253.906 C596.115,255.86 595.875,257.815 595.629,259.768 C594.932,258.042 594.297,256.291 593.771,254.509 C593.73,254.366 593.538,254.43 593.556,254.568 C593.79,256.243 594.138,257.858 594.611,259.428 C594.034,258.476 593.475,257.51 593.003,256.487 C592.845,256.144 592.252,256.398 592.393,256.745 C592.921,258.046 593.351,259.34 593.816,260.609 C592.624,259.2 591.112,258.035 590.146,256.452 C589.905,256.057 589.357,256.331 589.434,256.752 C589.579,257.544 589.728,258.314 589.929,259.062 C589.737,259.366 589.64,259.731 589.709,260.084 L590.046,261.82 C589.583,261.355 589.141,260.869 588.755,260.337 C588.404,259.852 587.641,260.27 587.938,260.815 C588.693,262.201 589.486,263.457 590.4,264.601 C589.117,263.595 587.927,262.511 587.017,261.218 C586.773,260.871 586.206,261.188 586.44,261.555 C587.709,263.546 589.033,265.307 590.575,266.868 C590.512,266.957 590.454,267.05 590.413,267.155 C589.874,266.559 588.962,266.22 588.32,265.722 C588.231,265.653 588.138,265.607 588.045,265.576 C587.675,265.054 587.33,264.514 587.027,263.943 C586.826,263.563 586.301,263.897 586.464,264.272 C586.688,264.787 586.933,265.287 587.204,265.768 C586.972,265.972 586.85,266.279 586.989,266.582 L586.909,266.642 C586.301,265.585 585.752,264.496 585.283,263.368 C585.126,262.991 584.514,263.136 584.654,263.541 C585.246,265.255 585.973,266.872 586.86,268.392 C586.893,268.504 586.927,268.614 586.96,268.727 C586.809,268.735 586.659,268.738 586.507,268.747 C586.273,268.762 586.073,268.85 585.911,268.978 C585.059,268.272 584.232,267.538 583.443,266.761 C583.181,266.502 582.826,266.882 583.048,267.156 C583.638,267.885 584.259,268.569 584.896,269.234 C584.431,268.902 583.964,268.572 583.519,268.223 C583.139,267.924 582.694,268.37 582.992,268.749 C583.519,269.42 584.053,270.048 584.605,270.637 L584.501,270.85 C583.807,270.768 583.101,270.737 582.379,270.79 C582.036,270.815 581.971,271.273 582.299,271.385 C583.012,271.628 583.714,271.906 584.403,272.216 C583.687,272.273 582.987,272.409 582.315,272.658 C582.092,272.741 582.13,273.055 582.371,273.07 C583.794,273.163 585.189,273.449 586.55,273.871 L586.589,273.973 C586.277,273.856 585.963,273.738 585.643,273.637 C585.214,273.5 584.896,273.677 584.732,273.961 C583.956,274.028 583.193,274.244 582.489,274.585 C582.192,274.73 582.452,275.171 582.748,275.027 C583.356,274.734 583.998,274.656 584.654,274.716 C584.709,274.896 584.819,275.063 584.995,275.183 L584.984,275.2 C585.26,275.343 585.528,275.492 585.795,275.643 C585.592,275.857 585.462,276.142 585.444,276.434 L585.405,276.398 C585.119,276.14 584.74,276.368 584.694,276.654 C583.855,276.43 582.993,276.255 582.112,276.132 C581.582,276.058 581.382,276.738 581.889,276.938 C582.361,277.121 582.82,277.33 583.274,277.551 C583.059,277.589 582.873,277.778 582.804,277.99 C581.799,277.039 580.739,276.127 579.618,275.246 C579.507,275.159 579.361,275.295 579.46,275.403 C581.404,277.545 583.147,279.886 584.802,282.285 C584.665,282.456 584.602,282.692 584.722,282.908 C584.775,283.004 584.824,283.101 584.876,283.196 C584.65,283.019 584.291,283.131 584.139,283.373 C583.078,281.791 581.978,280.219 580.978,278.544 C580.628,277.959 579.727,278.485 580.064,279.078 C580.646,280.105 581.16,281.152 581.647,282.206 C581.277,281.71 580.902,281.216 580.515,280.726 C580.194,280.319 579.566,280.844 579.815,281.266 C580.361,282.188 580.913,283.101 581.465,284.014 C581.232,283.848 580.999,283.682 580.761,283.522 C580.325,282.863 579.893,282.201 579.483,281.523 C579.102,280.894 578.148,281.436 578.458,282.07 C576.753,281.074 574.973,280.197 573.127,279.445 C572.588,279.226 572.37,280.025 572.763,280.311 C574.209,281.364 575.615,282.454 577.008,283.556 C576.823,283.528 576.636,283.499 576.451,283.471 C575.688,283.355 575.34,284.489 576.125,284.652 C576.268,284.682 576.412,284.711 576.554,284.741 L576.41,284.857 C575.39,284.924 574.419,285.193 573.553,285.763 C573.237,285.972 573.433,286.54 573.822,286.402 C575.133,285.936 576.485,286.117 577.8,286.491 C578.893,287.041 579.966,287.626 581.037,288.216 C579.191,288.084 577.323,288.132 575.461,288.353 L575.461,288.446 C575.984,288.495 576.501,288.558 577.016,288.623 C576.89,288.889 577.022,289.313 577.417,289.358 C579.93,289.637 582.401,290.291 584.865,290.995 C585.251,291.37 585.643,291.736 586.042,292.087 C583.079,290.838 579.884,290.013 576.968,289.325 C576.301,289.168 576.044,290.129 576.687,290.346 C579.165,291.182 581.414,292.349 583.614,293.592 C583.428,293.647 583.259,293.755 583.116,293.89 C582.123,293.382 581.119,292.884 580.12,292.327 C579.871,292.189 579.614,292.518 579.816,292.721 C580.805,293.713 581.692,294.825 582.567,295.949 C582.522,296.158 582.461,296.358 582.398,296.556 C581.091,295.705 579.656,295.016 578.132,294.513 C577.979,294.462 577.892,294.69 578.025,294.767 C579.179,295.439 580.241,296.228 581.214,297.109 C579.049,296.419 576.851,295.672 574.643,295.61 C574.417,295.604 574.326,295.884 574.465,296.038 C575.06,296.692 575.763,297.279 576.534,297.817 L576.455,298.078 C575.553,297.862 574.653,297.647 573.749,297.442 C573.463,297.377 573.228,297.671 573.372,297.933 C573.807,298.73 574.465,299.269 575.217,299.684 C574.869,299.802 574.631,300.252 574.972,300.592 C575.64,301.258 576.15,301.981 576.59,302.736 C575.76,302.029 574.915,301.325 574.099,300.568 C573.732,300.228 573.187,300.767 573.547,301.119 C574.632,302.181 575.525,303.389 576.388,304.623 L576.166,304.57 C574.721,303.406 573.306,302.212 572.079,300.802 C571.583,300.232 570.572,301.01 571.029,301.611 C571.629,302.404 572.231,303.181 572.853,303.925 C572.379,303.86 571.898,303.814 571.416,303.768 C570.448,303.272 569.487,302.758 568.532,302.232 C567.894,301.88 567.388,302.787 567.969,303.193 C568.601,303.634 569.233,304.068 569.867,304.493 L569.847,304.761 C569.113,304.6 568.376,304.506 567.653,304.541 L567.628,304.583 C568.523,306.209 570.04,307.425 571.799,308.344 C570.865,308.201 569.93,308.055 568.996,307.891 C568.574,307.818 568.409,308.392 568.818,308.535 C570.666,309.184 572.494,309.779 574.329,310.304 C574.485,310.427 574.644,310.541 574.801,310.661 C574.323,310.698 573.845,310.743 573.364,310.792 C572.474,310.41 571.595,310.005 570.737,309.56 C570.132,309.246 569.597,310.159 570.203,310.474 C570.555,310.656 570.892,310.843 571.237,311.028 C571.083,311.136 571.09,311.384 571.302,311.465 C572.142,311.783 572.929,312.107 573.724,312.391 C573.849,312.46 573.977,312.531 574.101,312.601 L573.338,312.89 L573.19,312.962 C572.037,312.467 570.893,311.942 569.772,311.357 C569.327,311.125 568.933,311.798 569.378,312.03 C570.452,312.59 571.527,313.152 572.605,313.707 C572.564,313.913 572.584,314.127 572.663,314.322 C572.242,314.529 571.814,314.77 571.374,315.037 C569.79,314.439 568.262,313.755 567.007,312.798 C566.418,312.349 565.841,313.273 566.264,313.76 C567.09,314.71 567.844,315.613 568.61,316.467 C567.251,316.506 565.894,316.58 564.541,316.714 C563.709,316.796 563.359,318.165 564.326,318.301 C565.954,318.528 567.586,318.648 569.222,318.703 C569.212,318.875 569.26,319.052 569.349,319.21 C568.98,319.306 568.611,319.402 568.241,319.496 C568.113,319.447 567.983,319.404 567.856,319.354 C567.221,319.103 566.855,320.1 567.405,320.423 L567.641,320.555 C567.745,320.689 567.898,320.781 568.087,320.803 C569.094,321.373 570.101,321.905 571.117,322.373 C570.964,322.314 570.813,322.261 570.661,322.197 C569.834,321.851 569.476,323.198 570.291,323.54 C570.667,323.697 571.04,323.864 571.409,324.038 C569.493,323.719 567.608,323.294 565.795,322.688 C565.137,322.468 564.704,323.504 565.324,323.808 C567.845,325.045 570.284,326.095 572.773,326.818 C572.712,327.043 572.728,327.294 572.834,327.513 C570.93,327.113 569.072,326.595 567.307,325.883 C566.475,325.546 566.116,326.894 566.937,327.226 C568.264,327.762 569.549,328.275 570.818,328.749 C569.798,329.029 568.781,329.398 567.757,329.878 C566.771,330.342 566.817,331.949 567.757,332.427 C567.973,332.537 568.189,332.645 568.405,332.754 C565.058,333.173 561.711,333.591 558.366,334.01 C558.412,333.833 558.461,333.66 558.504,333.478 C558.798,332.247 557.541,331.296 556.88,332.22 L556.665,332.523 C556.729,332.286 556.803,332.059 556.866,331.819 C557.125,330.831 556.396,330.174 555.754,330.297 C555.88,329.865 555.999,329.419 556.112,328.943 C556.4,327.735 555.21,326.929 554.567,327.746 C554.043,328.411 553.52,329.077 552.996,329.742 C553.318,328.902 553.64,328.063 553.963,327.223 C554.138,326.766 554.061,326.22 553.838,325.852 C553.981,325.756 554.127,325.669 554.27,325.571 C554.884,325.153 554.342,323.922 553.729,324.34 C553.273,324.651 552.811,324.941 552.35,325.236 C552.267,325.088 552.164,324.961 552.042,324.874 C552.536,324.088 553.029,323.301 553.522,322.515 C553.701,322.232 553.647,321.889 553.5,321.678 C554.129,320.806 554.719,319.878 555.261,318.902 C555.517,318.44 554.939,317.843 554.66,318.284 C553.853,319.557 552.963,320.668 552.013,321.676 C552.063,321.53 552.129,321.401 552.175,321.252 C552.562,320.79 552.957,320.343 553.332,319.864 C553.617,319.501 553.18,318.92 552.898,319.288 C552.796,319.422 552.687,319.543 552.584,319.676 C552.787,318.735 552.929,317.752 552.994,316.724 C553.545,316.016 553.673,314.983 552.799,314.623 C552.836,314.26 552.673,313.942 552.281,313.8 C551.399,313.482 550.558,313.055 549.751,312.538 C549.983,312.36 550.155,312.165 550.214,311.982 C550.45,312.017 550.69,312.036 550.94,312.017 C551.268,311.99 551.376,311.322 551.021,311.216 L550.914,311.181 C551.051,310.979 551.078,310.783 550.928,310.633 C550.724,310.427 550.551,310.189 550.36,309.969 C550.451,309.979 550.535,309.995 550.631,309.998 C551.09,310.015 551.115,309.193 550.734,308.998 C550.094,308.67 549.453,308.331 548.857,307.893 C548.782,307.766 548.692,307.652 548.62,307.523 C548.94,307.709 549.271,307.842 549.614,307.866 C549.798,307.88 549.855,307.659 549.811,307.477 C550.045,307.597 550.286,307.701 550.535,307.783 C550.977,307.931 551.117,307.119 550.717,306.9 C549.646,306.311 548.599,305.687 547.639,304.848 C547.527,304.509 547.402,304.177 547.242,303.874 C547.503,303.539 547.594,303.023 547.236,302.606 C546.864,302.172 546.451,301.835 546.033,301.515 C546.309,301.396 546.501,300.958 546.218,300.634 C545.856,300.219 545.504,299.812 545.149,299.409 C545.188,299.274 545.188,299.119 545.113,298.968 C544.57,297.88 543.977,296.847 543.406,295.789 C543.65,296.116 543.912,296.418 544.208,296.661 C544.513,296.913 544.958,296.388 544.726,295.972 C544.377,295.344 544.015,294.756 543.661,294.165 C543.974,294.024 544.178,293.386 543.899,292.991 C543.384,292.267 542.883,291.562 542.412,290.83 C542.712,290.637 542.903,290.195 542.665,289.726 C542.15,288.712 541.404,287.847 540.803,286.916 C540.647,286.675 539.965,285.021 539.577,285.51 L539.562,285.538 C539.387,285.351 539.108,286.306 538.726,287.882 C538.613,287.937 538.514,288.056 538.468,288.269 C537.892,290.918 536.374,292.823 535.198,295.013 C535.047,295.294 535.075,295.579 535.192,295.795 C534.933,296.12 534.679,296.448 534.398,296.747 C534.295,296.855 534.322,297.006 534.395,297.107 C534.021,297.629 533.634,298.135 533.222,298.607 C533.009,298.85 533.082,299.193 533.254,299.387 C533.066,299.552 532.885,299.731 532.689,299.882 C532.292,300.19 532.552,301.085 533.007,300.888 C533.445,300.699 533.873,300.475 534.292,300.226 C533.537,301.086 532.731,301.86 531.854,302.451 C531.467,302.712 531.737,303.527 532.146,303.373 L532.163,303.366 C532.246,303.459 532.368,303.493 532.503,303.402 C532.737,303.244 532.967,303.071 533.199,302.904 C533.62,302.693 534.033,302.455 534.432,302.178 C534.22,302.558 534.003,302.901 533.781,303.188 C532.709,303.898 531.652,304.645 530.51,305.154 C530.3,305.247 530.276,305.553 530.373,305.735 L530.187,305.881 C529.764,306.238 529.472,306.794 529.037,307.134 C528.793,307.323 528.91,307.762 529.16,307.809 C529.225,307.939 529.33,308.042 529.482,308.067 C529.703,308.102 529.924,308.133 530.148,308.16 C529.976,308.539 529.815,308.937 529.678,309.382 C529.653,309.465 529.629,310.009 529.591,310.566 C528.859,310.688 528.123,310.732 527.404,310.638 C526.919,310.573 526.872,311.533 527.293,311.718 C527.788,311.935 528.272,312.082 528.751,312.165 C528.351,312.422 527.955,312.69 527.552,312.945 C527.277,313.121 527.408,313.741 527.709,313.715 C527.834,313.703 527.96,313.693 528.086,313.682 C527.974,313.804 527.861,313.926 527.75,314.045 C527.318,313.952 526.925,313.75 526.564,313.391 C526.344,313.173 526.032,313.602 526.187,313.893 C526.412,314.316 526.695,314.649 527.005,314.94 C526.906,315.103 526.837,315.282 526.797,315.476 C526.491,315.515 526.184,315.556 525.871,315.544 C525.494,315.529 525.449,316.145 525.697,316.399 C525.948,316.656 526.213,316.872 526.487,317.046 C526.061,317.101 525.567,317.457 525.487,318.079 C525.335,319.265 525.335,320.28 525.473,321.23 L525.262,321.024 C524.743,320.431 524.368,319.632 523.917,318.952 C523.657,318.559 523.175,319.067 523.376,319.508 C523.8,320.445 524.206,321.436 524.726,322.203 C524.531,322.068 524.335,321.938 524.147,321.773 C523.991,321.636 523.826,321.665 523.695,321.777 C523.28,321.253 522.884,320.702 522.534,320.095 C522.383,319.834 522.105,320.048 522.203,320.352 C522.583,321.522 523.058,322.611 523.646,323.618 C523.909,324.068 524.284,324.551 524.693,324.954 C524.738,325.095 524.793,325.228 524.873,325.335 C525.645,326.386 526.067,326.725 525.983,327.28 C525.785,327.272 525.588,327.266 525.384,327.241 C524.644,327.154 523.917,326.926 523.195,326.705 C522.709,326.556 522.534,327.461 522.991,327.688 C523.691,328.034 524.489,328.473 525.289,328.693 C525.21,328.839 525.159,328.99 525.125,329.146 C524.506,328.904 523.731,328.491 523.074,328.513 C522.841,328.408 522.563,328.769 522.618,329.111 C522.748,329.917 523.286,330.59 523.855,331.064 C523.322,330.985 522.792,330.876 522.292,330.594 L522.242,330.706 C522.436,330.841 522.621,330.996 522.805,331.151 C522.218,331.11 521.629,331.076 521.041,331.012 C520.564,330.96 520.471,331.966 520.928,332.113 C521.368,332.255 521.808,332.398 522.251,332.534 C522.256,332.706 522.288,332.882 522.358,333.051 C521.402,330.729 518.929,336.094 518.876,336.932 C518.74,339.107 519.671,340.735 520.816,342.087 C519.126,343.083 518.171,345.008 517.911,347.943 C517.9,348.063 517.928,348.172 517.951,348.283 C516.291,348.302 514.63,348.281 512.97,348.234 C513.094,347.911 513.211,347.581 513.324,347.227 C513.621,346.289 512.393,345.664 511.729,346.299 C511.189,346.816 510.648,347.331 510.107,347.848 C510.44,347.196 510.773,346.544 511.105,345.893 C511.287,345.538 511.207,345.114 510.976,344.828 C511.125,344.754 511.275,344.687 511.422,344.611 C512.057,344.286 511.498,343.331 510.864,343.655 C510.394,343.897 509.917,344.121 509.441,344.352 C509.355,344.236 509.248,344.138 509.124,344.069 C509.632,343.459 510.141,342.85 510.651,342.239 C510.834,342.02 510.779,341.753 510.627,341.59 C511.278,340.913 511.886,340.193 512.445,339.436 C512.709,339.076 512.113,338.613 511.824,338.956 C510.993,339.943 510.074,340.807 509.093,341.588 C509.144,341.476 509.212,341.374 509.26,341.259 C509.659,340.902 510.066,340.554 510.454,340.183 C510.749,339.901 510.297,339.449 510.006,339.735 C509.901,339.839 509.789,339.934 509.682,340.036 C509.891,339.306 510.038,338.543 510.106,337.745 C510.674,337.195 510.806,336.395 509.904,336.115 C509.943,335.833 509.774,335.586 509.37,335.476 C508.459,335.23 507.591,334.899 506.757,334.497 C506.998,334.359 507.174,334.208 507.236,334.065 C507.479,334.093 507.727,334.108 507.985,334.092 C508.325,334.072 508.435,333.554 508.069,333.471 L507.958,333.444 C508.1,333.287 508.127,333.135 507.973,333.019 C507.763,332.859 507.584,332.674 507.387,332.503 C507.48,332.511 507.567,332.524 507.667,332.527 C508.141,332.538 508.167,331.902 507.772,331.749 C507.112,331.495 506.451,331.233 505.835,330.892 C505.757,330.793 505.666,330.706 505.59,330.606 C505.921,330.749 506.263,330.853 506.617,330.871 C506.807,330.882 506.866,330.711 506.82,330.569 C507.062,330.663 507.31,330.743 507.567,330.808 C508.024,330.922 508.168,330.292 507.756,330.121 C506.65,329.664 505.569,329.18 504.579,328.529 C504.462,328.267 504.334,328.009 504.168,327.774 C504.438,327.514 504.532,327.113 504.162,326.789 C503.778,326.453 503.351,326.192 502.92,325.943 C503.206,325.851 503.403,325.511 503.112,325.26 C502.738,324.938 502.375,324.621 502.007,324.309 C502.048,324.203 502.049,324.084 501.971,323.967 C501.411,323.122 500.798,322.32 500.209,321.499 C500.461,321.754 500.731,321.987 501.037,322.177 C501.352,322.372 501.811,321.964 501.572,321.641 C501.211,321.154 500.838,320.697 500.471,320.239 C500.795,320.13 501.006,319.635 500.717,319.328 C500.187,318.766 499.67,318.219 499.183,317.652 C499.493,317.502 499.69,317.158 499.444,316.795 C498.913,316.008 498.143,315.336 497.522,314.613 C497.362,314.427 496.659,313.143 496.257,313.523 L496.242,313.545 C496.061,313.399 495.773,314.14 495.379,315.363 C495.262,315.406 495.161,315.498 495.113,315.663 C494.518,317.72 492.951,319.197 491.738,320.898 C491.582,321.115 491.61,321.337 491.731,321.504 C491.464,321.756 491.202,322.012 490.912,322.242 C490.806,322.326 490.833,322.444 490.909,322.523 C490.523,322.928 490.124,323.319 489.699,323.686 C489.479,323.875 489.553,324.142 489.731,324.291 C489.537,324.419 489.35,324.558 489.147,324.676 C488.738,324.914 489.007,325.61 489.477,325.456 C489.928,325.31 490.37,325.136 490.802,324.943 C490.023,325.61 489.191,326.21 488.286,326.669 C487.887,326.872 488.166,327.504 488.587,327.385 L488.604,327.379 C488.69,327.452 488.817,327.478 488.957,327.406 C489.198,327.284 489.435,327.151 489.674,327.022 C490.109,326.857 490.535,326.672 490.947,326.457 C490.729,326.752 490.504,327.018 490.274,327.241 C489.168,327.792 488.078,328.371 486.899,328.767 C486.682,328.839 486.658,329.076 486.757,329.218 L486.566,329.33 C486.128,329.609 485.828,330.039 485.378,330.303 C485.127,330.45 485.248,330.791 485.505,330.827 C485.573,330.928 485.68,331.008 485.837,331.027 C486.066,331.054 486.294,331.078 486.525,331.1 C486.348,331.394 486.182,331.702 486.041,332.048 C486.014,332.112 485.99,332.534 485.951,332.966 C485.195,333.061 484.435,333.096 483.693,333.023 C483.193,332.973 483.144,333.717 483.579,333.86 C484.089,334.029 484.589,334.143 485.083,334.207 C484.67,334.407 484.261,334.614 483.845,334.814 C483.562,334.949 483.697,335.431 484.007,335.41 C484.136,335.402 484.267,335.394 484.398,335.385 C484.281,335.48 484.165,335.573 484.049,335.667 C483.604,335.595 483.199,335.438 482.826,335.158 C482.599,334.989 482.277,335.322 482.437,335.548 C482.668,335.876 482.961,336.135 483.282,336.361 C483.179,336.486 483.108,336.627 483.067,336.777 C482.751,336.807 482.434,336.839 482.11,336.829 C481.721,336.818 481.675,337.296 481.93,337.492 C482.191,337.693 482.464,337.86 482.747,337.995 C482.307,338.037 481.796,338.315 481.714,338.797 C481.557,339.717 481.559,340.505 481.701,341.242 L481.482,341.082 C480.946,340.622 480.559,340.002 480.094,339.475 C479.825,339.169 479.329,339.563 479.536,339.905 C479.974,340.633 480.391,341.402 480.929,341.997 C480.728,341.893 480.526,341.791 480.332,341.663 C480.17,341.557 480.001,341.58 479.865,341.666 C479.436,341.26 479.028,340.833 478.667,340.361 C478.511,340.158 478.223,340.324 478.325,340.561 C478.647,341.308 479.055,342.001 479.521,342.662 C479.009,342.503 478.495,342.351 477.985,342.185 C476.685,343.683 475.386,345.182 474.087,346.68 C472.673,343.056 471.261,339.433 469.848,335.81 C468.438,338.373 467.028,340.936 465.618,343.499 C464.007,338.42 462.396,333.341 460.786,328.262 C459.033,333.028 457.28,337.794 455.527,342.561 C452.953,338.382 450.377,334.204 447.803,330.026 C447.856,331.547 447.63,333.027 447.202,334.449 C445.338,335.804 443.126,336.803 440.823,337.674 C440.149,337.265 439.497,336.898 438.853,336.581 C438.972,336.283 439.004,335.956 438.941,335.641 C440.588,334.794 442.231,333.936 443.872,333.08 C444.551,332.725 443.95,331.696 443.27,332.051 C441.556,332.944 439.81,333.746 438.047,334.504 L437.822,334.393 L436.656,333.95 C436.846,333.845 437.042,333.737 437.232,333.631 C438.446,333.195 439.649,332.702 440.932,332.216 C441.255,332.093 441.267,331.713 441.032,331.548 C441.558,331.266 442.074,330.981 442.612,330.701 C443.536,330.222 442.719,328.826 441.796,329.305 C440.484,329.986 439.142,330.606 437.782,331.188 C437.047,331.113 436.316,331.044 435.586,330.987 C435.827,330.806 436.07,330.631 436.307,330.443 C439.111,329.642 441.904,328.731 444.727,327.741 C445.352,327.522 445.1,326.644 444.456,326.756 C443.028,327.006 441.6,327.231 440.172,327.447 C442.862,326.044 445.177,324.186 446.544,321.702 L446.507,321.638 C445.402,321.585 444.276,321.729 443.155,321.974 C443.156,321.836 443.153,321.698 443.125,321.566 C444.093,320.916 445.058,320.253 446.023,319.579 C446.911,318.959 446.138,317.572 445.165,318.11 C443.706,318.914 442.237,319.698 440.758,320.456 C440.022,320.527 439.286,320.597 438.562,320.697 C439.513,319.561 440.432,318.374 441.35,317.163 C442.047,316.243 440.504,315.055 439.746,315.926 C437.87,318.081 435.709,319.905 433.502,321.683 C433.389,321.711 433.274,321.735 433.162,321.764 C434.48,319.878 435.844,318.032 437.501,316.411 C438.051,315.872 437.219,315.048 436.659,315.568 C435.413,316.726 434.122,317.802 432.853,318.881 C433.526,317.726 434.304,316.622 435.325,315.605 C435.846,315.085 435.483,314.398 434.95,314.218 C436.099,313.583 437.105,312.759 437.771,311.543 C437.99,311.143 437.629,310.694 437.194,310.793 C435.813,311.106 434.437,311.436 433.06,311.764 C433.037,311.627 433,311.491 432.939,311.365 C434.117,310.544 435.19,309.647 436.099,308.648 C436.313,308.412 436.174,307.985 435.828,307.994 C432.454,308.088 429.097,309.231 425.788,310.283 C427.276,308.938 428.898,307.733 430.661,306.706 C430.865,306.587 430.731,306.24 430.498,306.318 C428.169,307.085 425.977,308.14 423.981,309.439 C423.884,309.136 423.791,308.831 423.723,308.512 C425.06,306.795 426.414,305.096 427.924,303.58 C428.234,303.27 427.841,302.767 427.46,302.979 C425.936,303.829 424.401,304.59 422.884,305.365 C422.664,305.159 422.406,304.994 422.124,304.91 C425.484,303.012 428.92,301.23 432.705,299.951 C433.686,299.62 433.295,298.152 432.275,298.393 C427.82,299.443 422.94,300.703 418.412,302.612 C419.023,302.076 419.62,301.517 420.211,300.944 C423.975,299.867 427.75,298.869 431.589,298.441 C432.194,298.373 432.395,297.726 432.202,297.319 C432.99,297.221 433.779,297.124 434.577,297.049 C434.669,297.04 434.667,296.917 434.577,296.906 C431.734,296.569 428.88,296.496 426.06,296.697 C427.695,295.796 429.334,294.902 431.004,294.063 C433.014,293.49 435.079,293.214 437.082,293.926 C437.676,294.138 437.976,293.269 437.493,292.95 C436.169,292.078 434.686,291.668 433.129,291.566 L432.908,291.389 C433.126,291.344 433.345,291.299 433.564,291.253 C434.763,291.005 434.231,289.271 433.067,289.448 C432.783,289.491 432.499,289.535 432.214,289.578 C434.342,287.895 436.492,286.231 438.701,284.621 C439.301,284.183 438.966,282.964 438.143,283.299 C435.324,284.447 432.603,285.788 430,287.309 C430.473,286.339 429.016,285.511 428.434,286.473 C427.808,287.509 427.148,288.521 426.48,289.526 C426.119,289.771 425.762,290.026 425.405,290.277 C426.25,288.883 427.093,287.487 427.927,286.079 C428.307,285.435 427.348,284.634 426.857,285.254 C426.265,286.004 425.692,286.758 425.128,287.516 C425.872,285.905 426.656,284.305 427.546,282.737 C428.06,281.831 426.684,281.027 426.15,281.921 C424.623,284.481 422.941,286.883 421.32,289.3 C421.089,288.929 420.539,288.758 420.195,289.028 C420.274,288.883 420.349,288.735 420.43,288.59 C420.613,288.258 420.518,287.899 420.308,287.637 C422.835,283.972 425.499,280.396 428.468,277.124 C428.62,276.958 428.397,276.751 428.228,276.883 C426.515,278.23 424.895,279.623 423.359,281.075 C423.254,280.751 422.97,280.463 422.642,280.404 C423.335,280.068 424.037,279.748 424.757,279.467 C425.532,279.164 425.228,278.123 424.417,278.236 C423.072,278.424 421.754,278.692 420.473,279.035 C420.403,278.598 419.825,278.249 419.387,278.643 L419.327,278.697 C419.299,278.251 419.1,277.817 418.789,277.488 C419.198,277.259 419.607,277.03 420.029,276.813 L420.014,276.785 C420.282,276.604 420.45,276.349 420.535,276.073 C421.537,275.983 422.518,276.1 423.446,276.55 C423.897,276.769 424.295,276.094 423.841,275.874 C422.766,275.353 421.601,275.023 420.414,274.92 C420.165,274.485 419.678,274.217 419.022,274.425 C418.533,274.58 418.055,274.759 417.577,274.939 L417.637,274.782 C419.716,274.138 421.846,273.701 424.022,273.559 C424.39,273.534 424.447,273.056 424.107,272.93 C423.081,272.55 422.011,272.34 420.918,272.254 C421.969,271.781 423.042,271.356 424.131,270.984 C424.632,270.813 424.533,270.113 424.008,270.075 C422.906,269.995 421.827,270.042 420.769,270.166 C420.717,270.057 420.675,269.943 420.608,269.841 C421.452,268.942 422.268,267.983 423.073,266.958 C423.527,266.378 422.847,265.696 422.268,266.152 C421.587,266.688 420.874,267.192 420.164,267.697 C421.136,266.684 422.085,265.637 422.987,264.524 C423.326,264.106 422.784,263.526 422.383,263.92 C421.178,265.108 419.914,266.229 418.614,267.307 C418.366,267.11 418.061,266.978 417.702,266.955 C417.47,266.941 417.241,266.936 417.01,266.924 C417.061,266.751 417.112,266.583 417.163,266.411 C418.518,264.09 419.63,261.62 420.534,259.001 C420.747,258.382 419.812,258.161 419.573,258.736 C418.856,260.46 418.018,262.124 417.09,263.738 L416.967,263.647 C417.179,263.185 416.993,262.715 416.638,262.402 C417.051,261.669 417.426,260.905 417.769,260.117 C418.017,259.545 417.215,259.034 416.908,259.614 C416.446,260.487 415.918,261.313 415.353,262.11 C415.21,262.155 415.069,262.228 414.934,262.332 C413.952,263.093 412.559,263.611 411.736,264.524 C411.672,264.362 411.584,264.22 411.488,264.084 C413.845,261.698 415.866,259.009 417.805,255.967 C418.164,255.406 417.296,254.922 416.923,255.451 C415.533,257.427 413.716,259.083 411.755,260.62 C413.152,258.873 414.364,256.954 415.517,254.836 C415.97,254.003 414.806,253.364 414.267,254.107 C413.678,254.919 413.005,255.661 412.295,256.371 L412.812,253.721 C412.917,253.18 412.769,252.622 412.474,252.157 C412.782,251.016 413.01,249.839 413.231,248.629 C413.349,247.986 412.511,247.567 412.143,248.17 C410.667,250.59 408.358,252.369 406.537,254.521 C407.247,252.583 407.904,250.606 408.711,248.618 C408.927,248.087 408.019,247.7 407.777,248.225 C407.058,249.787 406.204,251.262 405.322,252.717 C406.045,250.318 406.578,247.852 406.933,245.292 C406.962,245.082 406.668,244.985 406.605,245.201 C405.802,247.926 404.831,250.6 403.766,253.236 C403.392,250.252 403.024,247.267 402.662,244.281 C402.98,243.033 403.312,241.79 403.674,240.558 C403.82,240.063 403.043,239.705 402.819,240.197 C402.545,240.796 402.285,241.393 402.032,241.988 C401.871,241.818 401.687,241.672 401.48,241.574 C401.21,239.587 400.879,237.587 400.511,235.55 C400.432,235.112 399.771,235.236 399.759,235.652 C399.69,237.912 399.574,240.154 399.465,242.391 L399.4,242.532 C398.975,244.109 398.64,245.8 398.503,247.47 C397.639,245.915 396.821,244.332 396.142,242.663 C395.86,241.971 394.805,242.214 394.993,242.98 C395.346,244.421 395.737,245.9 396.189,247.371 C396.257,247.978 396.333,248.586 396.421,249.193 C396.376,249.068 396.325,248.948 396.283,248.823 C396.061,248.152 395.023,248.425 395.217,249.117 C395.524,250.216 395.753,251.335 395.977,252.447 C394.828,252.031 393.683,251.603 392.564,251.082 C392.462,251.035 392.357,251.03 392.255,251.044 C391.998,250.741 391.732,250.448 391.483,250.134 C391.079,249.622 390.337,250.274 390.615,250.804 C391.239,251.995 391.375,253.109 391.659,254.384 C391.728,254.695 391.832,254.997 391.95,255.293 C391.334,254.297 390.757,253.288 390.271,252.262 C390.007,251.702 389.023,252.105 389.26,252.688 C390.421,255.539 391.124,258.217 392.674,260.541 C390.843,261.215 391.877,263.5 392.517,264.77 C393.051,265.829 393.689,266.819 394.373,267.776 C392.794,266.443 391.369,264.934 390.193,263.142 C389.711,262.407 388.622,263.045 389.017,263.829 C389.182,264.156 389.377,264.464 389.557,264.782 C389.529,264.86 389.503,264.939 389.498,265.036 C389.46,265.747 389.509,266.454 389.632,267.148 C388.56,265.561 387.459,263.967 386.565,262.348 C386.218,261.721 385.168,262.143 385.394,262.841 C385.77,264.001 385.907,265.253 386.102,266.488 C385.573,266.106 385.056,265.704 384.558,265.266 C383.928,264.71 382.931,265.246 383.026,265.985 C382.488,265.618 381.956,265.233 381.435,264.797 C380.753,264.228 379.49,264.985 380.098,265.828 C380.692,266.652 381.299,267.503 381.928,268.342 L381.835,268.413 C380.903,267.801 380.008,267.133 379.177,266.376 C378.77,266.006 378.029,266.495 378.375,266.995 C379.18,268.159 380.062,269.224 381.018,270.18 C380.989,270.48 381.012,270.782 381.082,271.073 C379.879,271.512 378.819,272.209 378.041,273.294 C377.915,273.471 377.987,273.714 378.115,273.861 C379.207,275.129 380.714,275.745 382.368,275.968 C382.523,276.339 382.717,276.702 382.936,277.058 C382.335,277.885 382.119,279.014 382.675,279.984 C382.937,280.442 383.242,280.875 383.565,281.294 C383.401,282.103 382.918,282.46 382.133,282.388 C381.457,280.845 380.947,279.235 380.723,277.527 C380.579,276.424 378.937,276.339 378.936,277.527 C378.935,278.643 379.036,279.74 379.216,280.816 C378.213,278.773 377.394,276.66 377.05,274.289 C376.951,273.605 375.896,273.802 375.88,274.447 C375.859,275.241 375.889,276.038 375.944,276.833 C375.753,276.685 375.555,276.566 375.351,276.483 C375.087,275.197 374.93,273.892 374.929,272.572 C374.928,271.628 373.562,271.658 373.482,272.572 C373.474,272.671 373.478,272.766 373.471,272.864 C373.456,272.77 373.432,272.679 373.419,272.584 C373.337,272.011 372.36,272.019 372.27,272.584 C372.197,273.04 372.138,273.499 372.088,273.958 C371.99,273.382 371.917,272.796 371.901,272.19 C371.879,271.373 370.719,271.208 370.48,271.997 C369.029,276.79 370.471,281.094 373.22,284.68 C373.058,284.63 372.902,284.568 372.742,284.515 C372.603,284.399 372.461,284.285 372.324,284.158 C372.062,283.913 371.772,283.951 371.574,284.112 C369.393,283.269 367.374,282.087 365.725,280.339 C365.194,279.777 364.381,280.61 364.883,281.182 C367.413,284.068 370.335,286.48 373.846,287.508 C375.265,288.763 376.917,289.828 378.681,290.37 C378.778,290.435 378.88,290.493 378.977,290.558 C377.649,290.248 376.336,289.855 375.029,289.41 C374.439,289.21 374.042,290.137 374.603,290.421 C376.218,291.24 377.83,292.054 379.494,292.573 C379.422,293.128 379.467,293.685 379.689,294.229 C377.096,293.822 374.498,293.54 371.991,292.503 C371.081,292.126 370.684,293.608 371.584,293.98 C373.724,294.866 375.85,295.863 378.041,296.511 C377.807,296.827 377.569,297.136 377.343,297.469 L377.16,297.22 C376.824,296.655 376.042,297.049 376.149,297.647 C376.202,297.941 376.273,298.214 376.342,298.489 C376.218,298.401 376.1,298.305 375.974,298.22 C375.37,297.32 374.808,296.383 374.322,295.369 C374.072,294.849 373.21,295.214 373.389,295.763 C373.524,296.178 373.681,296.591 373.834,297.005 C373.413,296.811 372.985,296.633 372.55,296.485 C369.675,295.502 366.045,296.235 363.348,294.982 C362.96,294.802 362.528,295.073 362.452,295.417 C362.003,295.343 361.563,295.872 361.837,296.309 C362.379,297.168 363.034,297.932 363.738,298.648 C363.435,298.665 363.134,298.686 362.836,298.72 C362.232,298.168 361.653,297.583 361.139,296.908 C360.783,296.443 360.032,296.836 360.33,297.381 C360.636,297.941 360.983,298.472 361.351,298.985 C360.802,299.118 360.28,299.303 359.782,299.531 C359.046,299.054 358.273,298.67 357.453,298.59 L357.33,298.752 C357.73,300.561 358.7,302.193 359.987,303.559 C359.489,303.532 358.99,303.513 358.49,303.519 C356.39,303.542 353.978,304.294 351.95,304.047 C350.937,303.924 350.887,305.412 351.724,305.719 C352.662,306.063 353.373,306.792 354.252,307.225 C354.906,307.547 355.635,307.798 356.376,307.994 L356.355,308.121 C355.064,308.158 353.771,308.17 352.469,308.077 C351.311,307.994 351.343,309.748 352.469,309.864 C354.135,310.035 355.764,310.319 357.39,310.558 C357.835,310.975 358.403,311.25 359.038,311.326 C358.727,311.404 358.42,311.471 358.124,311.511 C357.459,311.601 357.617,312.715 358.282,312.681 C360.775,312.552 362.852,312.858 365.322,312.185 C365.628,312.102 365.921,312.005 366.214,311.909 C366.254,312.094 366.341,312.265 366.465,312.388 C366.147,312.39 365.829,312.393 365.509,312.383 C364.526,312.356 364.579,313.77 365.509,313.878 C367.108,314.064 368.726,314.172 370.334,314.139 C370.273,314.462 370.276,314.793 370.346,315.116 C368.971,315.155 367.599,315.118 366.124,314.918 C365.426,314.823 365.15,315.727 365.83,315.985 C367.241,316.522 368.687,317.139 370.146,317.7 C370.139,317.836 370.14,317.975 370.149,318.115 C369.588,317.944 369.022,317.784 368.449,317.636 C366.034,317.01 362.615,316.77 360.633,315.278 C359.933,314.751 359.254,315.933 359.946,316.454 C360.518,316.885 360.984,317.425 361.44,317.974 C360.839,318.371 360.396,319.022 360.37,319.84 L360.363,320.038 C358.575,318.885 356.839,317.66 355.203,316.321 C354.564,315.799 353.779,316.585 354.301,317.225 C356.107,319.441 357.815,321.745 359.701,323.754 C358.19,322.608 356.733,321.398 355.394,320.069 C355.183,319.86 354.862,320.125 354.993,320.379 C356.105,322.546 357.46,324.456 359.032,326.124 C356.891,325.711 354.745,325.305 352.597,324.888 L352.444,324.759 C351.266,324.363 350.175,323.784 349.069,323.233 C348.839,323.01 348.615,322.744 348.396,322.449 C348.809,322.664 349.235,322.848 349.669,323.013 C349.909,323.143 350.146,323.277 350.387,323.399 C350.527,323.47 350.653,323.443 350.739,323.371 L350.756,323.377 C351.178,323.495 351.457,322.864 351.058,322.661 C350.152,322.201 349.32,321.602 348.542,320.935 C348.974,321.128 349.416,321.302 349.867,321.448 C350.336,321.601 350.605,320.906 350.196,320.668 C349.993,320.55 349.807,320.411 349.612,320.283 C349.791,320.133 349.865,319.866 349.645,319.678 C349.22,319.312 348.821,318.919 348.435,318.514 C348.511,318.436 348.537,318.318 348.432,318.235 C348.142,318.003 347.879,317.748 347.612,317.496 C347.733,317.328 347.762,317.108 347.606,316.889 C346.393,315.19 344.826,313.712 344.23,311.654 C344.183,311.489 344.081,311.398 343.964,311.356 C343.571,310.132 343.282,309.391 343.102,309.536 L343.086,309.514 C342.685,309.135 341.982,310.418 341.821,310.606 C341.201,311.327 340.431,312 339.9,312.786 C339.654,313.151 339.851,313.493 340.161,313.643 C339.673,314.211 339.157,314.758 338.626,315.32 C338.337,315.626 338.548,316.121 338.872,316.232 C338.505,316.69 338.132,317.146 337.771,317.633 C337.533,317.956 337.992,318.364 338.307,318.169 C338.612,317.98 338.882,317.745 339.134,317.491 C338.545,318.312 337.933,319.114 337.372,319.958 C337.294,320.076 337.295,320.195 337.336,320.301 C336.969,320.612 336.605,320.929 336.232,321.251 C335.94,321.503 336.138,321.843 336.423,321.935 C335.992,322.184 335.565,322.444 335.182,322.78 C334.812,323.105 334.905,323.506 335.175,323.766 C335.01,324.001 334.881,324.259 334.765,324.522 C333.774,325.172 332.693,325.656 331.588,326.113 C331.175,326.283 331.32,326.913 331.777,326.799 C332.033,326.735 332.282,326.654 332.523,326.562 C332.478,326.703 332.536,326.874 332.727,326.863 C333.081,326.844 333.422,326.741 333.753,326.597 C333.678,326.697 333.586,326.785 333.508,326.884 C332.894,327.225 332.231,327.487 331.571,327.741 C331.178,327.894 331.203,328.53 331.677,328.518 C331.777,328.516 331.864,328.503 331.957,328.495 C331.76,328.666 331.581,328.851 331.37,329.01 C331.216,329.127 331.244,329.278 331.386,329.436 L331.274,329.463 C330.909,329.545 331.02,330.064 331.358,330.084 C331.617,330.1 331.864,330.084 332.107,330.057 C332.169,330.199 332.346,330.35 332.586,330.488 C331.752,330.89 330.884,331.221 329.974,331.468 C329.569,331.577 329.401,331.825 329.439,332.108 C328.538,332.386 328.669,333.188 329.238,333.737 C329.306,334.535 329.453,335.298 329.661,336.027 C329.555,335.925 329.442,335.83 329.337,335.727 C329.046,335.442 328.595,335.893 328.89,336.174 C329.277,336.545 329.685,336.893 330.083,337.251 C330.131,337.366 330.199,337.467 330.251,337.58 C329.27,336.798 328.351,335.936 327.52,334.948 C327.231,334.606 326.634,335.068 326.898,335.427 C327.457,336.185 328.066,336.904 328.716,337.582 C328.564,337.745 328.509,338.011 328.693,338.232 C329.202,338.842 329.711,339.451 330.22,340.062 C330.096,340.13 329.989,340.228 329.902,340.343 C329.427,340.113 328.95,339.888 328.48,339.648 C327.846,339.323 327.287,340.278 327.921,340.604 C328.068,340.679 328.219,340.746 328.367,340.82 C328.137,341.107 328.057,341.529 328.238,341.885 C328.571,342.536 328.903,343.188 329.236,343.84 C328.696,343.323 328.155,342.807 327.614,342.29 C326.951,341.656 325.723,342.281 326.02,343.219 C326.132,343.572 326.25,343.903 326.373,344.225 C324.713,344.273 323.053,344.293 321.393,344.276 C321.416,344.164 321.443,344.054 321.433,343.935 C321.172,341 320.218,339.075 318.528,338.079 C319.673,336.728 320.604,335.099 320.467,332.924 C320.415,332.085 317.942,326.721 316.986,329.043 C317.056,328.873 317.087,328.698 317.093,328.526 C317.535,328.39 317.976,328.246 318.416,328.105 C318.873,327.957 318.779,326.952 318.303,327.004 C317.714,327.068 317.126,327.102 316.539,327.142 C316.724,326.988 316.908,326.833 317.102,326.698 L317.052,326.585 C316.552,326.868 316.022,326.978 315.488,327.056 C316.058,326.582 316.596,325.909 316.726,325.103 C316.781,324.761 316.502,324.401 316.27,324.505 C315.613,324.483 314.837,324.897 314.219,325.138 C314.186,324.983 314.133,324.83 314.055,324.686 C314.855,324.465 315.652,324.026 316.353,323.68 C316.811,323.453 316.636,322.548 316.149,322.696 C315.426,322.918 314.7,323.147 313.96,323.234 C313.755,323.257 313.559,323.263 313.36,323.273 C313.276,322.717 313.698,322.378 314.471,321.327 C314.55,321.22 314.606,321.086 314.65,320.945 C315.06,320.543 315.435,320.061 315.697,319.61 C316.286,318.604 316.761,317.514 317.141,316.344 C317.239,316.04 316.96,315.825 316.81,316.086 C316.46,316.694 316.064,317.245 315.648,317.769 C315.518,317.657 315.353,317.628 315.196,317.765 C315.008,317.929 314.813,318.061 314.618,318.195 C315.138,317.428 315.543,316.437 315.968,315.499 C316.168,315.058 315.688,314.55 315.427,314.943 C314.976,315.624 314.601,316.422 314.082,317.016 L313.87,317.222 C314.008,316.273 314.008,315.257 313.856,314.07 C313.777,313.449 313.282,313.093 312.857,313.037 C313.13,312.864 313.396,312.649 313.647,312.39 C313.895,312.137 313.85,311.521 313.473,311.535 C313.16,311.548 312.853,311.507 312.546,311.467 C312.506,311.275 312.438,311.094 312.338,310.932 C312.649,310.641 312.932,310.308 313.157,309.885 C313.312,309.594 312.999,309.164 312.78,309.383 C312.419,309.742 312.025,309.944 311.595,310.037 C311.483,309.917 311.37,309.796 311.257,309.674 C311.383,309.685 311.51,309.695 311.635,309.706 C311.936,309.734 312.067,309.112 311.792,308.938 C311.389,308.682 310.992,308.414 310.594,308.156 C311.071,308.074 311.556,307.927 312.05,307.71 C312.472,307.526 312.424,306.566 311.94,306.629 C311.221,306.724 310.484,306.679 309.752,306.557 C309.714,306.001 309.691,305.457 309.665,305.373 C309.528,304.929 309.367,304.531 309.196,304.152 C309.419,304.124 309.641,304.093 309.862,304.058 C310.014,304.034 310.118,303.931 310.184,303.801 C310.434,303.754 310.55,303.316 310.307,303.125 C309.871,302.785 309.58,302.231 309.157,301.872 L308.971,301.727 C309.067,301.545 309.044,301.239 308.834,301.146 C307.692,300.636 306.635,299.89 305.563,299.18 C305.34,298.893 305.123,298.55 304.911,298.17 C305.311,298.447 305.724,298.684 306.145,298.897 C306.376,299.064 306.606,299.236 306.84,299.394 C306.976,299.485 307.098,299.451 307.181,299.358 L307.197,299.365 C307.606,299.518 307.877,298.704 307.49,298.443 C306.612,297.851 305.807,297.078 305.052,296.218 C305.471,296.467 305.898,296.691 306.336,296.88 C306.791,297.076 307.052,296.182 306.655,295.874 C306.459,295.722 306.278,295.544 306.089,295.379 C306.262,295.186 306.334,294.842 306.121,294.598 C305.71,294.126 305.323,293.621 304.949,293.099 C305.022,292.998 305.048,292.847 304.946,292.738 C304.665,292.441 304.41,292.111 304.151,291.787 C304.269,291.571 304.296,291.285 304.146,291.005 C302.97,288.815 301.452,286.91 300.876,284.26 C300.829,284.047 300.73,283.929 300.618,283.874 C300.236,282.297 299.957,281.342 299.782,281.53 L299.767,281.501 C299.378,281.012 298.697,282.667 298.541,282.907 C297.939,283.838 297.194,284.704 296.679,285.718 C296.441,286.187 296.631,286.629 296.932,286.821 C296.46,287.554 295.96,288.258 295.445,288.984 C295.166,289.378 295.369,290.016 295.684,290.157 C295.329,290.748 294.966,291.336 294.617,291.964 C294.386,292.379 294.831,292.905 295.136,292.653 C295.432,292.41 295.694,292.109 295.938,291.78 C295.367,292.838 294.773,293.872 294.23,294.96 C294.155,295.111 294.156,295.266 294.195,295.401 C293.839,295.803 293.488,296.211 293.126,296.626 C292.843,296.95 293.035,297.388 293.311,297.507 C292.893,297.827 292.48,298.164 292.108,298.597 C291.75,299.015 291.84,299.531 292.102,299.865 C291.942,300.169 291.817,300.501 291.705,300.84 C290.745,301.678 289.697,302.302 288.626,302.892 C288.227,303.11 288.366,303.923 288.809,303.776 C289.058,303.693 289.298,303.589 289.533,303.469 C289.488,303.652 289.545,303.871 289.73,303.859 C290.072,303.833 290.403,303.701 290.724,303.515 C290.651,303.645 290.562,303.757 290.486,303.884 C289.891,304.323 289.25,304.662 288.61,304.989 C288.229,305.186 288.253,306.006 288.712,305.99 C288.81,305.987 288.894,305.971 288.983,305.96 C288.793,306.181 288.619,306.419 288.415,306.624 C288.266,306.775 288.293,306.97 288.43,307.173 L288.322,307.208 C287.968,307.315 288.075,307.983 288.404,308.008 C288.654,308.028 288.894,308.009 289.129,307.973 C289.189,308.157 289.36,308.351 289.593,308.529 C288.785,309.047 287.944,309.474 287.063,309.791 C286.67,309.933 286.507,310.252 286.544,310.615 C285.67,310.975 285.798,312.008 286.35,312.716 C286.415,313.744 286.558,314.728 286.759,315.667 C286.657,315.535 286.547,315.413 286.445,315.279 C286.164,314.911 285.727,315.493 286.012,315.857 C286.388,316.334 286.782,316.782 287.168,317.244 C287.214,317.392 287.28,317.523 287.33,317.667 C286.38,316.66 285.49,315.549 284.684,314.277 C284.404,313.834 283.826,314.432 284.083,314.894 C284.624,315.87 285.214,316.797 285.844,317.67 C285.697,317.881 285.643,318.223 285.821,318.507 C286.314,319.293 286.808,320.079 287.301,320.865 C287.18,320.953 287.077,321.08 286.993,321.229 C286.533,320.932 286.07,320.642 285.615,320.332 C285.001,319.914 284.459,321.146 285.073,321.564 C285.216,321.661 285.362,321.747 285.505,321.843 C285.283,322.212 285.205,322.758 285.38,323.214 C285.703,324.055 286.025,324.895 286.348,325.735 C285.824,325.069 285.3,324.403 284.776,323.737 C284.133,322.921 282.944,323.726 283.231,324.934 C283.345,325.411 283.463,325.858 283.589,326.289 C282.947,326.165 282.219,326.823 282.478,327.812 C282.54,328.051 282.615,328.277 282.679,328.515 L282.463,328.212 C281.803,327.288 280.545,328.238 280.839,329.47 C280.882,329.652 280.932,329.824 280.978,330.001 C277.632,329.583 274.285,329.164 270.939,328.746 C271.154,328.637 271.371,328.528 271.586,328.419 C272.527,327.942 272.573,326.334 271.586,325.87 C270.563,325.39 269.545,325.021 268.525,324.74 C269.794,324.267 271.079,323.753 272.407,323.217 C273.228,322.886 272.869,321.538 272.037,321.874 C270.272,322.587 268.413,323.106 266.51,323.504 C266.615,323.286 266.631,323.035 266.57,322.81 C269.06,322.087 271.498,321.036 274.02,319.8 C274.64,319.495 274.207,318.46 273.548,318.68 C271.735,319.285 269.851,319.711 267.935,320.029 C268.304,319.857 268.676,319.69 269.053,319.531 C269.867,319.191 269.51,317.843 268.683,318.189 C268.53,318.253 268.379,318.305 268.227,318.364 C269.242,317.897 270.249,317.365 271.256,316.795 C271.445,316.773 271.599,316.681 271.702,316.547 L271.939,316.415 C272.488,316.091 272.122,315.095 271.488,315.346 C271.36,315.396 271.23,315.44 271.103,315.488 C270.733,315.395 270.364,315.298 269.995,315.202 C270.083,315.044 270.131,314.867 270.122,314.695 C271.757,314.639 273.39,314.521 275.018,314.292 C275.985,314.157 275.634,312.788 274.803,312.706 C273.45,312.572 272.093,312.497 270.734,312.459 C271.5,311.606 272.253,310.702 273.079,309.752 C273.502,309.265 272.925,308.341 272.336,308.789 C271.081,309.746 269.554,310.431 267.97,311.029 C267.529,310.761 267.102,310.521 266.681,310.314 C266.759,310.119 266.78,309.904 266.738,309.698 C267.817,309.145 268.892,308.582 269.965,308.023 C270.411,307.79 270.017,307.116 269.572,307.349 C268.45,307.934 267.308,308.458 266.154,308.954 L266.005,308.881 L265.242,308.592 C265.367,308.523 265.495,308.452 265.62,308.383 C266.414,308.098 267.202,307.775 268.042,307.456 C268.253,307.376 268.261,307.127 268.107,307.02 C268.451,306.834 268.789,306.649 269.141,306.465 C269.746,306.152 269.211,305.237 268.607,305.551 C267.748,305.997 266.87,306.402 265.98,306.783 C265.499,306.735 265.021,306.69 264.543,306.652 C264.7,306.533 264.859,306.419 265.015,306.296 C266.85,305.772 268.678,305.175 270.525,304.527 C270.935,304.384 270.77,303.809 270.348,303.883 C269.414,304.046 268.479,304.193 267.544,304.336 C269.304,303.416 270.82,302.2 271.715,300.574 L271.691,300.532 C270.967,300.498 270.23,300.592 269.497,300.752 L269.477,300.485 C270.111,300.061 270.742,299.626 271.374,299.185 C271.955,298.779 271.449,297.871 270.812,298.223 C269.857,298.75 268.896,299.263 267.928,299.759 C267.446,299.806 266.964,299.851 266.49,299.917 C267.113,299.173 267.714,298.397 268.315,297.604 C268.772,297.002 267.762,296.224 267.265,296.794 C266.037,298.204 264.623,299.399 263.178,300.562 L262.955,300.615 C263.818,299.381 264.711,298.173 265.796,297.111 C266.156,296.759 265.611,296.219 265.244,296.56 C264.429,297.318 263.584,298.022 262.753,298.728 C263.194,297.972 263.703,297.249 264.372,296.583 C264.712,296.243 264.475,295.794 264.126,295.676 C264.878,295.26 265.536,294.721 265.972,293.925 C266.116,293.663 265.88,293.369 265.595,293.434 C264.69,293.639 263.79,293.855 262.889,294.069 L262.81,293.809 C263.581,293.272 264.283,292.684 264.878,292.029 C265.018,291.876 264.927,291.596 264.701,291.602 C262.492,291.663 260.294,292.411 258.129,293.101 C259.103,292.22 260.165,291.431 261.318,290.759 C261.452,290.681 261.364,290.454 261.211,290.504 C259.688,291.007 258.252,291.697 256.946,292.547 C256.882,292.35 256.822,292.151 256.777,291.941 C257.652,290.817 258.539,289.705 259.527,288.713 C259.73,288.51 259.473,288.18 259.224,288.318 C258.226,288.876 257.221,289.373 256.228,289.881 C256.084,289.746 255.915,289.638 255.73,289.583 C257.93,288.341 260.179,287.174 262.656,286.338 C263.299,286.121 263.043,285.159 262.375,285.318 C259.459,286.005 256.265,286.83 253.301,288.079 C253.701,287.729 254.092,287.362 254.479,286.987 C256.942,286.282 259.413,285.629 261.926,285.349 C262.322,285.305 262.454,284.881 262.327,284.614 C262.843,284.55 263.359,284.487 263.882,284.438 L263.882,284.345 C262.021,284.123 260.153,284.075 258.307,284.208 C259.377,283.617 260.45,283.033 261.543,282.484 C262.859,282.109 264.21,281.928 265.522,282.394 C265.911,282.532 266.106,281.963 265.791,281.755 C264.924,281.184 263.953,280.915 262.934,280.849 L262.789,280.733 C262.932,280.703 263.076,280.674 263.219,280.644 C264.003,280.482 263.655,279.347 262.893,279.462 C262.707,279.49 262.522,279.52 262.335,279.548 C263.729,278.445 265.135,277.357 266.581,276.303 C266.974,276.016 266.755,275.218 266.216,275.438 C264.37,276.189 262.59,277.067 260.886,278.062 C261.195,277.427 260.242,276.886 259.861,277.515 C259.451,278.193 259.019,278.855 258.583,279.513 C258.345,279.674 258.112,279.84 257.878,280.005 C258.431,279.092 258.983,278.179 259.529,277.257 C259.778,276.836 259.15,276.311 258.829,276.717 C258.441,277.208 258.066,277.701 257.697,278.197 C258.184,277.144 258.697,276.096 259.279,275.069 C259.616,274.477 258.715,273.95 258.366,274.535 C257.366,276.211 256.266,277.783 255.204,279.365 C255.053,279.122 254.693,279.011 254.468,279.188 C254.52,279.092 254.569,278.995 254.622,278.901 C254.741,278.684 254.679,278.448 254.542,278.277 C256.196,275.878 257.939,273.537 259.884,271.396 C259.982,271.286 259.836,271.152 259.726,271.238 C258.605,272.119 257.544,273.031 256.539,273.983 C256.471,273.77 256.285,273.581 256.069,273.543 C256.523,273.322 256.983,273.113 257.454,272.929 C257.961,272.731 257.762,272.049 257.232,272.123 C256.351,272.246 255.488,272.421 254.65,272.647 C254.604,272.36 254.226,272.132 253.939,272.39 L253.899,272.426 C253.881,272.133 253.751,271.849 253.548,271.634 C253.815,271.485 254.084,271.334 254.359,271.192 L254.349,271.174 C254.524,271.055 254.635,270.888 254.69,270.708 C255.346,270.649 255.988,270.725 256.596,271.02 C256.892,271.163 257.151,270.721 256.855,270.577 C256.151,270.236 255.388,270.02 254.611,269.953 C254.448,269.668 254.129,269.492 253.7,269.629 C253.38,269.731 253.067,269.848 252.754,269.965 L252.793,269.862 C254.154,269.442 255.549,269.155 256.973,269.062 C257.214,269.046 257.251,268.733 257.028,268.651 C256.357,268.402 255.657,268.264 254.941,268.208 C255.629,267.899 256.331,267.62 257.044,267.376 C257.373,267.265 257.308,266.807 256.964,266.781 C256.243,266.73 255.536,266.76 254.843,266.841 L254.738,266.628 C255.291,266.039 255.825,265.412 256.352,264.741 C256.649,264.361 256.204,263.916 255.825,264.214 C255.379,264.565 254.912,264.894 254.448,265.226 C255.084,264.562 255.705,263.876 256.295,263.148 C256.518,262.874 256.162,262.494 255.9,262.753 C255.111,263.529 254.284,264.264 253.433,264.97 C253.271,264.841 253.071,264.754 252.836,264.739 C252.685,264.73 252.534,264.727 252.383,264.719 C252.417,264.606 252.45,264.496 252.483,264.384 C253.37,262.864 254.098,261.247 254.689,259.533 C254.829,259.128 254.217,258.984 254.061,259.36 C253.591,260.487 253.043,261.577 252.435,262.634 L252.355,262.573 C252.494,262.271 252.372,261.964 252.14,261.76 C252.41,261.279 252.655,260.779 252.879,260.264 C253.042,259.889 252.518,259.555 252.316,259.935 C252.014,260.506 251.668,261.046 251.299,261.568 C251.205,261.598 251.112,261.645 251.024,261.714 C250.381,262.211 249.47,262.551 248.931,263.148 C248.89,263.042 248.832,262.949 248.769,262.86 C250.311,261.299 251.634,259.538 252.904,257.547 C253.138,257.18 252.57,256.863 252.327,257.21 C251.417,258.502 250.227,259.587 248.944,260.593 C249.858,259.449 250.651,258.193 251.406,256.807 C251.703,256.261 250.94,255.843 250.588,256.329 C250.202,256.861 249.762,257.347 249.297,257.812 L249.635,256.076 C249.704,255.723 249.607,255.358 249.414,255.053 C249.615,254.306 249.765,253.535 249.91,252.744 C249.987,252.322 249.439,252.048 249.197,252.443 C248.231,254.027 246.72,255.192 245.528,256.6 C245.993,255.332 246.422,254.037 246.951,252.737 C247.092,252.389 246.498,252.136 246.34,252.48 C245.869,253.502 245.31,254.467 244.732,255.42 C245.206,253.85 245.554,252.235 245.787,250.56 C245.806,250.422 245.614,250.359 245.572,250.5 C245.047,252.283 244.411,254.033 243.714,255.76 C243.469,253.807 243.229,251.853 242.991,249.898 C243.2,249.081 243.417,248.268 243.654,247.461 C243.75,247.136 243.241,246.902 243.094,247.225 C242.915,247.616 242.745,248.007 242.579,248.397 C242.474,248.285 242.353,248.19 242.218,248.126 C242.041,246.825 241.825,245.516 241.584,244.183 C241.532,243.897 241.1,243.978 241.091,244.249 C241.046,245.729 240.97,247.196 240.899,248.66 L240.856,248.753 C240.578,249.784 240.359,250.892 240.269,251.985 C239.704,250.968 239.168,249.932 238.724,248.839 C238.539,248.386 237.849,248.545 237.972,249.046 C238.203,249.989 238.459,250.957 238.754,251.92 C238.799,252.318 238.849,252.716 238.906,253.113 L238.816,252.87 C238.67,252.432 237.991,252.61 238.118,253.064 C238.319,253.782 238.469,254.515 238.616,255.243 C237.864,254.971 237.114,254.691 236.382,254.35 L236.179,254.324 C236.011,254.126 235.837,253.935 235.674,253.729 C235.41,253.394 234.924,253.82 235.106,254.167 C235.514,254.947 235.604,255.676 235.789,256.511 C235.835,256.715 235.902,256.912 235.98,257.107 C235.577,256.454 235.199,255.793 234.881,255.121 C234.708,254.756 234.064,255.019 234.219,255.401 C234.979,257.267 235.439,259.02 236.454,260.541 C235.255,260.983 235.932,262.478 236.351,263.309 C236.701,264.002 237.118,264.651 237.565,265.277 C236.532,264.403 235.6,263.416 234.83,262.243 C234.514,261.763 233.801,262.18 234.06,262.693 C234.168,262.907 234.296,263.11 234.414,263.318 L234.375,263.484 C234.35,263.948 234.382,264.411 234.462,264.865 C233.761,263.826 233.041,262.783 232.455,261.724 C232.228,261.313 231.541,261.589 231.689,262.046 C231.935,262.806 232.024,263.625 232.152,264.434 C231.806,264.183 231.467,263.92 231.142,263.633 C230.729,263.27 230.076,263.621 230.139,264.105 C229.786,263.864 229.438,263.611 229.097,263.327 C228.651,262.954 227.824,263.45 228.222,264.002 C228.61,264.54 229.008,265.098 229.419,265.648 L229.359,265.694 C228.749,265.293 228.163,264.856 227.619,264.36 C227.353,264.118 226.868,264.438 227.094,264.766 C227.621,265.527 228.198,266.224 228.824,266.85 C228.805,267.046 228.82,267.244 228.866,267.435 C228.079,267.722 227.385,268.178 226.876,268.889 C226.793,269.004 226.84,269.163 226.924,269.26 C227.638,270.09 228.625,270.493 229.708,270.639 C229.809,270.881 229.936,271.119 230.08,271.353 C229.686,271.894 229.545,272.633 229.909,273.268 C230.081,273.568 230.28,273.851 230.492,274.125 C230.384,274.654 230.068,274.888 229.554,274.841 C229.111,273.831 228.777,272.777 228.631,271.659 C228.536,270.938 227.461,270.881 227.461,271.659 C227.46,272.39 227.526,273.109 227.645,273.812 C226.988,272.475 226.452,271.092 226.227,269.54 C226.162,269.092 225.472,269.221 225.461,269.644 C225.447,270.163 225.467,270.685 225.503,271.205 C225.378,271.108 225.249,271.03 225.114,270.976 C224.942,270.135 224.839,269.279 224.838,268.416 C224.837,267.798 223.943,267.818 223.892,268.416 L223.884,268.608 L223.85,268.424 C223.796,268.049 223.157,268.054 223.098,268.424 C223.05,268.723 223.012,269.023 222.979,269.323 C222.915,268.946 222.867,268.563 222.856,268.166 C222.842,267.631 222.083,267.524 221.926,268.039 C220.977,271.177 221.92,273.994 223.719,276.341 C223.614,276.309 223.512,276.268 223.407,276.234 C223.315,276.157 223.223,276.083 223.134,276 C222.962,275.839 222.772,275.864 222.643,275.97 C221.214,275.418 219.893,274.644 218.814,273.5 C218.466,273.132 217.934,273.677 218.262,274.052 C219.918,275.94 221.832,277.52 224.129,278.193 C225.058,279.014 226.14,279.711 227.294,280.066 L227.488,280.189 C226.619,279.986 225.759,279.729 224.904,279.438 C224.518,279.307 224.258,279.913 224.625,280.1 C225.682,280.636 226.737,281.168 227.827,281.508 C227.779,281.871 227.809,282.235 227.954,282.592 C226.257,282.325 224.556,282.142 222.915,281.462 C222.32,281.215 222.06,282.185 222.648,282.429 C224.05,283.009 225.441,283.661 226.875,284.085 C226.722,284.292 226.566,284.494 226.418,284.713 L226.299,284.55 C226.079,284.18 225.567,284.438 225.637,284.829 C225.671,285.022 225.718,285.2 225.763,285.38 L225.522,285.204 C225.127,284.615 224.759,284.001 224.441,283.338 C224.277,282.997 223.713,283.236 223.83,283.596 C223.918,283.867 224.022,284.139 224.122,284.409 C223.846,284.281 223.566,284.165 223.281,284.068 C221.399,283.425 219.023,283.904 217.258,283.084 C217.004,282.967 216.722,283.145 216.671,283.37 C216.377,283.32 216.089,283.667 216.27,283.953 C216.624,284.516 217.052,285.016 217.513,285.485 C217.315,285.495 217.118,285.509 216.923,285.531 C216.528,285.171 216.149,284.787 215.812,284.346 C215.579,284.041 215.087,284.298 215.283,284.655 C215.483,285.021 215.71,285.368 215.95,285.705 C215.591,285.792 215.25,285.913 214.924,286.063 C214.442,285.75 213.936,285.499 213.399,285.446 L213.318,285.552 C213.58,286.736 214.215,287.805 215.058,288.699 C214.732,288.682 214.405,288.669 214.078,288.673 C212.704,288.688 211.125,289.18 209.797,289.019 C209.134,288.938 209.102,289.912 209.649,290.112 C210.263,290.338 210.729,290.816 211.304,291.099 C211.732,291.31 212.21,291.474 212.694,291.603 L212.68,291.686 C211.835,291.709 210.989,291.717 210.137,291.656 C209.379,291.603 209.4,292.75 210.137,292.826 C211.228,292.938 212.294,293.124 213.358,293.279 C213.649,293.553 214.022,293.734 214.437,293.783 C214.233,293.834 214.033,293.878 213.838,293.903 C213.404,293.963 213.507,294.693 213.942,294.67 C215.574,294.585 216.934,294.785 218.55,294.345 C218.751,294.29 218.942,294.228 219.134,294.165 C219.16,294.285 219.217,294.398 219.298,294.479 C219.09,294.479 218.882,294.481 218.672,294.475 C218.029,294.457 218.064,295.382 218.672,295.453 C219.719,295.574 220.778,295.647 221.831,295.624 C221.791,295.836 221.793,296.053 221.839,296.264 C220.939,296.289 220.041,296.265 219.075,296.134 C218.618,296.072 218.438,296.663 218.882,296.832 C219.806,297.184 220.752,297.588 221.708,297.955 C221.703,298.044 221.704,298.135 221.71,298.227 C221.342,298.115 220.972,298.011 220.597,297.913 C219.016,297.503 216.778,297.347 215.481,296.37 C215.022,296.025 214.578,296.798 215.031,297.14 C215.406,297.421 215.711,297.775 216.009,298.134 C215.616,298.394 215.326,298.82 215.309,299.356 L215.304,299.485 C214.134,298.731 212.998,297.929 211.927,297.053 C211.509,296.711 210.995,297.226 211.336,297.644 C212.519,299.095 213.636,300.603 214.871,301.918 C213.882,301.167 212.928,300.375 212.051,299.506 C211.914,299.369 211.704,299.542 211.789,299.709 C212.517,301.127 213.404,302.378 214.433,303.469 C212.706,303.137 210.976,302.815 209.243,302.472 C208.612,302.348 208.343,303.314 208.976,303.439 C211.181,303.875 213.156,304.904 215.157,305.756 C214.889,306.147 214.842,306.678 214.972,307.165 C214.294,307.13 213.616,307.086 212.938,307.017 C212.343,306.956 212.222,307.925 212.797,308.057 C215.102,308.584 217.403,308.985 219.724,309.031 C219.654,309.173 219.556,309.305 219.444,309.43 C217.161,309.563 214.857,309.502 212.601,309.34 C212.387,309.324 212.34,309.569 212.452,309.702 C212.02,309.642 211.593,309.573 211.18,309.487 C210.484,309.341 210.189,310.367 210.884,310.562 C211.293,310.676 211.689,310.875 212.076,311.12 C211.97,311.124 211.864,311.132 211.759,311.138 C211.027,310.766 210.309,310.37 209.628,309.912 C209.138,309.583 208.651,310.295 209.021,310.7 C209.232,310.933 209.449,311.153 209.667,311.371 C209.038,311.484 208.401,311.643 207.756,311.835 C207.553,311.675 207.354,311.51 207.168,311.321 C206.737,310.884 206.089,311.541 206.498,311.99 C208.397,314.076 210.548,315.51 212.928,316.213 C210.073,316.891 207.184,317.218 204.2,316.48 C203.983,316.426 203.834,316.531 203.767,316.678 L203.552,316.594 L203.453,316.712 C203.29,316.238 202.854,315.902 202.25,316.145 C199.554,317.234 196.714,318.026 193.808,318.636 C193.968,318.301 193.993,317.918 193.899,317.573 C197.702,316.47 201.427,314.864 205.28,312.975 C206.228,312.511 205.565,310.928 204.559,311.264 C201.79,312.19 198.911,312.839 195.984,313.326 C196.548,313.062 197.117,312.807 197.692,312.566 C198.936,312.044 198.39,309.985 197.126,310.515 C196.894,310.612 196.663,310.693 196.43,310.782 C197.981,310.068 199.519,309.256 201.059,308.385 C201.347,308.351 201.581,308.21 201.739,308.005 C201.86,307.936 201.98,307.875 202.1,307.804 C202.94,307.31 202.381,305.787 201.412,306.171 C201.217,306.247 201.019,306.315 200.824,306.389 C200.258,306.245 199.695,306.098 199.13,305.951 C199.266,305.71 199.338,305.44 199.325,305.177 C201.823,305.091 204.318,304.91 206.805,304.562 C208.282,304.355 207.746,302.264 206.477,302.138 C204.409,301.934 202.336,301.819 200.26,301.76 C201.429,300.457 202.581,299.076 203.843,297.624 C204.489,296.88 203.607,295.469 202.709,296.154 C200.79,297.617 198.457,298.661 196.038,299.576 C195.364,299.167 194.711,298.8 194.067,298.484 C194.187,298.186 194.219,297.859 194.156,297.544 C195.803,296.696 197.445,295.838 199.086,294.983 C199.766,294.628 199.165,293.599 198.485,293.953 C196.771,294.848 195.025,295.649 193.263,296.406 L193.036,296.295 L191.87,295.854 C192.061,295.747 192.256,295.64 192.447,295.533 C193.66,295.098 194.864,294.605 196.147,294.118 C196.47,293.995 196.482,293.615 196.247,293.451 C196.772,293.168 197.288,292.883 197.827,292.604 C198.751,292.124 197.934,290.729 197.011,291.207 C195.698,291.889 194.356,292.508 192.997,293.09 C192.262,293.016 191.531,292.946 190.801,292.891 C191.041,292.708 191.285,292.533 191.522,292.345 C194.326,291.544 197.119,290.633 199.941,289.644 C200.567,289.424 200.315,288.546 199.67,288.658 C198.243,288.908 196.815,289.133 195.388,289.35 C198.076,287.946 200.392,286.089 201.759,283.605 L201.722,283.54 C200.616,283.487 199.491,283.631 198.37,283.876 C198.371,283.738 198.368,283.602 198.34,283.468 C199.308,282.818 200.272,282.155 201.238,281.482 C202.126,280.861 201.353,279.475 200.379,280.012 C198.92,280.817 197.452,281.601 195.973,282.359 C195.237,282.429 194.501,282.499 193.777,282.6 C194.728,281.463 195.647,280.277 196.564,279.066 C197.262,278.146 195.719,276.957 194.96,277.828 C193.085,279.984 190.924,281.808 188.717,283.585 C188.604,283.613 188.489,283.637 188.376,283.666 C189.694,281.78 191.059,279.935 192.716,278.314 C193.266,277.775 192.434,276.95 191.873,277.471 C190.627,278.628 189.336,279.704 188.067,280.783 C188.741,279.628 189.519,278.525 190.54,277.507 C191.061,276.987 190.698,276.301 190.165,276.12 C191.314,275.485 192.319,274.661 192.985,273.445 C193.205,273.045 192.844,272.596 192.409,272.695 C191.027,273.008 189.651,273.338 188.275,273.667 C188.252,273.529 188.214,273.394 188.154,273.268 C189.331,272.446 190.405,271.549 191.314,270.55 C191.528,270.315 191.389,269.887 191.043,269.897 C187.668,269.99 184.312,271.133 181.002,272.186 C182.491,270.84 184.113,269.635 185.876,268.609 C186.079,268.489 185.945,268.143 185.712,268.22 C183.384,268.988 181.191,270.042 179.196,271.341 C179.099,271.038 179.006,270.734 178.938,270.414 C180.274,268.697 181.629,266.998 183.139,265.483 C183.448,265.172 183.055,264.669 182.675,264.881 C181.15,265.733 179.616,266.492 178.099,267.268 C177.878,267.062 177.621,266.897 177.338,266.813 C180.699,264.914 184.135,263.132 187.919,261.854 C188.901,261.523 188.51,260.055 187.49,260.295 C183.035,261.346 178.155,262.606 173.627,264.515 C174.238,263.98 174.835,263.419 175.426,262.846 C179.19,261.77 182.964,260.772 186.805,260.344 C187.408,260.276 187.61,259.629 187.417,259.222 C188.205,259.123 188.994,259.027 189.792,258.951 C189.884,258.943 189.882,258.819 189.792,258.809 C186.948,258.472 184.095,258.399 181.274,258.601 C182.91,257.698 184.549,256.806 186.219,255.966 C188.229,255.394 190.293,255.116 192.297,255.828 C192.891,256.04 193.19,255.171 192.708,254.853 C191.384,253.981 189.9,253.57 188.344,253.469 L188.122,253.291 C188.341,253.245 188.56,253.201 188.779,253.155 C189.978,252.907 189.446,251.173 188.281,251.351 C187.997,251.394 187.713,251.438 187.429,251.482 C189.558,249.797 191.707,248.133 193.915,246.524 C194.516,246.085 194.181,244.866 193.358,245.201 C190.538,246.35 187.818,247.691 185.214,249.211 C185.688,248.241 184.23,247.413 183.649,248.375 C183.022,249.411 182.363,250.422 181.695,251.428 C181.333,251.673 180.977,251.927 180.62,252.181 C181.464,250.785 182.308,249.39 183.142,247.982 C183.522,247.337 182.563,246.535 182.072,247.156 C181.48,247.905 180.907,248.66 180.343,249.418 C181.086,247.808 181.871,246.207 182.76,244.64 C183.275,243.734 181.898,242.93 181.365,243.824 C179.837,246.383 178.156,248.785 176.535,251.202 C176.304,250.831 175.754,250.66 175.41,250.931 C175.489,250.785 175.564,250.638 175.645,250.492 C175.828,250.16 175.732,249.801 175.522,249.539 C178.05,245.874 180.714,242.298 183.684,239.027 C183.835,238.86 183.612,238.653 183.443,238.786 C181.729,240.132 180.109,241.526 178.574,242.978 C178.469,242.653 178.185,242.365 177.856,242.307 C178.55,241.971 179.252,241.651 179.972,241.369 C180.747,241.067 180.443,240.026 179.632,240.139 C178.287,240.326 176.969,240.593 175.688,240.938 C175.618,240.501 175.039,240.152 174.602,240.545 L174.542,240.6 C174.514,240.153 174.315,239.719 174.004,239.391 C174.413,239.161 174.822,238.933 175.244,238.715 L175.229,238.689 C175.497,238.506 175.665,238.251 175.75,237.976 C176.752,237.885 177.732,238.002 178.661,238.452 C179.112,238.671 179.51,237.996 179.056,237.777 C177.981,237.255 176.816,236.925 175.629,236.822 C175.379,236.388 174.893,236.118 174.237,236.327 C173.748,236.483 173.269,236.661 172.792,236.841 L172.852,236.685 C174.931,236.04 177.061,235.604 179.237,235.461 C179.605,235.438 179.662,234.958 179.322,234.832 C178.296,234.452 177.226,234.242 176.133,234.156 C177.184,233.684 178.256,233.258 179.346,232.886 C179.847,232.715 179.748,232.016 179.223,231.978 C178.121,231.899 177.042,231.944 175.983,232.068 C175.932,231.959 175.89,231.846 175.823,231.743 C176.667,230.844 177.482,229.885 178.288,228.86 C178.742,228.28 178.062,227.6 177.482,228.055 C176.802,228.59 176.089,229.094 175.379,229.6 C176.351,228.586 177.3,227.539 178.202,226.426 C178.541,226.008 177.999,225.428 177.598,225.822 C176.393,227.01 175.129,228.131 173.829,229.209 C173.58,229.014 173.276,228.879 172.917,228.858 C172.685,228.843 172.456,228.838 172.225,228.826 C172.276,228.653 172.327,228.485 172.378,228.315 C173.732,225.992 174.845,223.523 175.749,220.903 C175.962,220.284 175.027,220.064 174.788,220.639 C174.071,222.362 173.232,224.027 172.304,225.641 L172.182,225.549 C172.394,225.087 172.207,224.617 171.853,224.305 C172.266,223.571 172.641,222.808 172.983,222.02 C173.232,221.447 172.43,220.937 172.123,221.517 C171.661,222.39 171.133,223.215 170.568,224.012 C170.425,224.058 170.284,224.13 170.148,224.235 C169.167,224.995 167.774,225.514 166.951,226.426 C166.888,226.265 166.798,226.122 166.703,225.986 C169.06,223.602 171.081,220.911 173.02,217.869 C173.378,217.309 172.511,216.824 172.138,217.354 C170.748,219.328 168.93,220.985 166.97,222.523 C168.367,220.776 169.579,218.858 170.731,216.738 C171.185,215.905 170.02,215.267 169.482,216.009 C168.893,216.821 168.22,217.564 167.51,218.275 L168.026,215.623 C168.131,215.082 167.983,214.525 167.689,214.06 C167.997,212.918 168.225,211.741 168.446,210.532 C168.564,209.889 167.726,209.469 167.358,210.073 C165.882,212.492 163.573,214.272 161.752,216.423 C162.462,214.485 163.119,212.508 163.925,210.521 C164.142,209.989 163.234,209.603 162.992,210.127 C162.272,211.69 161.418,213.164 160.536,214.62 C161.26,212.221 161.793,209.754 162.148,207.194 C162.177,206.985 161.883,206.887 161.819,207.104 C161.017,209.828 160.046,212.502 158.98,215.139 C158.606,212.154 158.239,209.169 157.876,206.184 C158.195,204.936 158.526,203.693 158.889,202.46 C159.035,201.964 158.258,201.608 158.034,202.1 C157.76,202.698 157.5,203.295 157.247,203.891 C157.086,203.72 156.901,203.574 156.694,203.477 C156.425,201.489 156.094,199.489 155.726,197.453 C155.647,197.015 154.986,197.139 154.974,197.555 C154.905,199.815 154.789,202.057 154.68,204.293 L154.615,204.435 C154.19,206.011 153.855,207.702 153.718,209.372 C152.854,207.818 152.035,206.235 151.356,204.566 C151.075,203.873 150.02,204.116 150.208,204.882 C150.561,206.323 150.952,207.803 151.404,209.274 C151.472,209.88 151.547,210.488 151.636,211.096 C151.591,210.971 151.54,210.851 151.498,210.726 C151.275,210.055 150.238,210.327 150.432,211.02 C150.739,212.118 150.968,213.237 151.192,214.35 C150.043,213.934 148.897,213.506 147.779,212.985 C147.677,212.938 147.572,212.933 147.47,212.946 C147.212,212.644 146.947,212.351 146.698,212.036 C146.294,211.525 145.552,212.176 145.83,212.706 C146.454,213.899 146.59,215.011 146.874,216.286 C146.943,216.598 147.046,216.9 147.165,217.196 C146.549,216.199 145.972,215.19 145.486,214.164 C145.222,213.606 144.237,214.007 144.475,214.59 C145.636,217.442 146.338,220.119 147.889,222.443 C146.058,223.117 147.092,225.402 147.732,226.672 C148.266,227.732 148.904,228.722 149.587,229.678 C148.009,228.345 146.584,226.836 145.408,225.044 C144.926,224.31 143.837,224.948 144.232,225.732 C144.397,226.059 144.592,226.367 144.772,226.686 C144.744,226.763 144.718,226.841 144.713,226.939 C144.674,227.65 144.724,228.357 144.847,229.05 C143.774,227.463 142.674,225.869 141.78,224.25 C141.433,223.623 140.383,224.045 140.609,224.743 C140.985,225.904 141.122,227.155 141.316,228.391 C140.788,228.008 140.27,227.607 139.773,227.168 C139.143,226.612 138.146,227.149 138.241,227.888 C137.703,227.521 137.17,227.135 136.65,226.699 C135.968,226.13 134.705,226.888 135.313,227.732 C135.907,228.554 136.514,229.405 137.142,230.244 L137.05,230.317 C136.118,229.703 135.223,229.035 134.392,228.278 C133.985,227.908 133.244,228.398 133.59,228.898 C134.395,230.062 135.277,231.126 136.232,232.082 C136.204,232.382 136.227,232.685 136.296,232.976 C135.094,233.414 134.034,234.111 133.256,235.197 C133.13,235.373 133.202,235.616 133.33,235.764 C134.421,237.031 135.929,237.648 137.583,237.87 C137.738,238.241 137.932,238.605 138.151,238.96 C137.55,239.787 137.334,240.917 137.89,241.886 C138.152,242.344 138.457,242.777 138.78,243.196 C138.616,244.006 138.133,244.362 137.348,244.29 C136.671,242.747 136.161,241.138 135.937,239.429 C135.793,238.326 134.151,238.241 134.151,239.429 C134.15,240.545 134.251,241.644 134.431,242.718 C133.428,240.675 132.608,238.563 132.265,236.192 C132.166,235.507 131.111,235.704 131.095,236.35 C131.074,237.144 131.103,237.941 131.159,238.735 C130.968,238.587 130.77,238.468 130.566,238.385 C130.302,237.1 130.145,235.793 130.144,234.475 C130.143,233.53 128.777,233.561 128.697,234.475 C128.688,234.573 128.693,234.668 128.686,234.767 C128.671,234.672 128.647,234.581 128.634,234.486 C128.552,233.913 127.575,233.922 127.485,234.486 C127.412,234.943 127.353,235.402 127.303,235.86 C127.205,235.284 127.132,234.698 127.115,234.092 C127.094,233.276 125.934,233.111 125.695,233.9 C124.244,238.692 125.686,242.996 128.434,246.582 C128.273,246.532 128.117,246.47 127.957,246.418 C127.817,246.301 127.676,246.189 127.539,246.061 C127.277,245.816 126.987,245.854 126.789,246.015 C124.607,245.171 122.589,243.989 120.939,242.242 C120.409,241.68 119.596,242.512 120.097,243.084 C122.627,245.969 125.55,248.383 129.061,249.41 C130.479,250.665 132.131,251.731 133.896,252.273 C133.992,252.338 134.095,252.396 134.192,252.46 C132.864,252.151 131.55,251.757 130.243,251.313 C129.654,251.112 129.257,252.039 129.817,252.323 C131.433,253.143 133.045,253.956 134.709,254.476 C134.637,255.03 134.682,255.587 134.904,256.131 C132.311,255.725 129.712,255.443 127.206,254.405 C126.295,254.028 125.899,255.51 126.798,255.882 C128.939,256.769 131.064,257.766 133.255,258.413 C133.021,258.73 132.784,259.038 132.558,259.371 L132.374,259.122 C132.039,258.559 131.258,258.95 131.364,259.549 C131.416,259.843 131.488,260.116 131.557,260.392 C131.433,260.303 131.315,260.207 131.189,260.122 C130.585,259.224 130.023,258.285 129.537,257.272 C129.287,256.751 128.425,257.116 128.603,257.665 C128.739,258.08 128.896,258.494 129.049,258.908 C128.628,258.713 128.2,258.535 127.765,258.387 C124.89,257.404 121.26,258.138 118.562,256.884 C118.175,256.704 117.743,256.976 117.666,257.32 C117.217,257.245 116.778,257.775 117.052,258.211 C117.594,259.07 118.249,259.835 118.953,260.55 C118.649,260.568 118.348,260.588 118.051,260.622 C117.447,260.07 116.868,259.485 116.353,258.811 C115.998,258.345 115.247,258.738 115.545,259.283 C115.851,259.843 116.198,260.374 116.565,260.889 C116.017,261.021 115.495,261.205 114.997,261.434 C114.261,260.956 113.488,260.572 112.667,260.492 L112.544,260.654 C112.944,262.463 113.914,264.095 115.202,265.461 C114.704,265.435 114.205,265.415 113.704,265.421 C111.604,265.444 109.192,266.196 107.165,265.949 C106.152,265.826 106.102,267.315 106.938,267.621 C107.876,267.965 108.587,268.694 109.467,269.128 C110.121,269.449 110.85,269.7 111.591,269.897 L111.569,270.024 C110.279,270.061 108.985,270.072 107.684,269.98 C106.526,269.897 106.558,271.651 107.684,271.767 C109.35,271.938 110.979,272.222 112.605,272.46 C113.05,272.877 113.618,273.152 114.253,273.23 C113.942,273.308 113.635,273.373 113.338,273.413 C112.674,273.503 112.832,274.617 113.497,274.583 C115.99,274.455 118.067,274.76 120.537,274.087 C120.843,274.004 121.136,273.907 121.429,273.812 C121.469,273.996 121.556,274.167 121.68,274.291 C121.362,274.292 121.044,274.295 120.724,274.286 C119.741,274.258 119.793,275.672 120.724,275.78 C122.323,275.966 123.941,276.075 125.549,276.041 C125.488,276.364 125.491,276.696 125.561,277.018 C124.186,277.058 122.814,277.021 121.338,276.82 C120.641,276.726 120.365,277.629 121.044,277.888 C122.456,278.424 123.901,279.041 125.36,279.602 C125.354,279.739 125.354,279.877 125.364,280.018 C124.803,279.847 124.237,279.688 123.664,279.538 C121.249,278.912 117.83,278.672 115.848,277.181 C115.148,276.653 114.469,277.835 115.161,278.357 C115.733,278.787 116.199,279.327 116.655,279.876 C116.054,280.274 115.611,280.924 115.584,281.743 L115.578,281.941 C113.79,280.787 112.054,279.564 110.418,278.224 C109.779,277.701 108.994,278.487 109.516,279.127 C111.322,281.343 113.03,283.648 114.916,285.656 C113.405,284.51 111.948,283.3 110.609,281.972 C110.397,281.763 110.077,282.027 110.208,282.281 C111.32,284.448 112.675,286.359 114.247,288.027 C111.608,287.518 108.965,287.027 106.317,286.503 C105.354,286.313 104.942,287.789 105.91,287.981 C109.279,288.647 112.296,290.22 115.353,291.521 C114.944,292.116 114.872,292.929 115.07,293.673 C114.034,293.62 112.999,293.552 111.963,293.446 C111.055,293.354 110.869,294.833 111.748,295.034 C115.269,295.84 118.785,296.454 122.33,296.525 C122.223,296.741 122.074,296.942 121.903,297.134 C118.415,297.336 114.895,297.243 111.448,296.995 C111.121,296.972 111.05,297.346 111.221,297.55 C110.561,297.456 109.908,297.353 109.278,297.221 C108.213,296.997 107.762,298.565 108.826,298.861 C109.451,299.036 110.055,299.341 110.646,299.716 C110.485,299.721 110.323,299.734 110.161,299.742 C109.044,299.174 107.946,298.569 106.906,297.87 C106.157,297.367 105.414,298.454 105.978,299.073 C106.302,299.429 106.632,299.767 106.965,300.099 C106.004,300.271 105.032,300.513 104.046,300.808 C103.737,300.563 103.431,300.311 103.147,300.022 C102.489,299.355 101.499,300.359 102.124,301.045 C105.025,304.232 108.312,306.421 111.948,307.495 C107.586,308.53 103.171,309.031 98.613,307.903 C97.853,307.715 97.596,308.777 98.296,309.053 C101.055,310.136 103.943,310.995 106.834,311.443 C71.487,315.712 36.14,319.982 0.793,324.251 C0.529,351.002 0,404.506 0,404.506 L839.343,404.506 C839.343,404.506 838.815,355.011 838.55,328.259 L838.55,328.259 Z" transform="translate(-111.662 -.973)"/>
</svg>
