<svg xmlns="http://www.w3.org/2000/svg" width="631" height="383" viewBox="0 0 631 383">
  <path fill="#FFF" d="M155.532,66.168 C155.809333,66.168 156.049333,66.0906667 156.252,65.936 C156.454667,65.7813333 156.630667,65.5066667 156.78,65.112 C156.929333,64.7173333 157.057333,64.1626667 157.164,63.448 C157.750667,63.7146667 158.318667,63.9973333 158.868,64.296 C159.417333,64.5946667 159.905333,64.8826667 160.332,65.16 L160.332,65.16 L161.532,62.776 C160.924,62.5306667 160.257333,62.3066667 159.532,62.104 C158.806667,61.9013333 158.065333,61.72 157.308,61.56 C157.318667,61.2186667 157.326667,60.856 157.332,60.472 C157.337333,60.088 157.34,59.6826667 157.34,59.256 L157.34,59.256 L157.34,58.328 L161.58,57.672 L161.564,57.48 L157.34,57.304 L157.34,55.192 L162.22,54.664 L162.22,54.536 L157.324,54.136 L157.324,52.072 L154.716,52.072 C154.748,52.3066667 154.782667,52.584 154.82,52.904 C154.857333,53.224 154.892,53.5706667 154.924,53.944 L154.924,53.944 L149.804,53.528 L149.996,55.992 L155.036,55.448 C155.057333,55.7253333 155.078667,56.0106667 155.1,56.304 C155.121333,56.5973333 155.137333,56.8986667 155.148,57.208 L155.148,57.208 L150.14,57 L150.284,59.432 L155.212,58.664 C155.233333,59.112 155.249333,59.552 155.26,59.984 C155.270667,60.416 155.276,60.824 155.276,61.208 C154.657333,61.112 154.054667,61.04 153.468,60.992 C152.881333,60.944 152.337333,60.92 151.836,60.92 C151.046667,60.92 150.444,60.9973333 150.028,61.152 C149.612,61.3066667 149.404,61.5493333 149.404,61.88 C149.404,62.3493333 149.846667,62.9786667 150.732,63.768 C151.350667,64.3226667 152.009333,64.8026667 152.708,65.208 C153.406667,65.6133333 154.070667,65.8906667 154.7,66.04 C154.86,66.0826667 155.009333,66.1146667 155.148,66.136 C155.286667,66.1573333 155.414667,66.168 155.532,66.168 Z M154.7,64.664 C154.657333,64.664 154.609333,64.6533333 154.556,64.632 L154.556,64.632 L154.396,64.568 C154.108,64.4293333 153.812,64.224 153.508,63.952 C153.204,63.68 152.977333,63.432 152.828,63.208 C152.625333,62.9093333 152.481333,62.6666667 152.396,62.48 C152.310667,62.2933333 152.268,62.1466667 152.268,62.04 C152.268,61.8906667 152.358667,61.816 152.54,61.816 L152.54,61.816 L152.62,61.816 C152.652,61.816 152.684,61.8213333 152.716,61.832 C153.046667,61.8853333 153.430667,61.9813333 153.868,62.12 C154.305333,62.2586667 154.769333,62.424 155.26,62.616 C155.238667,63.1706667 155.201333,63.5973333 155.148,63.896 C155.094667,64.1946667 155.030667,64.3973333 154.956,64.504 C154.881333,64.6106667 154.796,64.664 154.7,64.664 Z M170.3,66.04 L175.5,62.712 L176.492,52.696 L173.58,52.456 L173.644,61.656 L170.204,65.976 L170.3,66.04 Z M167.292,62.456 L172.22,58.936 L172.14,58.808 L169.036,59.288 L168.924,52.76 L166.3,52.872 L167.292,62.456 Z M192.268,57.016 L192.636,54.024 L183.036,54.248 L183.036,54.408 L192.268,57.016 Z M185.404,65.224 C186.801333,65.224 188.230667,65.1706667 189.692,65.064 C191.153333,64.9573333 192.561333,64.8186667 193.916,64.648 L193.916,64.648 L193.564,61.624 C192.870667,61.8586667 192.14,62.0853333 191.372,62.304 C190.604,62.5226667 189.841333,62.7226667 189.084,62.904 C188.326667,63.0853333 187.622667,63.2426667 186.972,63.376 C186.321333,63.5093333 185.772,63.6186667 185.324,63.704 C184.961333,63.768 184.662667,63.8 184.428,63.8 C184.033333,63.8 183.774667,63.6933333 183.652,63.48 C183.529333,63.2666667 183.468,62.9146667 183.468,62.424 L183.468,62.424 L183.468,62.296 C183.478667,61.848 183.521333,61.3146667 183.596,60.696 C183.670667,60.0773333 183.766667,59.4106667 183.884,58.696 L183.884,58.696 L183.772,58.552 C183.302667,59.0533333 182.862667,59.592 182.452,60.168 C182.041333,60.744 181.692,61.2933333 181.404,61.816 C181.233333,62.1146667 181.102667,62.3973333 181.012,62.664 C180.921333,62.9306667 180.876,63.176 180.876,63.4 C180.876,63.9866667 181.222667,64.4373333 181.916,64.752 C182.609333,65.0666667 183.772,65.224 185.404,65.224 Z"/>
</svg>
